<?xml version="1.0" encoding="utf-8" standalone="no"?>
<!DOCTYPE svg PUBLIC "-//W3C//DTD SVG 1.1//EN"
  "http://www.w3.org/Graphics/SVG/1.1/DTD/svg11.dtd">
<svg xmlns:xlink="http://www.w3.org/1999/xlink" width="432pt" height="360pt" viewBox="0 0 432 360" xmlns="http://www.w3.org/2000/svg" version="1.1">
 <metadata>
  <rdf:RDF xmlns:dc="http://purl.org/dc/elements/1.1/" xmlns:cc="http://creativecommons.org/ns#" xmlns:rdf="http://www.w3.org/1999/02/22-rdf-syntax-ns#">
   <cc:Work>
    <dc:type rdf:resource="http://purl.org/dc/dcmitype/StillImage"/>
    <dc:date>2022-08-29T13:02:07.065251</dc:date>
    <dc:format>image/svg+xml</dc:format>
    <dc:creator>
     <cc:Agent>
      <dc:title>Matplotlib v3.5.3, https://matplotlib.org/</dc:title>
     </cc:Agent>
    </dc:creator>
   </cc:Work>
  </rdf:RDF>
 </metadata>
 <defs>
  <style type="text/css">*{stroke-linejoin: round; stroke-linecap: butt}</style>
 </defs>
 <g id="figure_1">
  <g id="patch_1">
   <path d="M 0 360 
L 432 360 
L 432 0 
L 0 0 
z
" style="fill: #ffffff"/>
  </g>
  <g id="axes_1">
   <g id="patch_2">
    <path d="M 54 320.4 
L 388.8 320.4 
L 388.8 43.2 
L 54 43.2 
z
" style="fill: #ffffff"/>
   </g>
   <g id="PolyCollection_1">
    <path d="M 61.44 328.426411 
L 61.44 323.962221 
L 68.88 319.384268 
L 76.32 311.991135 
L 83.76 302.595699 
L 91.2 296.769931 
L 98.64 290.857511 
L 106.08 285.854632 
L 113.52 286.359027 
L 120.96 281.144084 
L 128.4 280.56322 
L 135.84 271.279323 
L 143.28 266.819292 
L 150.72 256.753177 
L 158.16 242.102816 
L 165.6 229.10817 
L 173.04 215.480418 
L 180.48 201.388626 
L 187.92 181.300225 
L 195.36 162.662906 
L 202.8 141.77139 
L 210.24 121.56927 
L 217.68 100.915551 
L 225.12 84.254172 
L 232.56 71.765702 
L 240 61.306765 
L 247.44 56.576945 
L 254.88 56.330874 
L 262.32 63.42078 
L 269.76 76.206943 
L 277.2 89.178796 
L 284.64 103.100843 
L 292.08 115.706953 
L 299.52 124.459265 
L 306.96 132.612327 
L 314.4 138.036508 
L 321.84 141.752514 
L 329.28 146.56323 
L 336.72 149.952354 
L 344.16 154.006543 
L 351.6 157.455097 
L 359.04 162.601445 
L 366.48 165.107972 
L 373.92 169.038061 
L 381.36 171.302603 
L 388.8 173.398764 
L 396.24 175.338875 
L 403.68 174.666251 
L 411.12 175.64751 
L 418.56 177.478681 
L 426 177.841126 
L 433.44 179.947619 
L 440.88 183.073702 
L 448.32 185.246418 
L 455.76 190.001784 
L 463.2 192.757106 
L 470.64 196.866103 
L 478.08 199.717419 
L 485.52 205.452205 
L 492.96 207.332194 
L 500.4 210.615079 
L 507.84 215.269815 
L 515.28 219.188076 
L 522.72 222.162443 
L 530.16 225.654857 
L 537.6 227.332487 
L 545.04 232.752474 
L 552.48 232.662597 
L 559.92 238.368951 
L 567.36 240.236185 
L 574.8 242.77819 
L 582.24 246.367144 
L 589.68 246.551899 
L 597.12 254.057236 
L 604.56 258.39042 
L 612 258.007481 
L 619.44 264.386752 
L 626.88 268.385703 
L 634.32 271.832255 
L 641.76 276.876317 
L 649.2 281.660844 
L 656.64 284.830091 
L 664.08 286.795663 
L 671.52 289.243018 
L 678.96 294.051233 
L 686.4 295.488231 
L 693.84 301.632589 
L 701.28 304.555014 
L 708.72 305.245331 
L 716.16 306.364873 
L 723.6 312.157938 
L 731.04 313.989196 
L 738.48 314.75001 
L 745.92 315.908534 
L 753.36 318.119101 
L 760.8 321.419664 
L 768.24 320.315552 
L 775.68 322.406581 
L 783.12 326.184189 
L 790.56 327.600944 
L 798 328.049491 
L 805.44 330.877302 
L 812.88 332.736158 
L 820.32 333.871136 
L 827.76 335.892408 
L 835.2 337.861641 
L 842.64 337.736874 
L 850.08 339.794047 
L 857.52 339.747637 
L 864.96 343.269629 
L 872.4 341.561991 
L 879.84 342.799702 
L 887.28 346.978725 
L 894.72 343.089833 
L 902.16 345.116913 
L 909.6 345.090867 
L 917.04 345.414132 
L 924.48 341.773818 
L 931.92 342.963486 
L 939.36 343.831436 
L 946.8 344.895966 
L 954.24 343.506316 
L 961.68 342.65823 
L 969.12 343.652687 
L 976.56 341.339746 
L 984 343.708192 
L 991.44 344.227674 
L 998.88 341.144101 
L 1006.32 340.990102 
L 1013.76 341.869577 
L 1021.2 343.41315 
L 1028.64 343.984713 
L 1036.08 342.713927 
L 1043.52 340.68322 
L 1050.96 341.05578 
L 1058.4 343.159458 
L 1065.84 340.5211 
L 1073.28 341.433508 
L 1080.72 340.232454 
L 1088.16 339.977993 
L 1095.6 338.220257 
L 1103.04 337.293807 
L 1110.48 337.206787 
L 1117.92 337.614879 
L 1125.36 338.632859 
L 1132.8 338.224516 
L 1140.24 336.21393 
L 1140.24 403.81069 
L 1140.24 403.81069 
L 1132.8 405.732648 
L 1125.36 406.484717 
L 1117.92 404.486497 
L 1110.48 404.564325 
L 1103.04 404.185849 
L 1095.6 406.328135 
L 1088.16 408.974975 
L 1080.72 408.595774 
L 1073.28 409.377096 
L 1065.84 409.405368 
L 1058.4 412.478782 
L 1050.96 410.326384 
L 1043.52 410.496852 
L 1036.08 413.717369 
L 1028.64 414.787999 
L 1021.2 414.311878 
L 1013.76 413.042003 
L 1006.32 411.623754 
L 998.88 412.579083 
L 991.44 415.954666 
L 984 415.582092 
L 976.56 413.040402 
L 969.12 416.765141 
L 961.68 415.623574 
L 954.24 417.292728 
L 946.8 418.799422 
L 939.36 418.077596 
L 931.92 416.857174 
L 924.48 415.890226 
L 917.04 421.388272 
L 909.6 422.194261 
L 902.16 422.971567 
L 894.72 421.284827 
L 887.28 426.053287 
L 879.84 422.213838 
L 872.4 422.266057 
L 864.96 423.849179 
L 857.52 420.539379 
L 850.08 420.391989 
L 842.64 418.874338 
L 835.2 419.334463 
L 827.76 416.711152 
L 820.32 414.7319 
L 812.88 413.378414 
L 805.44 411.691618 
L 798 408.563061 
L 790.56 408.268448 
L 783.12 406.673095 
L 775.68 401.773287 
L 768.24 398.001536 
L 760.8 399.0316 
L 753.36 394.541787 
L 745.92 393.660518 
L 738.48 390.38305 
L 731.04 389.332164 
L 723.6 385.284802 
L 716.16 377.485035 
L 708.72 376.222505 
L 701.28 374.672122 
L 693.84 370.426947 
L 686.4 362.206669 
L 678.96 360.260111 
L 671.52 353.275842 
L 664.08 348.827913 
L 656.64 345.384389 
L 649.2 340.188136 
L 641.76 333.500147 
L 634.32 325.084433 
L 626.88 320.663917 
L 619.44 314.975124 
L 612 306.581087 
L 604.56 306.01678 
L 597.12 300.785904 
L 589.68 291.438405 
L 582.24 290.279796 
L 574.8 286.209978 
L 567.36 281.914911 
L 559.92 280.279129 
L 552.48 272.776111 
L 545.04 273.578818 
L 537.6 268.934333 
L 530.16 267.219431 
L 522.72 262.892825 
L 515.28 261.229108 
L 507.84 256.366861 
L 500.4 252.050877 
L 492.96 249.70977 
L 485.52 248.192607 
L 478.08 242.497645 
L 470.64 240.407805 
L 463.2 237.035306 
L 455.76 233.835184 
L 448.32 230.138194 
L 440.88 227.928378 
L 433.44 225.361169 
L 426 222.757374 
L 418.56 222.882219 
L 411.12 222.840838 
L 403.68 223.546217 
L 396.24 224.666945 
L 388.8 223.819744 
L 381.36 223.292801 
L 373.92 222.785079 
L 366.48 219.616208 
L 359.04 219.014003 
L 351.6 215.028591 
L 344.16 212.050461 
L 336.72 207.086542 
L 329.28 203.180818 
L 321.84 196.850734 
L 314.4 192.285852 
L 306.96 187.089709 
L 299.52 178.615127 
L 292.08 168.404451 
L 284.64 152.973365 
L 277.2 138.500892 
L 269.76 124.160493 
L 262.32 111.483196 
L 254.88 105.719998 
L 247.44 108.577511 
L 240 115.640571 
L 232.56 126.931406 
L 225.12 140.03668 
L 217.68 155.862745 
L 210.24 176.084938 
L 202.8 194.498626 
L 195.36 212.16365 
L 187.92 226.695687 
L 180.48 242.63629 
L 173.04 251.699146 
L 165.6 260.85103 
L 158.16 269.901968 
L 150.72 279.548319 
L 143.28 286.563928 
L 135.84 286.843225 
L 128.4 295.092492 
L 120.96 294.00752 
L 113.52 300.061285 
L 106.08 299.171892 
L 98.64 303.450725 
L 91.2 308.863773 
L 83.76 313.120033 
L 76.32 317.242585 
L 68.88 321.39338 
L 61.44 328.426411 
z
" clip-path="url(#pb0c55d391f)" style="fill: #ff0000; fill-opacity: 0.3; stroke: #ff0000; stroke-opacity: 0.3"/>
   </g>
   <g id="PolyCollection_2">
    <path d="M 61.44 327.160676 
L 61.44 324.116692 
L 68.88 318.402682 
L 76.32 314.927595 
L 83.76 310.497221 
L 91.2 306.489943 
L 98.64 298.47285 
L 106.08 293.195368 
L 113.52 295.63379 
L 120.96 289.575038 
L 128.4 295.831261 
L 135.84 288.514284 
L 143.28 291.969174 
L 150.72 289.824662 
L 158.16 284.215369 
L 165.6 283.124228 
L 173.04 280.873038 
L 180.48 279.018812 
L 187.92 269.138061 
L 195.36 262.144615 
L 202.8 252.998044 
L 210.24 242.65822 
L 217.68 227.198557 
L 225.12 212.909582 
L 232.56 196.135328 
L 240 175.043973 
L 247.44 151.58229 
L 254.88 132.784698 
L 262.32 115.076165 
L 269.76 104.227551 
L 277.2 96.370342 
L 284.64 94.308946 
L 292.08 99.766012 
L 299.52 103.706862 
L 306.96 108.151554 
L 314.4 109.387255 
L 321.84 109.678195 
L 329.28 112.360432 
L 336.72 113.122449 
L 344.16 115.863648 
L 351.6 119.747542 
L 359.04 126.49588 
L 366.48 131.568142 
L 373.92 141.983006 
L 381.36 150.713449 
L 388.8 161.065863 
L 396.24 173.61842 
L 403.68 184.157491 
L 411.12 195.672792 
L 418.56 205.830421 
L 426 216.114251 
L 433.44 224.982046 
L 440.88 233.960711 
L 448.32 239.484359 
L 455.76 247.53481 
L 463.2 252.113308 
L 470.64 257.673713 
L 478.08 261.162936 
L 485.52 268.733786 
L 492.96 269.697901 
L 500.4 273.242188 
L 507.84 278.895129 
L 515.28 284.94228 
L 522.72 287.213328 
L 530.16 292.57951 
L 537.6 293.958903 
L 545.04 301.223471 
L 552.48 300.696845 
L 559.92 308.445738 
L 567.36 309.089413 
L 574.8 312.776346 
L 582.24 315.730325 
L 589.68 314.308143 
L 597.12 321.752279 
L 604.56 322.73324 
L 612 317.555874 
L 619.44 321.82342 
L 626.88 321.461015 
L 634.32 321.245217 
L 641.76 322.958432 
L 649.2 324.354555 
L 656.64 323.748462 
L 664.08 320.892824 
L 671.52 321.160292 
L 678.96 323.259473 
L 686.4 321.585256 
L 693.84 326.731699 
L 701.28 328.773336 
L 708.72 326.240081 
L 716.16 325.142969 
L 723.6 330.489329 
L 731.04 331.552639 
L 738.48 329.632158 
L 745.92 329.088817 
L 753.36 329.000787 
L 760.8 331.739214 
L 768.24 326.890763 
L 775.68 328.172399 
L 783.12 330.549761 
L 790.56 330.085525 
L 798 327.945292 
L 805.44 328.760737 
L 812.88 327.76454 
L 820.32 326.248751 
L 827.76 325.627944 
L 835.2 325.780294 
L 842.64 323.106898 
L 850.08 323.426288 
L 857.52 320.027451 
L 864.96 322.026938 
L 872.4 318.097781 
L 879.84 317.070444 
L 887.28 320.653428 
L 894.72 314.087072 
L 902.16 315.948248 
L 909.6 313.817125 
L 917.04 313.795632 
L 924.48 309.067142 
L 931.92 309.510727 
L 939.36 310.375041 
L 946.8 310.382982 
L 954.24 308.960494 
L 961.68 306.283496 
L 969.12 307.737594 
L 976.56 303.409206 
L 984 305.143259 
L 991.44 304.095415 
L 998.88 299.975777 
L 1006.32 298.974642 
L 1013.76 300.228714 
L 1021.2 299.654623 
L 1028.64 300.454291 
L 1036.08 298.719675 
L 1043.52 295.0811 
L 1050.96 293.994717 
L 1058.4 297.122089 
L 1065.84 293.714589 
L 1073.28 293.218891 
L 1080.72 290.814586 
L 1088.16 291.242476 
L 1095.6 288.774627 
L 1103.04 287.070815 
L 1110.48 288.054922 
L 1117.92 288.181801 
L 1125.36 289.282077 
L 1132.8 287.245705 
L 1140.24 286.466886 
L 1140.24 350.478846 
L 1140.24 350.478846 
L 1132.8 351.533507 
L 1125.36 353.060607 
L 1117.92 351.433895 
L 1110.48 352.168766 
L 1103.04 350.797993 
L 1095.6 352.513113 
L 1088.16 356.018132 
L 1080.72 356.005802 
L 1073.28 358.064681 
L 1065.84 358.646367 
L 1058.4 362.435111 
L 1050.96 359.586183 
L 1043.52 359.73466 
L 1036.08 364.306353 
L 1028.64 366.054161 
L 1021.2 365.957681 
L 1013.76 364.662474 
L 1006.32 364.136394 
L 998.88 366.002167 
L 991.44 370.989473 
L 984 371.549521 
L 976.56 369.495702 
L 969.12 374.19717 
L 961.68 373.282396 
L 954.24 375.912986 
L 946.8 378.07773 
L 939.36 377.508171 
L 931.92 376.476833 
L 924.48 374.230522 
L 917.04 381.27498 
L 909.6 381.432743 
L 902.16 383.494732 
L 894.72 382.806196 
L 887.28 390.627972 
L 879.84 386.544924 
L 872.4 387.467227 
L 864.96 392.48173 
L 857.52 390.658761 
L 850.08 393.786268 
L 842.64 393.68009 
L 835.2 397.928774 
L 827.76 397.283316 
L 820.32 398.686729 
L 812.88 400.062664 
L 805.44 401.414879 
L 798 400.285172 
L 790.56 403.406987 
L 783.12 403.566715 
L 775.68 400.252633 
L 768.24 398.560309 
L 760.8 404.89239 
L 753.36 401.275413 
L 745.92 401.422739 
L 738.48 401.861478 
L 731.04 403.016729 
L 723.6 401.782315 
L 716.16 395.676223 
L 708.72 396.336691 
L 701.28 400.986216 
L 693.84 399.385841 
L 686.4 393.174344 
L 678.96 396.610507 
L 671.52 394.118464 
L 664.08 394.72504 
L 656.64 397.131978 
L 649.2 398.115165 
L 641.76 396.80806 
L 634.32 393.936519 
L 626.88 395.372569 
L 619.44 394.516616 
L 612 390.580098 
L 604.56 396.24442 
L 597.12 395.717281 
L 589.68 387.496977 
L 582.24 390.636715 
L 574.8 386.909646 
L 567.36 383.536427 
L 559.92 383.92785 
L 552.48 376.246075 
L 545.04 376.060405 
L 537.6 369.398445 
L 530.16 367.058738 
L 522.72 362.449152 
L 515.28 360.161052 
L 507.84 353.221911 
L 500.4 346.5512 
L 492.96 343.675403 
L 485.52 342.012718 
L 478.08 333.074592 
L 470.64 328.693579 
L 463.2 322.250432 
L 455.76 316.493066 
L 448.32 306.164101 
L 440.88 298.415017 
L 433.44 288.666182 
L 426 277.883533 
L 418.56 268.890083 
L 411.12 256.70394 
L 403.68 245.726309 
L 396.24 236.483992 
L 388.8 225.455277 
L 381.36 217.802099 
L 373.92 210.732406 
L 366.48 202.183358 
L 359.04 199.59302 
L 351.6 194.484062 
L 344.16 192.543324 
L 336.72 191.065671 
L 329.28 190.554548 
L 321.84 187.620713 
L 314.4 187.396985 
L 306.96 185.34483 
L 299.52 178.947174 
L 292.08 174.02792 
L 284.64 167.604326 
L 277.2 169.618166 
L 269.76 177.635541 
L 262.32 187.266727 
L 254.88 203.147706 
L 247.44 215.264118 
L 240 240.556107 
L 232.56 258.40066 
L 225.12 270.33403 
L 217.68 280.580951 
L 210.24 292.571744 
L 202.8 297.854384 
L 195.36 303.113501 
L 187.92 306.099387 
L 180.48 312.467572 
L 173.04 309.751254 
L 165.6 307.525144 
L 158.16 305.921711 
L 150.72 306.37729 
L 143.28 305.256702 
L 135.84 297.616596 
L 128.4 303.509783 
L 120.96 297.02827 
L 113.52 303.874762 
L 106.08 304.466372 
L 98.64 312.96177 
L 91.2 317.679245 
L 83.76 317.087071 
L 76.32 317.299533 
L 68.88 320.492822 
L 61.44 327.160676 
z
" clip-path="url(#pb0c55d391f)" style="fill: #0000ff; fill-opacity: 0.3; stroke: #0000ff; stroke-opacity: 0.3"/>
   </g>
   <g id="matplotlib.axis_1">
    <g id="xtick_1">
     <g id="line2d_1">
      <defs>
       <path id="mea54477b16" d="M 0 0 
L 0 3.5 
" style="stroke: #000000; stroke-width: 0.8"/>
      </defs>
      <g>
       <use xlink:href="#mea54477b16" x="54" y="320.4" style="stroke: #000000; stroke-width: 0.8"/>
      </g>
     </g>
     <g id="text_1">
      <!-- 0 -->
      <g transform="translate(50.81875 334.998438)scale(0.1 -0.1)">
       <defs>
        <path id="DejaVuSans-30" d="M 2034 4250 
Q 1547 4250 1301 3770 
Q 1056 3291 1056 2328 
Q 1056 1369 1301 889 
Q 1547 409 2034 409 
Q 2525 409 2770 889 
Q 3016 1369 3016 2328 
Q 3016 3291 2770 3770 
Q 2525 4250 2034 4250 
z
M 2034 4750 
Q 2819 4750 3233 4129 
Q 3647 3509 3647 2328 
Q 3647 1150 3233 529 
Q 2819 -91 2034 -91 
Q 1250 -91 836 529 
Q 422 1150 422 2328 
Q 422 3509 836 4129 
Q 1250 4750 2034 4750 
z
" transform="scale(0.015625)"/>
       </defs>
       <use xlink:href="#DejaVuSans-30"/>
      </g>
     </g>
    </g>
    <g id="xtick_2">
     <g id="line2d_2">
      <g>
       <use xlink:href="#mea54477b16" x="98.64" y="320.4" style="stroke: #000000; stroke-width: 0.8"/>
      </g>
     </g>
     <g id="text_2">
      <!-- 6 -->
      <g transform="translate(95.45875 334.998438)scale(0.1 -0.1)">
       <defs>
        <path id="DejaVuSans-36" d="M 2113 2584 
Q 1688 2584 1439 2293 
Q 1191 2003 1191 1497 
Q 1191 994 1439 701 
Q 1688 409 2113 409 
Q 2538 409 2786 701 
Q 3034 994 3034 1497 
Q 3034 2003 2786 2293 
Q 2538 2584 2113 2584 
z
M 3366 4563 
L 3366 3988 
Q 3128 4100 2886 4159 
Q 2644 4219 2406 4219 
Q 1781 4219 1451 3797 
Q 1122 3375 1075 2522 
Q 1259 2794 1537 2939 
Q 1816 3084 2150 3084 
Q 2853 3084 3261 2657 
Q 3669 2231 3669 1497 
Q 3669 778 3244 343 
Q 2819 -91 2113 -91 
Q 1303 -91 875 529 
Q 447 1150 447 2328 
Q 447 3434 972 4092 
Q 1497 4750 2381 4750 
Q 2619 4750 2861 4703 
Q 3103 4656 3366 4563 
z
" transform="scale(0.015625)"/>
       </defs>
       <use xlink:href="#DejaVuSans-36"/>
      </g>
     </g>
    </g>
    <g id="xtick_3">
     <g id="line2d_3">
      <g>
       <use xlink:href="#mea54477b16" x="143.28" y="320.4" style="stroke: #000000; stroke-width: 0.8"/>
      </g>
     </g>
     <g id="text_3">
      <!-- 12 -->
      <g transform="translate(136.9175 334.998438)scale(0.1 -0.1)">
       <defs>
        <path id="DejaVuSans-31" d="M 794 531 
L 1825 531 
L 1825 4091 
L 703 3866 
L 703 4441 
L 1819 4666 
L 2450 4666 
L 2450 531 
L 3481 531 
L 3481 0 
L 794 0 
L 794 531 
z
" transform="scale(0.015625)"/>
        <path id="DejaVuSans-32" d="M 1228 531 
L 3431 531 
L 3431 0 
L 469 0 
L 469 531 
Q 828 903 1448 1529 
Q 2069 2156 2228 2338 
Q 2531 2678 2651 2914 
Q 2772 3150 2772 3378 
Q 2772 3750 2511 3984 
Q 2250 4219 1831 4219 
Q 1534 4219 1204 4116 
Q 875 4013 500 3803 
L 500 4441 
Q 881 4594 1212 4672 
Q 1544 4750 1819 4750 
Q 2544 4750 2975 4387 
Q 3406 4025 3406 3419 
Q 3406 3131 3298 2873 
Q 3191 2616 2906 2266 
Q 2828 2175 2409 1742 
Q 1991 1309 1228 531 
z
" transform="scale(0.015625)"/>
       </defs>
       <use xlink:href="#DejaVuSans-31"/>
       <use xlink:href="#DejaVuSans-32" x="63.623047"/>
      </g>
     </g>
    </g>
    <g id="xtick_4">
     <g id="line2d_4">
      <g>
       <use xlink:href="#mea54477b16" x="187.92" y="320.4" style="stroke: #000000; stroke-width: 0.8"/>
      </g>
     </g>
     <g id="text_4">
      <!-- 18 -->
      <g transform="translate(181.5575 334.998438)scale(0.1 -0.1)">
       <defs>
        <path id="DejaVuSans-38" d="M 2034 2216 
Q 1584 2216 1326 1975 
Q 1069 1734 1069 1313 
Q 1069 891 1326 650 
Q 1584 409 2034 409 
Q 2484 409 2743 651 
Q 3003 894 3003 1313 
Q 3003 1734 2745 1975 
Q 2488 2216 2034 2216 
z
M 1403 2484 
Q 997 2584 770 2862 
Q 544 3141 544 3541 
Q 544 4100 942 4425 
Q 1341 4750 2034 4750 
Q 2731 4750 3128 4425 
Q 3525 4100 3525 3541 
Q 3525 3141 3298 2862 
Q 3072 2584 2669 2484 
Q 3125 2378 3379 2068 
Q 3634 1759 3634 1313 
Q 3634 634 3220 271 
Q 2806 -91 2034 -91 
Q 1263 -91 848 271 
Q 434 634 434 1313 
Q 434 1759 690 2068 
Q 947 2378 1403 2484 
z
M 1172 3481 
Q 1172 3119 1398 2916 
Q 1625 2713 2034 2713 
Q 2441 2713 2670 2916 
Q 2900 3119 2900 3481 
Q 2900 3844 2670 4047 
Q 2441 4250 2034 4250 
Q 1625 4250 1398 4047 
Q 1172 3844 1172 3481 
z
" transform="scale(0.015625)"/>
       </defs>
       <use xlink:href="#DejaVuSans-31"/>
       <use xlink:href="#DejaVuSans-38" x="63.623047"/>
      </g>
     </g>
    </g>
    <g id="xtick_5">
     <g id="line2d_5">
      <g>
       <use xlink:href="#mea54477b16" x="232.56" y="320.4" style="stroke: #000000; stroke-width: 0.8"/>
      </g>
     </g>
     <g id="text_5">
      <!-- 24 -->
      <g transform="translate(226.1975 334.998438)scale(0.1 -0.1)">
       <defs>
        <path id="DejaVuSans-34" d="M 2419 4116 
L 825 1625 
L 2419 1625 
L 2419 4116 
z
M 2253 4666 
L 3047 4666 
L 3047 1625 
L 3713 1625 
L 3713 1100 
L 3047 1100 
L 3047 0 
L 2419 0 
L 2419 1100 
L 313 1100 
L 313 1709 
L 2253 4666 
z
" transform="scale(0.015625)"/>
       </defs>
       <use xlink:href="#DejaVuSans-32"/>
       <use xlink:href="#DejaVuSans-34" x="63.623047"/>
      </g>
     </g>
    </g>
    <g id="xtick_6">
     <g id="line2d_6">
      <g>
       <use xlink:href="#mea54477b16" x="277.2" y="320.4" style="stroke: #000000; stroke-width: 0.8"/>
      </g>
     </g>
     <g id="text_6">
      <!-- 30 -->
      <g transform="translate(270.8375 334.998438)scale(0.1 -0.1)">
       <defs>
        <path id="DejaVuSans-33" d="M 2597 2516 
Q 3050 2419 3304 2112 
Q 3559 1806 3559 1356 
Q 3559 666 3084 287 
Q 2609 -91 1734 -91 
Q 1441 -91 1130 -33 
Q 819 25 488 141 
L 488 750 
Q 750 597 1062 519 
Q 1375 441 1716 441 
Q 2309 441 2620 675 
Q 2931 909 2931 1356 
Q 2931 1769 2642 2001 
Q 2353 2234 1838 2234 
L 1294 2234 
L 1294 2753 
L 1863 2753 
Q 2328 2753 2575 2939 
Q 2822 3125 2822 3475 
Q 2822 3834 2567 4026 
Q 2313 4219 1838 4219 
Q 1578 4219 1281 4162 
Q 984 4106 628 3988 
L 628 4550 
Q 988 4650 1302 4700 
Q 1616 4750 1894 4750 
Q 2613 4750 3031 4423 
Q 3450 4097 3450 3541 
Q 3450 3153 3228 2886 
Q 3006 2619 2597 2516 
z
" transform="scale(0.015625)"/>
       </defs>
       <use xlink:href="#DejaVuSans-33"/>
       <use xlink:href="#DejaVuSans-30" x="63.623047"/>
      </g>
     </g>
    </g>
    <g id="xtick_7">
     <g id="line2d_7">
      <g>
       <use xlink:href="#mea54477b16" x="321.84" y="320.4" style="stroke: #000000; stroke-width: 0.8"/>
      </g>
     </g>
     <g id="text_7">
      <!-- 36 -->
      <g transform="translate(315.4775 334.998438)scale(0.1 -0.1)">
       <use xlink:href="#DejaVuSans-33"/>
       <use xlink:href="#DejaVuSans-36" x="63.623047"/>
      </g>
     </g>
    </g>
    <g id="xtick_8">
     <g id="line2d_8">
      <g>
       <use xlink:href="#mea54477b16" x="366.48" y="320.4" style="stroke: #000000; stroke-width: 0.8"/>
      </g>
     </g>
     <g id="text_8">
      <!-- 42 -->
      <g transform="translate(360.1175 334.998438)scale(0.1 -0.1)">
       <use xlink:href="#DejaVuSans-34"/>
       <use xlink:href="#DejaVuSans-32" x="63.623047"/>
      </g>
     </g>
    </g>
    <g id="text_9">
     <!-- time -->
     <g transform="translate(210.103906 348.676562)scale(0.1 -0.1)">
      <defs>
       <path id="DejaVuSans-74" d="M 1172 4494 
L 1172 3500 
L 2356 3500 
L 2356 3053 
L 1172 3053 
L 1172 1153 
Q 1172 725 1289 603 
Q 1406 481 1766 481 
L 2356 481 
L 2356 0 
L 1766 0 
Q 1100 0 847 248 
Q 594 497 594 1153 
L 594 3053 
L 172 3053 
L 172 3500 
L 594 3500 
L 594 4494 
L 1172 4494 
z
" transform="scale(0.015625)"/>
       <path id="DejaVuSans-69" d="M 603 3500 
L 1178 3500 
L 1178 0 
L 603 0 
L 603 3500 
z
M 603 4863 
L 1178 4863 
L 1178 4134 
L 603 4134 
L 603 4863 
z
" transform="scale(0.015625)"/>
       <path id="DejaVuSans-6d" d="M 3328 2828 
Q 3544 3216 3844 3400 
Q 4144 3584 4550 3584 
Q 5097 3584 5394 3201 
Q 5691 2819 5691 2113 
L 5691 0 
L 5113 0 
L 5113 2094 
Q 5113 2597 4934 2840 
Q 4756 3084 4391 3084 
Q 3944 3084 3684 2787 
Q 3425 2491 3425 1978 
L 3425 0 
L 2847 0 
L 2847 2094 
Q 2847 2600 2669 2842 
Q 2491 3084 2119 3084 
Q 1678 3084 1418 2786 
Q 1159 2488 1159 1978 
L 1159 0 
L 581 0 
L 581 3500 
L 1159 3500 
L 1159 2956 
Q 1356 3278 1631 3431 
Q 1906 3584 2284 3584 
Q 2666 3584 2933 3390 
Q 3200 3197 3328 2828 
z
" transform="scale(0.015625)"/>
       <path id="DejaVuSans-65" d="M 3597 1894 
L 3597 1613 
L 953 1613 
Q 991 1019 1311 708 
Q 1631 397 2203 397 
Q 2534 397 2845 478 
Q 3156 559 3463 722 
L 3463 178 
Q 3153 47 2828 -22 
Q 2503 -91 2169 -91 
Q 1331 -91 842 396 
Q 353 884 353 1716 
Q 353 2575 817 3079 
Q 1281 3584 2069 3584 
Q 2775 3584 3186 3129 
Q 3597 2675 3597 1894 
z
M 3022 2063 
Q 3016 2534 2758 2815 
Q 2500 3097 2075 3097 
Q 1594 3097 1305 2825 
Q 1016 2553 972 2059 
L 3022 2063 
z
" transform="scale(0.015625)"/>
      </defs>
      <use xlink:href="#DejaVuSans-74"/>
      <use xlink:href="#DejaVuSans-69" x="39.208984"/>
      <use xlink:href="#DejaVuSans-6d" x="66.992188"/>
      <use xlink:href="#DejaVuSans-65" x="164.404297"/>
     </g>
    </g>
   </g>
   <g id="matplotlib.axis_2">
    <g id="ytick_1">
     <g id="line2d_9">
      <defs>
       <path id="m3f0f6348a9" d="M 0 0 
L -3.5 0 
" style="stroke: #000000; stroke-width: 0.8"/>
      </defs>
      <g>
       <use xlink:href="#m3f0f6348a9" x="54" y="320.4" style="stroke: #000000; stroke-width: 0.8"/>
      </g>
     </g>
     <g id="text_10">
      <!-- 0.0 -->
      <g transform="translate(31.096875 324.199219)scale(0.1 -0.1)">
       <defs>
        <path id="DejaVuSans-2e" d="M 684 794 
L 1344 794 
L 1344 0 
L 684 0 
L 684 794 
z
" transform="scale(0.015625)"/>
       </defs>
       <use xlink:href="#DejaVuSans-30"/>
       <use xlink:href="#DejaVuSans-2e" x="63.623047"/>
       <use xlink:href="#DejaVuSans-30" x="95.410156"/>
      </g>
     </g>
    </g>
    <g id="ytick_2">
     <g id="line2d_10">
      <g>
       <use xlink:href="#m3f0f6348a9" x="54" y="285.75" style="stroke: #000000; stroke-width: 0.8"/>
      </g>
     </g>
     <g id="text_11">
      <!-- 2.5 -->
      <g transform="translate(31.096875 289.549219)scale(0.1 -0.1)">
       <defs>
        <path id="DejaVuSans-35" d="M 691 4666 
L 3169 4666 
L 3169 4134 
L 1269 4134 
L 1269 2991 
Q 1406 3038 1543 3061 
Q 1681 3084 1819 3084 
Q 2600 3084 3056 2656 
Q 3513 2228 3513 1497 
Q 3513 744 3044 326 
Q 2575 -91 1722 -91 
Q 1428 -91 1123 -41 
Q 819 9 494 109 
L 494 744 
Q 775 591 1075 516 
Q 1375 441 1709 441 
Q 2250 441 2565 725 
Q 2881 1009 2881 1497 
Q 2881 1984 2565 2268 
Q 2250 2553 1709 2553 
Q 1456 2553 1204 2497 
Q 953 2441 691 2322 
L 691 4666 
z
" transform="scale(0.015625)"/>
       </defs>
       <use xlink:href="#DejaVuSans-32"/>
       <use xlink:href="#DejaVuSans-2e" x="63.623047"/>
       <use xlink:href="#DejaVuSans-35" x="95.410156"/>
      </g>
     </g>
    </g>
    <g id="ytick_3">
     <g id="line2d_11">
      <g>
       <use xlink:href="#m3f0f6348a9" x="54" y="251.1" style="stroke: #000000; stroke-width: 0.8"/>
      </g>
     </g>
     <g id="text_12">
      <!-- 5.0 -->
      <g transform="translate(31.096875 254.899219)scale(0.1 -0.1)">
       <use xlink:href="#DejaVuSans-35"/>
       <use xlink:href="#DejaVuSans-2e" x="63.623047"/>
       <use xlink:href="#DejaVuSans-30" x="95.410156"/>
      </g>
     </g>
    </g>
    <g id="ytick_4">
     <g id="line2d_12">
      <g>
       <use xlink:href="#m3f0f6348a9" x="54" y="216.45" style="stroke: #000000; stroke-width: 0.8"/>
      </g>
     </g>
     <g id="text_13">
      <!-- 7.5 -->
      <g transform="translate(31.096875 220.249219)scale(0.1 -0.1)">
       <defs>
        <path id="DejaVuSans-37" d="M 525 4666 
L 3525 4666 
L 3525 4397 
L 1831 0 
L 1172 0 
L 2766 4134 
L 525 4134 
L 525 4666 
z
" transform="scale(0.015625)"/>
       </defs>
       <use xlink:href="#DejaVuSans-37"/>
       <use xlink:href="#DejaVuSans-2e" x="63.623047"/>
       <use xlink:href="#DejaVuSans-35" x="95.410156"/>
      </g>
     </g>
    </g>
    <g id="ytick_5">
     <g id="line2d_13">
      <g>
       <use xlink:href="#m3f0f6348a9" x="54" y="181.8" style="stroke: #000000; stroke-width: 0.8"/>
      </g>
     </g>
     <g id="text_14">
      <!-- 10.0 -->
      <g transform="translate(24.734375 185.599219)scale(0.1 -0.1)">
       <use xlink:href="#DejaVuSans-31"/>
       <use xlink:href="#DejaVuSans-30" x="63.623047"/>
       <use xlink:href="#DejaVuSans-2e" x="127.246094"/>
       <use xlink:href="#DejaVuSans-30" x="159.033203"/>
      </g>
     </g>
    </g>
    <g id="ytick_6">
     <g id="line2d_14">
      <g>
       <use xlink:href="#m3f0f6348a9" x="54" y="147.15" style="stroke: #000000; stroke-width: 0.8"/>
      </g>
     </g>
     <g id="text_15">
      <!-- 12.5 -->
      <g transform="translate(24.734375 150.949219)scale(0.1 -0.1)">
       <use xlink:href="#DejaVuSans-31"/>
       <use xlink:href="#DejaVuSans-32" x="63.623047"/>
       <use xlink:href="#DejaVuSans-2e" x="127.246094"/>
       <use xlink:href="#DejaVuSans-35" x="159.033203"/>
      </g>
     </g>
    </g>
    <g id="ytick_7">
     <g id="line2d_15">
      <g>
       <use xlink:href="#m3f0f6348a9" x="54" y="112.5" style="stroke: #000000; stroke-width: 0.8"/>
      </g>
     </g>
     <g id="text_16">
      <!-- 15.0 -->
      <g transform="translate(24.734375 116.299219)scale(0.1 -0.1)">
       <use xlink:href="#DejaVuSans-31"/>
       <use xlink:href="#DejaVuSans-35" x="63.623047"/>
       <use xlink:href="#DejaVuSans-2e" x="127.246094"/>
       <use xlink:href="#DejaVuSans-30" x="159.033203"/>
      </g>
     </g>
    </g>
    <g id="ytick_8">
     <g id="line2d_16">
      <g>
       <use xlink:href="#m3f0f6348a9" x="54" y="77.85" style="stroke: #000000; stroke-width: 0.8"/>
      </g>
     </g>
     <g id="text_17">
      <!-- 17.5 -->
      <g transform="translate(24.734375 81.649219)scale(0.1 -0.1)">
       <use xlink:href="#DejaVuSans-31"/>
       <use xlink:href="#DejaVuSans-37" x="63.623047"/>
       <use xlink:href="#DejaVuSans-2e" x="127.246094"/>
       <use xlink:href="#DejaVuSans-35" x="159.033203"/>
      </g>
     </g>
    </g>
    <g id="ytick_9">
     <g id="line2d_17">
      <g>
       <use xlink:href="#m3f0f6348a9" x="54" y="43.2" style="stroke: #000000; stroke-width: 0.8"/>
      </g>
     </g>
     <g id="text_18">
      <!-- 20.0 -->
      <g transform="translate(24.734375 46.999219)scale(0.1 -0.1)">
       <use xlink:href="#DejaVuSans-32"/>
       <use xlink:href="#DejaVuSans-30" x="63.623047"/>
       <use xlink:href="#DejaVuSans-2e" x="127.246094"/>
       <use xlink:href="#DejaVuSans-30" x="159.033203"/>
      </g>
     </g>
    </g>
    <g id="text_19">
     <!-- brightness -->
     <g transform="translate(18.654687 208.176562)rotate(-90)scale(0.1 -0.1)">
      <defs>
       <path id="DejaVuSans-62" d="M 3116 1747 
Q 3116 2381 2855 2742 
Q 2594 3103 2138 3103 
Q 1681 3103 1420 2742 
Q 1159 2381 1159 1747 
Q 1159 1113 1420 752 
Q 1681 391 2138 391 
Q 2594 391 2855 752 
Q 3116 1113 3116 1747 
z
M 1159 2969 
Q 1341 3281 1617 3432 
Q 1894 3584 2278 3584 
Q 2916 3584 3314 3078 
Q 3713 2572 3713 1747 
Q 3713 922 3314 415 
Q 2916 -91 2278 -91 
Q 1894 -91 1617 61 
Q 1341 213 1159 525 
L 1159 0 
L 581 0 
L 581 4863 
L 1159 4863 
L 1159 2969 
z
" transform="scale(0.015625)"/>
       <path id="DejaVuSans-72" d="M 2631 2963 
Q 2534 3019 2420 3045 
Q 2306 3072 2169 3072 
Q 1681 3072 1420 2755 
Q 1159 2438 1159 1844 
L 1159 0 
L 581 0 
L 581 3500 
L 1159 3500 
L 1159 2956 
Q 1341 3275 1631 3429 
Q 1922 3584 2338 3584 
Q 2397 3584 2469 3576 
Q 2541 3569 2628 3553 
L 2631 2963 
z
" transform="scale(0.015625)"/>
       <path id="DejaVuSans-67" d="M 2906 1791 
Q 2906 2416 2648 2759 
Q 2391 3103 1925 3103 
Q 1463 3103 1205 2759 
Q 947 2416 947 1791 
Q 947 1169 1205 825 
Q 1463 481 1925 481 
Q 2391 481 2648 825 
Q 2906 1169 2906 1791 
z
M 3481 434 
Q 3481 -459 3084 -895 
Q 2688 -1331 1869 -1331 
Q 1566 -1331 1297 -1286 
Q 1028 -1241 775 -1147 
L 775 -588 
Q 1028 -725 1275 -790 
Q 1522 -856 1778 -856 
Q 2344 -856 2625 -561 
Q 2906 -266 2906 331 
L 2906 616 
Q 2728 306 2450 153 
Q 2172 0 1784 0 
Q 1141 0 747 490 
Q 353 981 353 1791 
Q 353 2603 747 3093 
Q 1141 3584 1784 3584 
Q 2172 3584 2450 3431 
Q 2728 3278 2906 2969 
L 2906 3500 
L 3481 3500 
L 3481 434 
z
" transform="scale(0.015625)"/>
       <path id="DejaVuSans-68" d="M 3513 2113 
L 3513 0 
L 2938 0 
L 2938 2094 
Q 2938 2591 2744 2837 
Q 2550 3084 2163 3084 
Q 1697 3084 1428 2787 
Q 1159 2491 1159 1978 
L 1159 0 
L 581 0 
L 581 4863 
L 1159 4863 
L 1159 2956 
Q 1366 3272 1645 3428 
Q 1925 3584 2291 3584 
Q 2894 3584 3203 3211 
Q 3513 2838 3513 2113 
z
" transform="scale(0.015625)"/>
       <path id="DejaVuSans-6e" d="M 3513 2113 
L 3513 0 
L 2938 0 
L 2938 2094 
Q 2938 2591 2744 2837 
Q 2550 3084 2163 3084 
Q 1697 3084 1428 2787 
Q 1159 2491 1159 1978 
L 1159 0 
L 581 0 
L 581 3500 
L 1159 3500 
L 1159 2956 
Q 1366 3272 1645 3428 
Q 1925 3584 2291 3584 
Q 2894 3584 3203 3211 
Q 3513 2838 3513 2113 
z
" transform="scale(0.015625)"/>
       <path id="DejaVuSans-73" d="M 2834 3397 
L 2834 2853 
Q 2591 2978 2328 3040 
Q 2066 3103 1784 3103 
Q 1356 3103 1142 2972 
Q 928 2841 928 2578 
Q 928 2378 1081 2264 
Q 1234 2150 1697 2047 
L 1894 2003 
Q 2506 1872 2764 1633 
Q 3022 1394 3022 966 
Q 3022 478 2636 193 
Q 2250 -91 1575 -91 
Q 1294 -91 989 -36 
Q 684 19 347 128 
L 347 722 
Q 666 556 975 473 
Q 1284 391 1588 391 
Q 1994 391 2212 530 
Q 2431 669 2431 922 
Q 2431 1156 2273 1281 
Q 2116 1406 1581 1522 
L 1381 1569 
Q 847 1681 609 1914 
Q 372 2147 372 2553 
Q 372 3047 722 3315 
Q 1072 3584 1716 3584 
Q 2034 3584 2315 3537 
Q 2597 3491 2834 3397 
z
" transform="scale(0.015625)"/>
      </defs>
      <use xlink:href="#DejaVuSans-62"/>
      <use xlink:href="#DejaVuSans-72" x="63.476562"/>
      <use xlink:href="#DejaVuSans-69" x="104.589844"/>
      <use xlink:href="#DejaVuSans-67" x="132.373047"/>
      <use xlink:href="#DejaVuSans-68" x="195.849609"/>
      <use xlink:href="#DejaVuSans-74" x="259.228516"/>
      <use xlink:href="#DejaVuSans-6e" x="298.4375"/>
      <use xlink:href="#DejaVuSans-65" x="361.816406"/>
      <use xlink:href="#DejaVuSans-73" x="423.339844"/>
      <use xlink:href="#DejaVuSans-73" x="475.439453"/>
     </g>
    </g>
   </g>
   <g id="line2d_18">
    <path d="M 61.44 326.194316 
L 76.32 314.61686 
L 83.76 307.857866 
L 91.2 302.816852 
L 98.64 297.154118 
L 106.08 292.513262 
L 113.52 293.210156 
L 120.96 287.575802 
L 128.4 287.827856 
L 135.84 279.061274 
L 143.28 276.69161 
L 150.72 268.150748 
L 158.16 256.002392 
L 165.6 244.9796 
L 180.48 222.012458 
L 187.92 203.997956 
L 195.36 187.413278 
L 210.24 148.827104 
L 217.68 128.389148 
L 225.12 112.145426 
L 232.56 99.348554 
L 240 88.473668 
L 247.44 82.577228 
L 254.88 81.025436 
L 262.32 87.451988 
L 269.76 100.183718 
L 277.2 113.839844 
L 292.08 142.055702 
L 299.52 151.537196 
L 306.96 159.851018 
L 314.4 165.16118 
L 321.84 169.301624 
L 329.28 174.872024 
L 336.72 178.519448 
L 344.16 183.028502 
L 351.6 186.241844 
L 359.04 190.807724 
L 366.48 192.36209 
L 373.92 195.91157 
L 396.24 200.00291 
L 403.68 199.106234 
L 411.12 199.244174 
L 418.56 200.18045 
L 426 200.29925 
L 433 202.515111 
L 433 202.515111 
" clip-path="url(#pb0c55d391f)" style="fill: none; stroke: #ff0000; stroke-width: 1.5; stroke-linecap: square"/>
   </g>
   <g id="line2d_19">
    <path d="M 61.44 325.638684 
L 68.88 319.447752 
L 76.32 316.113564 
L 83.76 313.792146 
L 91.2 312.084594 
L 98.64 305.71731 
L 106.08 298.83087 
L 113.52 299.754276 
L 120.96 293.301654 
L 128.4 299.670522 
L 135.84 293.06544 
L 143.28 298.612938 
L 150.72 298.100976 
L 158.16 295.06854 
L 165.6 295.324686 
L 173.04 295.312146 
L 180.48 295.743192 
L 187.92 287.618724 
L 195.36 282.629058 
L 202.8 275.426214 
L 210.24 267.614982 
L 217.68 253.889754 
L 225.12 241.621806 
L 232.56 227.267994 
L 240 207.80004 
L 247.44 183.423204 
L 254.88 167.966202 
L 262.32 151.171446 
L 269.76 140.931546 
L 277.2 132.994254 
L 284.64 130.956636 
L 292.08 136.896966 
L 299.52 141.327018 
L 306.96 146.748192 
L 314.4 148.39212 
L 321.84 148.649454 
L 329.28 151.45749 
L 336.72 152.09406 
L 344.16 154.203486 
L 351.6 157.115802 
L 359.04 163.04445 
L 366.48 166.87575 
L 373.92 176.357706 
L 381.36 184.257774 
L 388.8 193.26057 
L 396.24 205.051206 
L 403.68 214.9419 
L 418.56 237.360252 
L 433 256.243052 
L 433 256.243052 
" clip-path="url(#pb0c55d391f)" style="fill: none; stroke: #0000ff; stroke-width: 1.5; stroke-linecap: square"/>
   </g>
   <g id="patch_3">
    <path d="M 54 320.4 
L 54 43.2 
" style="fill: none; stroke: #000000; stroke-width: 0.8; stroke-linejoin: miter; stroke-linecap: square"/>
   </g>
   <g id="patch_4">
    <path d="M 54 320.4 
L 388.8 320.4 
" style="fill: none; stroke: #000000; stroke-width: 0.8; stroke-linejoin: miter; stroke-linecap: square"/>
   </g>
   <g id="text_20">
    <!-- 20170110SpotsNoCellophane -->
    <g transform="translate(132.263438 37.2)scale(0.12 -0.12)">
     <defs>
      <path id="DejaVuSans-53" d="M 3425 4513 
L 3425 3897 
Q 3066 4069 2747 4153 
Q 2428 4238 2131 4238 
Q 1616 4238 1336 4038 
Q 1056 3838 1056 3469 
Q 1056 3159 1242 3001 
Q 1428 2844 1947 2747 
L 2328 2669 
Q 3034 2534 3370 2195 
Q 3706 1856 3706 1288 
Q 3706 609 3251 259 
Q 2797 -91 1919 -91 
Q 1588 -91 1214 -16 
Q 841 59 441 206 
L 441 856 
Q 825 641 1194 531 
Q 1563 422 1919 422 
Q 2459 422 2753 634 
Q 3047 847 3047 1241 
Q 3047 1584 2836 1778 
Q 2625 1972 2144 2069 
L 1759 2144 
Q 1053 2284 737 2584 
Q 422 2884 422 3419 
Q 422 4038 858 4394 
Q 1294 4750 2059 4750 
Q 2388 4750 2728 4690 
Q 3069 4631 3425 4513 
z
" transform="scale(0.015625)"/>
      <path id="DejaVuSans-70" d="M 1159 525 
L 1159 -1331 
L 581 -1331 
L 581 3500 
L 1159 3500 
L 1159 2969 
Q 1341 3281 1617 3432 
Q 1894 3584 2278 3584 
Q 2916 3584 3314 3078 
Q 3713 2572 3713 1747 
Q 3713 922 3314 415 
Q 2916 -91 2278 -91 
Q 1894 -91 1617 61 
Q 1341 213 1159 525 
z
M 3116 1747 
Q 3116 2381 2855 2742 
Q 2594 3103 2138 3103 
Q 1681 3103 1420 2742 
Q 1159 2381 1159 1747 
Q 1159 1113 1420 752 
Q 1681 391 2138 391 
Q 2594 391 2855 752 
Q 3116 1113 3116 1747 
z
" transform="scale(0.015625)"/>
      <path id="DejaVuSans-6f" d="M 1959 3097 
Q 1497 3097 1228 2736 
Q 959 2375 959 1747 
Q 959 1119 1226 758 
Q 1494 397 1959 397 
Q 2419 397 2687 759 
Q 2956 1122 2956 1747 
Q 2956 2369 2687 2733 
Q 2419 3097 1959 3097 
z
M 1959 3584 
Q 2709 3584 3137 3096 
Q 3566 2609 3566 1747 
Q 3566 888 3137 398 
Q 2709 -91 1959 -91 
Q 1206 -91 779 398 
Q 353 888 353 1747 
Q 353 2609 779 3096 
Q 1206 3584 1959 3584 
z
" transform="scale(0.015625)"/>
      <path id="DejaVuSans-4e" d="M 628 4666 
L 1478 4666 
L 3547 763 
L 3547 4666 
L 4159 4666 
L 4159 0 
L 3309 0 
L 1241 3903 
L 1241 0 
L 628 0 
L 628 4666 
z
" transform="scale(0.015625)"/>
      <path id="DejaVuSans-43" d="M 4122 4306 
L 4122 3641 
Q 3803 3938 3442 4084 
Q 3081 4231 2675 4231 
Q 1875 4231 1450 3742 
Q 1025 3253 1025 2328 
Q 1025 1406 1450 917 
Q 1875 428 2675 428 
Q 3081 428 3442 575 
Q 3803 722 4122 1019 
L 4122 359 
Q 3791 134 3420 21 
Q 3050 -91 2638 -91 
Q 1578 -91 968 557 
Q 359 1206 359 2328 
Q 359 3453 968 4101 
Q 1578 4750 2638 4750 
Q 3056 4750 3426 4639 
Q 3797 4528 4122 4306 
z
" transform="scale(0.015625)"/>
      <path id="DejaVuSans-6c" d="M 603 4863 
L 1178 4863 
L 1178 0 
L 603 0 
L 603 4863 
z
" transform="scale(0.015625)"/>
      <path id="DejaVuSans-61" d="M 2194 1759 
Q 1497 1759 1228 1600 
Q 959 1441 959 1056 
Q 959 750 1161 570 
Q 1363 391 1709 391 
Q 2188 391 2477 730 
Q 2766 1069 2766 1631 
L 2766 1759 
L 2194 1759 
z
M 3341 1997 
L 3341 0 
L 2766 0 
L 2766 531 
Q 2569 213 2275 61 
Q 1981 -91 1556 -91 
Q 1019 -91 701 211 
Q 384 513 384 1019 
Q 384 1609 779 1909 
Q 1175 2209 1959 2209 
L 2766 2209 
L 2766 2266 
Q 2766 2663 2505 2880 
Q 2244 3097 1772 3097 
Q 1472 3097 1187 3025 
Q 903 2953 641 2809 
L 641 3341 
Q 956 3463 1253 3523 
Q 1550 3584 1831 3584 
Q 2591 3584 2966 3190 
Q 3341 2797 3341 1997 
z
" transform="scale(0.015625)"/>
     </defs>
     <use xlink:href="#DejaVuSans-32"/>
     <use xlink:href="#DejaVuSans-30" x="63.623047"/>
     <use xlink:href="#DejaVuSans-31" x="127.246094"/>
     <use xlink:href="#DejaVuSans-37" x="190.869141"/>
     <use xlink:href="#DejaVuSans-30" x="254.492188"/>
     <use xlink:href="#DejaVuSans-31" x="318.115234"/>
     <use xlink:href="#DejaVuSans-31" x="381.738281"/>
     <use xlink:href="#DejaVuSans-30" x="445.361328"/>
     <use xlink:href="#DejaVuSans-53" x="508.984375"/>
     <use xlink:href="#DejaVuSans-70" x="572.460938"/>
     <use xlink:href="#DejaVuSans-6f" x="635.9375"/>
     <use xlink:href="#DejaVuSans-74" x="697.119141"/>
     <use xlink:href="#DejaVuSans-73" x="736.328125"/>
     <use xlink:href="#DejaVuSans-4e" x="788.427734"/>
     <use xlink:href="#DejaVuSans-6f" x="863.232422"/>
     <use xlink:href="#DejaVuSans-43" x="924.414062"/>
     <use xlink:href="#DejaVuSans-65" x="994.238281"/>
     <use xlink:href="#DejaVuSans-6c" x="1055.761719"/>
     <use xlink:href="#DejaVuSans-6c" x="1083.544922"/>
     <use xlink:href="#DejaVuSans-6f" x="1111.328125"/>
     <use xlink:href="#DejaVuSans-70" x="1172.509766"/>
     <use xlink:href="#DejaVuSans-68" x="1235.986328"/>
     <use xlink:href="#DejaVuSans-61" x="1299.365234"/>
     <use xlink:href="#DejaVuSans-6e" x="1360.644531"/>
     <use xlink:href="#DejaVuSans-65" x="1424.023438"/>
    </g>
   </g>
   <g id="legend_1">
    <g id="patch_5">
     <path d="M 283.0125 81.1125 
L 381.8 81.1125 
Q 383.8 81.1125 383.8 79.1125 
L 383.8 50.2 
Q 383.8 48.2 381.8 48.2 
L 283.0125 48.2 
Q 281.0125 48.2 281.0125 50.2 
L 281.0125 79.1125 
Q 281.0125 81.1125 283.0125 81.1125 
z
" style="fill: #ffffff; opacity: 0.3; stroke: #cccccc; stroke-linejoin: miter"/>
    </g>
    <g id="line2d_20">
     <path d="M 285.0125 56.298437 
L 295.0125 56.298437 
L 305.0125 56.298437 
" style="fill: none; stroke: #ff0000; stroke-width: 1.5; stroke-linecap: square"/>
    </g>
    <g id="text_21">
     <!-- spots_JA_21 -->
     <g transform="translate(313.0125 59.798437)scale(0.1 -0.1)">
      <defs>
       <path id="DejaVuSans-5f" d="M 3263 -1063 
L 3263 -1509 
L -63 -1509 
L -63 -1063 
L 3263 -1063 
z
" transform="scale(0.015625)"/>
       <path id="DejaVuSans-4a" d="M 628 4666 
L 1259 4666 
L 1259 325 
Q 1259 -519 939 -900 
Q 619 -1281 -91 -1281 
L -331 -1281 
L -331 -750 
L -134 -750 
Q 284 -750 456 -515 
Q 628 -281 628 325 
L 628 4666 
z
" transform="scale(0.015625)"/>
       <path id="DejaVuSans-41" d="M 2188 4044 
L 1331 1722 
L 3047 1722 
L 2188 4044 
z
M 1831 4666 
L 2547 4666 
L 4325 0 
L 3669 0 
L 3244 1197 
L 1141 1197 
L 716 0 
L 50 0 
L 1831 4666 
z
" transform="scale(0.015625)"/>
      </defs>
      <use xlink:href="#DejaVuSans-73"/>
      <use xlink:href="#DejaVuSans-70" x="52.099609"/>
      <use xlink:href="#DejaVuSans-6f" x="115.576172"/>
      <use xlink:href="#DejaVuSans-74" x="176.757812"/>
      <use xlink:href="#DejaVuSans-73" x="215.966797"/>
      <use xlink:href="#DejaVuSans-5f" x="268.066406"/>
      <use xlink:href="#DejaVuSans-4a" x="318.066406"/>
      <use xlink:href="#DejaVuSans-41" x="345.808594"/>
      <use xlink:href="#DejaVuSans-5f" x="414.216797"/>
      <use xlink:href="#DejaVuSans-32" x="464.216797"/>
      <use xlink:href="#DejaVuSans-31" x="527.839844"/>
     </g>
    </g>
    <g id="line2d_21">
     <path d="M 285.0125 71.254687 
L 295.0125 71.254687 
L 305.0125 71.254687 
" style="fill: none; stroke: #0000ff; stroke-width: 1.5; stroke-linecap: square"/>
    </g>
    <g id="text_22">
     <!-- spots_MM_21 -->
     <g transform="translate(313.0125 74.754687)scale(0.1 -0.1)">
      <defs>
       <path id="DejaVuSans-4d" d="M 628 4666 
L 1569 4666 
L 2759 1491 
L 3956 4666 
L 4897 4666 
L 4897 0 
L 4281 0 
L 4281 4097 
L 3078 897 
L 2444 897 
L 1241 4097 
L 1241 0 
L 628 0 
L 628 4666 
z
" transform="scale(0.015625)"/>
      </defs>
      <use xlink:href="#DejaVuSans-73"/>
      <use xlink:href="#DejaVuSans-70" x="52.099609"/>
      <use xlink:href="#DejaVuSans-6f" x="115.576172"/>
      <use xlink:href="#DejaVuSans-74" x="176.757812"/>
      <use xlink:href="#DejaVuSans-73" x="215.966797"/>
      <use xlink:href="#DejaVuSans-5f" x="268.066406"/>
      <use xlink:href="#DejaVuSans-4d" x="318.066406"/>
      <use xlink:href="#DejaVuSans-4d" x="404.345703"/>
      <use xlink:href="#DejaVuSans-5f" x="490.625"/>
      <use xlink:href="#DejaVuSans-32" x="540.625"/>
      <use xlink:href="#DejaVuSans-31" x="604.248047"/>
     </g>
    </g>
   </g>
  </g>
 </g>
 <defs>
  <clipPath id="pb0c55d391f">
   <rect x="54" y="43.2" width="334.8" height="277.2"/>
  </clipPath>
 </defs>
</svg>
