<?xml version="1.0" encoding="UTF-8" standalone="no"?>
<svg
   height="345.6pt"
   version="1.1"
   viewBox="0 0 460.8 345.6"
   width="460.8pt"
   id="svg1288"
   sodipodi:docname="figure_mod.svg"
   inkscape:version="1.1-alpha (17bc9184, 2021-03-28)"
   xmlns:inkscape="http://www.inkscape.org/namespaces/inkscape"
   xmlns:sodipodi="http://sodipodi.sourceforge.net/DTD/sodipodi-0.dtd"
   xmlns:xlink="http://www.w3.org/1999/xlink"
   xmlns="http://www.w3.org/2000/svg"
   xmlns:svg="http://www.w3.org/2000/svg"
   xmlns:rdf="http://www.w3.org/1999/02/22-rdf-syntax-ns#"
   xmlns:cc="http://creativecommons.org/ns#"
   xmlns:dc="http://purl.org/dc/elements/1.1/">
  <sodipodi:namedview
     id="namedview1290"
     pagecolor="#ffffff"
     bordercolor="#666666"
     borderopacity="1.0"
     objecttolerance="10.0"
     gridtolerance="10.0"
     guidetolerance="10.0"
     inkscape:pageshadow="2"
     inkscape:pageopacity="0.0"
     inkscape:pagecheckerboard="0"
     inkscape:document-units="pt"
     showgrid="false"
     inkscape:zoom="1.4800347"
     inkscape:cx="307.0874"
     inkscape:cy="230.4"
     inkscape:current-layer="svg1288" />
  <metadata
     id="metadata824">
    <rdf:RDF>
      <cc:Work>
        <dc:type
           rdf:resource="http://purl.org/dc/dcmitype/StillImage" />
        <dc:date>2021-05-24T21:21:54.156041</dc:date>
        <dc:format>image/svg+xml</dc:format>
        <dc:creator>
          <cc:Agent>
            <dc:title>Matplotlib v3.4.1, https://matplotlib.org/</dc:title>
          </cc:Agent>
        </dc:creator>
      </cc:Work>
    </rdf:RDF>
  </metadata>
  <defs
     id="defs828">
    <style
       type="text/css"
       id="style826">*{stroke-linecap:butt;stroke-linejoin:round;}</style>
  </defs>
  <path
     d="M 0,345.6 H 460.8 V 0 H 0 Z"
     style="fill:#ffffff"
     id="path830" />
  <g
     id="patch_2">
    <path
       d="M 47.72,303.64 H 450 V 37.52448 H 47.72 Z"
       style="fill:#ffffff"
       id="path833" />
  </g>
  <g
     id="PolyCollection_1">
    <path
       clip-path="url(#p40cf32eb34)"
       d="m 66.005455,290.98333 v -1.972 l 3.323764,-1.70702 3.41873,0.48346 3.418729,-0.0641 3.41873,-0.31448 3.418729,0.74693 3.41873,1.37804 3.418729,-0.61583 3.41873,-1.51238 3.418729,0.0267 3.418735,0.74739 3.41872,0.98271 3.41873,-1.53469 3.41873,1.71202 3.41873,-2.21551 3.41873,0.65181 3.41873,-0.60395 3.41873,1.71373 3.41873,-1.55192 3.41873,0.15634 3.41873,0.58543 3.41873,-0.72979 3.41873,-1.248 3.41873,1.85208 3.41873,-2.40886 3.41873,1.88258 3.41873,-0.83439 3.41873,-1.19265 3.41873,1.08081 3.41872,-0.68139 3.41873,-1.81913 3.41873,0.82356 3.41873,-0.0337 3.41873,-1.03659 3.41873,-0.75793 3.41873,0.26068 3.41873,-2.16735 3.41873,-0.56534 3.41873,-2.06873 3.41873,-1.52622 3.41873,-1.16456 3.41873,-5.46242 3.41873,-1.25885 3.41873,-6.3726 3.41873,-5.84479 3.41873,-6.35567 3.41873,-5.1132 3.41873,-7.44812 3.41872,-7.92147 3.41873,-7.61043 3.41873,-7.49443 3.41873,-7.322 3.41873,-8.78837 3.41873,-7.92893 3.41873,-10.05852 3.41873,-8.381 3.41873,-8.65329 3.41873,-8.55562 3.41873,-7.48924 3.41873,-9.22263 3.41873,-8.62591 3.41873,-8.93006 3.41873,-7.81151 3.41873,-9.00765 3.41873,-7.536011 3.41873,-7.876191 3.41873,-7.942926 3.41873,-7.347631 3.41872,-5.278068 3.41873,-4.969856 3.41873,-5.487025 3.41873,-3.238158 3.41873,-2.573493 3.41873,-0.679581 3.41873,-1.007599 3.41873,-0.527151 3.41873,0.0535 3.41873,1.66495 3.41873,0.06164 3.41873,3.3625 3.41873,2.079671 3.41873,3.198346 3.41873,3.814606 3.41873,4.649035 3.41873,3.442654 3.41873,4.949722 3.41873,4.58761 3.41873,4.84816 3.41873,4.986327 3.41872,3.596638 3.41873,2.70123 3.41873,5.605651 3.41873,5.33896 3.41873,2.69556 3.41873,3.40399 3.41873,3.49478 3.41873,3.7263 3.41873,2.7218 3.41873,2.9749 3.41873,1.77483 3.41873,2.0338 3.41873,1.58615 3.41873,3.11421 3.41873,0.76241 3.41873,1.4679 3.41873,0.38975 3.41873,0.31886 3.41872,0.20454 v 4.38868 0 l -3.41872,-0.0504 -3.41873,-0.46096 -3.41873,-1.30308 -3.41873,-0.74225 -3.41873,-1.20049 -3.41873,-3.19948 -3.41873,-1.98268 -3.41873,-2.04787 -3.41873,-1.90551 -3.41873,-3.18847 -3.41873,-3.53944 -3.41873,-4.23822 -3.41873,-3.56643 -3.41873,-3.44146 -3.41873,-2.77736 -3.41873,-4.58165 -3.41873,-4.60703 -3.41873,-3.296166 -3.41872,-2.891733 -3.41873,-4.974177 -3.41873,-4.43711 -3.41873,-4.625624 -3.41873,-5.301433 -3.41873,-3.720595 -3.41873,-5.004811 -3.41873,-4.043055 -3.41873,-3.842609 -3.41873,-1.952695 -3.41873,-3.433379 -3.41873,-1.227068 -3.41873,-1.684828 -3.41873,-0.437831 -3.41873,1.580095 -3.41873,2.51181 -3.41873,1.557764 -3.41873,3.747922 -3.41873,4.34207 -3.41873,5.618268 -3.41873,5.370857 -3.41872,5.405334 -3.41873,8.140836 -3.41873,7.989174 -3.41873,8.666394 -3.41873,7.79904 -3.41873,9.45368 -3.41873,7.58615 -3.41873,9.21427 -3.41873,8.55916 -3.41873,8.55359 -3.41873,7.78081 -3.41873,8.67248 -3.41873,8.2246 -3.41873,8.18329 -3.41873,9.35784 -3.41873,8.08128 -3.41873,8.26454 -3.41873,6.98129 -3.41873,6.85849 -3.41873,7.09876 -3.41872,7.62815 -3.41873,7.78853 -3.41873,4.39069 -3.41873,5.64654 -3.41873,6.44289 -3.41873,5.0083 -3.41873,1.28684 -3.41873,4.32115 -3.41873,1.20274 -3.41873,1.05827 -3.41873,1.82372 -3.41873,-0.0267 -3.41873,2.44956 -3.41873,-0.85787 -3.41873,0.25428 -3.41873,1.5273 -3.41873,1.84615 -3.41873,-2.7986 -3.41873,2.60887 -3.41872,0.73806 -3.41873,-1.70364 -3.41873,2.08302 -3.41873,0.16247 -3.41873,-1.10677 -3.41873,2.27023 -3.41873,-1.98916 -3.41873,1.11008 -3.41873,0.91593 -3.41873,-0.88245 -3.41873,-0.38268 -3.41873,1.35497 -3.41873,-1.62199 -3.41873,0.58758 -3.41873,-1.20404 -3.41873,2.27656 -3.41873,-1.06196 -3.41873,1.10588 -3.41872,-1.35055 -3.418735,-0.005 -3.418729,-0.41493 -3.41873,1.22159 -3.418729,0.58849 -3.41873,-1.02842 -3.418729,0.20221 -3.41873,-0.3937 -3.418729,-0.0607 -3.41873,0.0114 z"
       style="fill:#1f77b4;fill-opacity:0.3"
       id="path836" />
  </g>
  <g
     id="PolyCollection_2">
    <path
       clip-path="url(#p40cf32eb34)"
       d="m 66.005455,289.05211 v -0.48895 l 3.323764,-0.33968 3.41873,0.56421 3.418729,0.13284 3.41873,0.0486 3.418729,0.0408 3.41873,1.63766 3.418729,-0.0729 3.41873,-1.74144 3.418729,0.0286 3.418735,0.91877 3.41872,1.22188 3.41873,-0.8652 3.41873,1.03566 3.41873,-1.89793 3.41873,0.82375 3.41873,-0.23135 3.41873,1.07284 3.41873,-1.47416 3.41873,-0.32886 3.41873,0.45222 3.41873,-1.02994 3.41873,-0.97957 3.41873,2.05955 3.41873,-3.06166 3.41873,1.03294 3.41873,-1.25058 3.41873,-1.51457 3.41873,1.39471 3.41872,-0.11918 3.41873,-2.68379 3.41873,1.60094 3.41873,-0.64997 3.41873,-1.85855 3.41873,0.23865 3.41873,0.93815 3.41873,-2.88145 3.41873,-0.50092 3.41873,-0.48851 3.41873,-2.18004 3.41873,-0.63745 3.41873,-5.57557 3.41873,-1.62347 3.41873,-6.06343 3.41873,-5.72061 3.41873,-6.76617 3.41873,-6.19519 3.41873,-8.48466 3.41872,-9.00791 3.41873,-7.99336 3.41873,-8.42233 3.41873,-8.28193 3.41873,-9.44551 3.41873,-8.39919 3.41873,-9.42751 3.41873,-8.42595 3.41873,-8.67945 3.41873,-9.90742 3.41873,-7.85329 3.41873,-8.79566 3.41873,-8.69522 3.41873,-8.99762 3.41873,-7.3871 3.41873,-8.966524 3.41873,-6.195204 3.41873,-7.188348 3.41873,-6.944792 3.41873,-6.6908 3.41872,-3.225313 3.41873,-3.782638 3.41873,-3.058928 3.41873,-2.844621 3.41873,-1.703972 3.41873,0.0051 3.41873,-1.355652 3.41873,-0.841316 3.41873,-0.689461 3.41873,1.338531 3.41873,-1.051369 3.41873,0.179285 3.41873,-1.709772 3.41873,-0.416523 3.41873,-1.012376 3.41873,0.133635 3.41873,-0.989766 3.41873,0.389271 3.41873,0.417473 3.41873,0.483424 3.41873,1.680478 3.41872,0.611674 3.41873,2.189069 3.41873,3.834196 3.41873,4.394963 3.41873,3.11152 3.41873,4.262825 3.41873,4.809943 3.41873,5.485422 3.41873,4.535488 3.41873,5.527516 3.41873,4.987419 3.41873,5.045923 3.41873,4.87196 3.41873,5.96044 3.41873,3.78714 3.41873,4.81021 3.41873,4.19252 3.41873,4.35613 3.41872,3.69783 v 4.6557 0 l -3.41872,-3.71866 -3.41873,-4.51604 -3.41873,-4.21204 -3.41873,-4.14618 -3.41873,-4.30415 -3.41873,-5.78818 -3.41873,-4.50506 -3.41873,-4.45246 -3.41873,-3.390762 -3.41873,-4.531776 -3.41873,-3.511543 -3.41873,-4.671206 -3.41873,-3.843929 -3.41873,-3.373401 -3.41873,-1.847546 -3.41873,-3.888729 -3.41873,-3.272502 -3.41873,-1.0144 -3.41872,-0.950109 -3.41873,-1.756521 -3.41873,-1.682776 -3.41873,-1.003062 -3.41873,-2.411455 -3.41873,-0.328798 -3.41873,-2.069666 -3.41873,-0.894585 -3.41873,-1.342235 -3.41873,0.293802 -3.41873,-0.01213 -3.41873,1.40914 -3.41873,1.181073 -3.41873,2.302488 -3.41873,2.352679 -3.41873,3.212425 -3.41873,2.434858 -3.41873,3.829646 -3.41873,3.168056 -3.41873,5.035162 -3.41873,3.913622 -3.41872,4.235657 -3.41873,5.778161 -3.41873,5.925502 -3.41873,5.92842 -3.41873,5.44291 -3.41873,6.85243 -3.41873,6.23045 -3.41873,7.16853 -3.41873,7.17782 -3.41873,7.51906 -3.41873,7.1342 -3.41873,7.92139 -3.41873,8.46459 -3.41873,7.98953 -3.41873,9.68152 -3.41873,8.06034 -3.41873,8.6282 -3.41873,7.19553 -3.41873,9.53544 -3.41873,8.16205 -3.41872,8.09115 -3.41873,7.50597 -3.41873,5.80898 -3.41873,6.16304 -3.41873,6.49486 -3.41873,5.8602 -3.41873,2.44589 -3.41873,4.74841 -3.41873,1.22697 -3.41873,1.40027 -3.41873,1.35618 -3.41873,0.28279 -3.41873,1.76495 -3.41873,-0.18754 -3.41873,0.94273 -3.41873,0.40952 -3.41873,1.37316 -3.41873,-1.4759 -3.41873,1.78645 -3.41872,0.90524 -3.41873,-1.14495 -3.41873,1.52066 -3.41873,0.74373 -3.41873,-0.72443 -3.41873,1.99951 -3.41873,-1.74527 -3.41873,1.48154 -3.41873,0.60932 -3.41873,0.0246 -3.41873,0.0806 -3.41873,0.84709 -3.41873,-1.22587 -3.41873,0.49295 -3.41873,-0.68179 -3.41873,1.66563 -3.41873,-0.87931 -3.41873,0.89433 -3.41872,-1.01501 -3.418735,-0.39829 -3.418729,-0.51704 -3.41873,1.18651 -3.418729,-0.12422 -3.41873,-0.91669 -3.418729,-0.21342 -3.41873,-0.51016 -3.418729,0.0259 -3.41873,-0.59823 z"
       style="fill:#ff7f0e;fill-opacity:0.3"
       id="path839" />
  </g>
  <g
     id="matplotlib.axis_1">
    <g
       id="xtick_1">
      <g
         id="line2d_1">
        <defs
           id="defs843">
          <path
             d="M 0,0 V 3.5"
             id="m0a8b0d3aba"
             style="stroke:#000000;stroke-width:0.8" />
        </defs>
        <g
           id="g847">
          <use
             style="stroke:#000000;stroke-width:0.8"
             x="66.005455"
             xlink:href="#m0a8b0d3aba"
             y="303.64001"
             id="use845"
             width="100%"
             height="100%" />
        </g>
      </g>
      <g
         id="text_1">
        <!-- 0 -->
        <g
           transform="matrix(0.1,0,0,-0.1,62.824205,318.23844)"
           id="g855">
          <defs
             id="defs851">
            <path
               d="m 2034,4250 q -487,0 -733,-480 -245,-479 -245,-1442 0,-959 245,-1439 246,-480 733,-480 491,0 736,480 246,480 246,1439 0,963 -246,1442 -245,480 -736,480 z m 0,500 q 785,0 1199,-621 414,-620 414,-1801 0,-1178 -414,-1799 -414,-620 -1199,-620 -784,0 -1198,620 -414,621 -414,1799 0,1181 414,1801 414,621 1198,621 z"
               id="DejaVuSans-30"
               transform="scale(0.015625)" />
          </defs>
          <use
             xlink:href="#DejaVuSans-30"
             id="use853"
             x="0"
             y="0"
             width="100%"
             height="100%" />
        </g>
      </g>
    </g>
    <g
       id="xtick_2">
      <g
         id="line2d_2">
        <g
           id="g861">
          <use
             style="stroke:#000000;stroke-width:0.8"
             x="107.0302"
             xlink:href="#m0a8b0d3aba"
             y="303.64001"
             id="use859"
             width="100%"
             height="100%" />
        </g>
      </g>
      <g
         id="text_2">
        <!-- 6 -->
        <g
           transform="matrix(0.1,0,0,-0.1,103.84896,318.23844)"
           id="g869">
          <defs
             id="defs865">
            <path
               d="m 2113,2584 q -425,0 -674,-291 -248,-290 -248,-796 0,-503 248,-796 249,-292 674,-292 425,0 673,292 248,293 248,796 0,506 -248,796 -248,291 -673,291 z m 1253,1979 v -575 q -238,112 -480,171 -242,60 -480,60 -625,0 -955,-422 -329,-422 -376,-1275 184,272 462,417 279,145 613,145 703,0 1111,-427 408,-426 408,-1160 0,-719 -425,-1154 -425,-434 -1131,-434 -810,0 -1238,620 -428,621 -428,1799 0,1106 525,1764 525,658 1409,658 238,0 480,-47 242,-47 505,-140 z"
               id="DejaVuSans-36"
               transform="scale(0.015625)" />
          </defs>
          <use
             xlink:href="#DejaVuSans-36"
             id="use867"
             x="0"
             y="0"
             width="100%"
             height="100%" />
        </g>
      </g>
    </g>
    <g
       id="xtick_3">
      <g
         id="line2d_3">
        <g
           id="g875">
          <use
             style="stroke:#000000;stroke-width:0.8"
             x="148.05496"
             xlink:href="#m0a8b0d3aba"
             y="303.64001"
             id="use873"
             width="100%"
             height="100%" />
        </g>
      </g>
      <g
         id="text_3">
        <!-- 12 -->
        <g
           transform="matrix(0.1,0,0,-0.1,141.69246,318.23844)"
           id="g886">
          <defs
             id="defs880">
            <path
               d="M 794,531 H 1825 V 4091 L 703,3866 v 575 l 1116,225 h 631 V 531 H 3481 V 0 H 794 Z"
               id="DejaVuSans-31"
               transform="scale(0.015625)" />
            <path
               d="M 1228,531 H 3431 V 0 H 469 v 531 q 359,372 979,998 621,627 780,809 303,340 423,576 121,236 121,464 0,372 -261,606 -261,235 -680,235 -297,0 -627,-103 -329,-103 -704,-313 v 638 q 381,153 712,231 332,78 607,78 725,0 1156,-363 431,-362 431,-968 0,-288 -108,-546 -107,-257 -392,-607 -78,-91 -497,-524 Q 1991,1309 1228,531 Z"
               id="DejaVuSans-32"
               transform="scale(0.015625)" />
          </defs>
          <use
             xlink:href="#DejaVuSans-31"
             id="use882"
             x="0"
             y="0"
             width="100%"
             height="100%" />
          <use
             x="63.623047"
             xlink:href="#DejaVuSans-32"
             id="use884"
             y="0"
             width="100%"
             height="100%" />
        </g>
      </g>
    </g>
    <g
       id="xtick_4">
      <g
         id="line2d_4">
        <g
           id="g892">
          <use
             style="stroke:#000000;stroke-width:0.8"
             x="189.07971"
             xlink:href="#m0a8b0d3aba"
             y="303.64001"
             id="use890"
             width="100%"
             height="100%" />
        </g>
      </g>
      <g
         id="text_4">
        <!-- 18 -->
        <g
           transform="matrix(0.1,0,0,-0.1,182.71722,318.23844)"
           id="g902">
          <defs
             id="defs896">
            <path
               d="m 2034,2216 q -450,0 -708,-241 -257,-241 -257,-662 0,-422 257,-663 258,-241 708,-241 450,0 709,242 260,243 260,662 0,421 -258,662 -257,241 -711,241 z m -631,268 q -406,100 -633,378 -226,279 -226,679 0,559 398,884 399,325 1092,325 697,0 1094,-325 397,-325 397,-884 0,-400 -227,-679 -226,-278 -629,-378 456,-106 710,-416 255,-309 255,-755 Q 3634,634 3220,271 2806,-91 2034,-91 1263,-91 848,271 434,634 434,1313 q 0,446 256,755 257,310 713,416 z m -231,997 q 0,-362 226,-565 227,-203 636,-203 407,0 636,203 230,203 230,565 0,363 -230,566 -229,203 -636,203 -409,0 -636,-203 -226,-203 -226,-566 z"
               id="DejaVuSans-38"
               transform="scale(0.015625)" />
          </defs>
          <use
             xlink:href="#DejaVuSans-31"
             id="use898"
             x="0"
             y="0"
             width="100%"
             height="100%" />
          <use
             x="63.623047"
             xlink:href="#DejaVuSans-38"
             id="use900"
             y="0"
             width="100%"
             height="100%" />
        </g>
      </g>
    </g>
    <g
       id="xtick_5">
      <g
         id="line2d_5">
        <g
           id="g908">
          <use
             style="stroke:#000000;stroke-width:0.8"
             x="230.10448"
             xlink:href="#m0a8b0d3aba"
             y="303.64001"
             id="use906"
             width="100%"
             height="100%" />
        </g>
      </g>
      <g
         id="text_5">
        <!-- 24 -->
        <g
           transform="matrix(0.1,0,0,-0.1,223.74197,318.23844)"
           id="g918">
          <defs
             id="defs912">
            <path
               d="M 2419,4116 825,1625 h 1594 z m -166,550 h 794 V 1625 h 666 V 1100 H 3047 V 0 H 2419 V 1100 H 313 v 609 z"
               id="DejaVuSans-34"
               transform="scale(0.015625)" />
          </defs>
          <use
             xlink:href="#DejaVuSans-32"
             id="use914"
             x="0"
             y="0"
             width="100%"
             height="100%" />
          <use
             x="63.623047"
             xlink:href="#DejaVuSans-34"
             id="use916"
             y="0"
             width="100%"
             height="100%" />
        </g>
      </g>
    </g>
    <g
       id="xtick_6">
      <g
         id="line2d_6">
        <g
           id="g924">
          <use
             style="stroke:#000000;stroke-width:0.8"
             x="271.12921"
             xlink:href="#m0a8b0d3aba"
             y="303.64001"
             id="use922"
             width="100%"
             height="100%" />
        </g>
      </g>
      <g
         id="text_6">
        <!-- 30 -->
        <g
           transform="matrix(0.1,0,0,-0.1,264.76672,318.23844)"
           id="g934">
          <defs
             id="defs928">
            <path
               d="m 2597,2516 q 453,-97 707,-404 255,-306 255,-756 0,-690 -475,-1069 -475,-378 -1350,-378 -293,0 -604,58 -311,58 -642,174 v 609 q 262,-153 574,-231 313,-78 654,-78 593,0 904,234 311,234 311,681 0,413 -289,645 -289,233 -804,233 h -544 v 519 h 569 q 465,0 712,186 247,186 247,536 0,359 -255,551 -254,193 -729,193 -260,0 -557,-57 -297,-56 -653,-174 v 562 q 360,100 674,150 314,50 592,50 719,0 1137,-327 419,-326 419,-882 0,-388 -222,-655 -222,-267 -631,-370 z"
               id="DejaVuSans-33"
               transform="scale(0.015625)" />
          </defs>
          <use
             xlink:href="#DejaVuSans-33"
             id="use930"
             x="0"
             y="0"
             width="100%"
             height="100%" />
          <use
             x="63.623047"
             xlink:href="#DejaVuSans-30"
             id="use932"
             y="0"
             width="100%"
             height="100%" />
        </g>
      </g>
    </g>
    <g
       id="xtick_7">
      <g
         id="line2d_7">
        <g
           id="g940">
          <use
             style="stroke:#000000;stroke-width:0.8"
             x="312.15399"
             xlink:href="#m0a8b0d3aba"
             y="303.64001"
             id="use938"
             width="100%"
             height="100%" />
        </g>
      </g>
      <g
         id="text_7">
        <!-- 36 -->
        <g
           transform="matrix(0.1,0,0,-0.1,305.79148,318.23844)"
           id="g947">
          <use
             xlink:href="#DejaVuSans-33"
             id="use943"
             x="0"
             y="0"
             width="100%"
             height="100%" />
          <use
             x="63.623047"
             xlink:href="#DejaVuSans-36"
             id="use945"
             y="0"
             width="100%"
             height="100%" />
        </g>
      </g>
    </g>
    <g
       id="xtick_8">
      <g
         id="line2d_8">
        <g
           id="g953">
          <use
             style="stroke:#000000;stroke-width:0.8"
             x="353.17874"
             xlink:href="#m0a8b0d3aba"
             y="303.64001"
             id="use951"
             width="100%"
             height="100%" />
        </g>
      </g>
      <g
         id="text_8">
        <!-- 42 -->
        <g
           transform="matrix(0.1,0,0,-0.1,346.81623,318.23844)"
           id="g960">
          <use
             xlink:href="#DejaVuSans-34"
             id="use956"
             x="0"
             y="0"
             width="100%"
             height="100%" />
          <use
             x="63.623047"
             xlink:href="#DejaVuSans-32"
             id="use958"
             y="0"
             width="100%"
             height="100%" />
        </g>
      </g>
    </g>
    <g
       id="xtick_9">
      <g
         id="line2d_9">
        <g
           id="g966">
          <use
             style="stroke:#000000;stroke-width:0.8"
             x="394.20349"
             xlink:href="#m0a8b0d3aba"
             y="303.64001"
             id="use964"
             width="100%"
             height="100%" />
        </g>
      </g>
      <g
         id="text_9">
        <!-- 48 -->
        <g
           transform="matrix(0.1,0,0,-0.1,387.84099,318.23844)"
           id="g973">
          <use
             xlink:href="#DejaVuSans-34"
             id="use969"
             x="0"
             y="0"
             width="100%"
             height="100%" />
          <use
             x="63.623047"
             xlink:href="#DejaVuSans-38"
             id="use971"
             y="0"
             width="100%"
             height="100%" />
        </g>
      </g>
    </g>
    <g
       id="text_10">
      <!-- time (h) -->
      <g
         transform="matrix(0.1,0,0,-0.1,228.90453,331.91656)"
         id="g1003">
        <defs
           id="defs985">
          <path
             d="M 1172,4494 V 3500 H 2356 V 3053 H 1172 V 1153 q 0,-428 117,-550 117,-122 477,-122 h 590 V 0 H 1766 Q 1100,0 847,248 594,497 594,1153 V 3053 H 172 v 447 h 422 v 994 z"
             id="DejaVuSans-74"
             transform="scale(0.015625)" />
          <path
             d="m 603,3500 h 575 V 0 H 603 Z m 0,1363 h 575 V 4134 H 603 Z"
             id="DejaVuSans-69"
             transform="scale(0.015625)" />
          <path
             d="m 3328,2828 q 216,388 516,572 300,184 706,184 547,0 844,-383 297,-382 297,-1088 V 0 h -578 v 2094 q 0,503 -179,746 -178,244 -543,244 -447,0 -707,-297 -259,-296 -259,-809 V 0 h -578 v 2094 q 0,506 -178,748 -178,242 -550,242 -441,0 -701,-298 -259,-298 -259,-808 V 0 H 581 v 3500 h 578 v -544 q 197,322 472,475 275,153 653,153 382,0 649,-194 267,-193 395,-562 z"
             id="DejaVuSans-6d"
             transform="scale(0.015625)" />
          <path
             d="M 3597,1894 V 1613 H 953 q 38,-594 358,-905 320,-311 892,-311 331,0 642,81 311,81 618,244 V 178 Q 3153,47 2828,-22 2503,-91 2169,-91 1331,-91 842,396 353,884 353,1716 q 0,859 464,1363 464,505 1252,505 706,0 1117,-455 411,-454 411,-1235 z m -575,169 q -6,471 -264,752 -258,282 -683,282 -481,0 -770,-272 -289,-272 -333,-766 z"
             id="DejaVuSans-65"
             transform="scale(0.015625)" />
          <path
             id="DejaVuSans-20"
             transform="scale(0.015625)"
             d="" />
          <path
             d="m 1984,4856 q -418,-718 -622,-1422 -203,-703 -203,-1425 0,-721 205,-1429 205,-708 620,-1424 h -500 q -468,735 -701,1444 -233,709 -233,1409 0,697 231,1403 232,707 703,1444 z"
             id="DejaVuSans-28"
             transform="scale(0.015625)" />
          <path
             d="M 3513,2113 V 0 h -575 v 2094 q 0,497 -194,743 -194,247 -581,247 -466,0 -735,-297 -269,-296 -269,-809 V 0 H 581 v 4863 h 578 V 2956 q 207,316 486,472 280,156 646,156 603,0 912,-373 310,-373 310,-1098 z"
             id="DejaVuSans-68"
             transform="scale(0.015625)" />
          <path
             d="m 513,4856 h 500 q 468,-737 701,-1444 233,-706 233,-1403 0,-700 -233,-1409 -233,-709 -701,-1444 H 513 q 415,716 620,1424 205,708 205,1429 0,722 -205,1425 -205,704 -620,1422 z"
             id="DejaVuSans-29"
             transform="scale(0.015625)" />
        </defs>
        <use
           xlink:href="#DejaVuSans-74"
           id="use987"
           x="0"
           y="0"
           width="100%"
           height="100%" />
        <use
           x="39.208984"
           xlink:href="#DejaVuSans-69"
           id="use989"
           y="0"
           width="100%"
           height="100%" />
        <use
           x="66.992188"
           xlink:href="#DejaVuSans-6d"
           id="use991"
           y="0"
           width="100%"
           height="100%" />
        <use
           x="164.4043"
           xlink:href="#DejaVuSans-65"
           id="use993"
           y="0"
           width="100%"
           height="100%" />
        <use
           x="225.92773"
           xlink:href="#DejaVuSans-20"
           id="use995"
           y="0"
           width="100%"
           height="100%" />
        <use
           x="257.71484"
           xlink:href="#DejaVuSans-28"
           id="use997"
           y="0"
           width="100%"
           height="100%" />
        <use
           x="296.72852"
           xlink:href="#DejaVuSans-68"
           id="use999"
           y="0"
           width="100%"
           height="100%" />
        <use
           x="360.10742"
           xlink:href="#DejaVuSans-29"
           id="use1001"
           y="0"
           width="100%"
           height="100%" />
      </g>
    </g>
  </g>
  <g
     id="matplotlib.axis_2">
    <g
       id="ytick_1">
      <g
         id="line2d_10">
        <defs
           id="defs1008">
          <path
             d="M 0,0 H -3.5"
             id="m5dabc353bb"
             style="stroke:#000000;stroke-width:0.8" />
        </defs>
        <g
           id="g1012">
          <use
             style="stroke:#000000;stroke-width:0.8"
             x="47.720001"
             xlink:href="#m5dabc353bb"
             y="288.69186"
             id="use1010"
             width="100%"
             height="100%" />
        </g>
      </g>
      <g
         id="text_11">
        <!-- 0.0 -->
        <g
           transform="matrix(0.1,0,0,-0.1,24.816875,292.49108)"
           id="g1024">
          <defs
             id="defs1016">
            <path
               d="m 684,794 h 660 V 0 H 684 Z"
               id="DejaVuSans-2e"
               transform="scale(0.015625)" />
          </defs>
          <use
             xlink:href="#DejaVuSans-30"
             id="use1018"
             x="0"
             y="0"
             width="100%"
             height="100%" />
          <use
             x="63.623047"
             xlink:href="#DejaVuSans-2e"
             id="use1020"
             y="0"
             width="100%"
             height="100%" />
          <use
             x="95.410156"
             xlink:href="#DejaVuSans-30"
             id="use1022"
             y="0"
             width="100%"
             height="100%" />
        </g>
      </g>
    </g>
    <g
       id="ytick_2">
      <g
         id="line2d_11">
        <g
           id="g1030">
          <use
             style="stroke:#000000;stroke-width:0.8"
             x="47.720001"
             xlink:href="#m5dabc353bb"
             y="240.87505"
             id="use1028"
             width="100%"
             height="100%" />
        </g>
      </g>
      <g
         id="text_12">
        <!-- 0.2 -->
        <g
           transform="matrix(0.1,0,0,-0.1,24.816875,244.67426)"
           id="g1039">
          <use
             xlink:href="#DejaVuSans-30"
             id="use1033"
             x="0"
             y="0"
             width="100%"
             height="100%" />
          <use
             x="63.623047"
             xlink:href="#DejaVuSans-2e"
             id="use1035"
             y="0"
             width="100%"
             height="100%" />
          <use
             x="95.410156"
             xlink:href="#DejaVuSans-32"
             id="use1037"
             y="0"
             width="100%"
             height="100%" />
        </g>
      </g>
    </g>
    <g
       id="ytick_3">
      <g
         id="line2d_12">
        <g
           id="g1045">
          <use
             style="stroke:#000000;stroke-width:0.8"
             x="47.720001"
             xlink:href="#m5dabc353bb"
             y="193.05823"
             id="use1043"
             width="100%"
             height="100%" />
        </g>
      </g>
      <g
         id="text_13">
        <!-- 0.4 -->
        <g
           transform="matrix(0.1,0,0,-0.1,24.816875,196.85745)"
           id="g1054">
          <use
             xlink:href="#DejaVuSans-30"
             id="use1048"
             x="0"
             y="0"
             width="100%"
             height="100%" />
          <use
             x="63.623047"
             xlink:href="#DejaVuSans-2e"
             id="use1050"
             y="0"
             width="100%"
             height="100%" />
          <use
             x="95.410156"
             xlink:href="#DejaVuSans-34"
             id="use1052"
             y="0"
             width="100%"
             height="100%" />
        </g>
      </g>
    </g>
    <g
       id="ytick_4">
      <g
         id="line2d_13">
        <g
           id="g1060">
          <use
             style="stroke:#000000;stroke-width:0.8"
             x="47.720001"
             xlink:href="#m5dabc353bb"
             y="145.24141"
             id="use1058"
             width="100%"
             height="100%" />
        </g>
      </g>
      <g
         id="text_14">
        <!-- 0.6 -->
        <g
           transform="matrix(0.1,0,0,-0.1,24.816875,149.04063)"
           id="g1069">
          <use
             xlink:href="#DejaVuSans-30"
             id="use1063"
             x="0"
             y="0"
             width="100%"
             height="100%" />
          <use
             x="63.623047"
             xlink:href="#DejaVuSans-2e"
             id="use1065"
             y="0"
             width="100%"
             height="100%" />
          <use
             x="95.410156"
             xlink:href="#DejaVuSans-36"
             id="use1067"
             y="0"
             width="100%"
             height="100%" />
        </g>
      </g>
    </g>
    <g
       id="ytick_5">
      <g
         id="line2d_14">
        <g
           id="g1075">
          <use
             style="stroke:#000000;stroke-width:0.8"
             x="47.720001"
             xlink:href="#m5dabc353bb"
             y="97.424599"
             id="use1073"
             width="100%"
             height="100%" />
        </g>
      </g>
      <g
         id="text_15">
        <!-- 0.8 -->
        <g
           transform="matrix(0.1,0,0,-0.1,24.816875,101.22382)"
           id="g1084">
          <use
             xlink:href="#DejaVuSans-30"
             id="use1078"
             x="0"
             y="0"
             width="100%"
             height="100%" />
          <use
             x="63.623047"
             xlink:href="#DejaVuSans-2e"
             id="use1080"
             y="0"
             width="100%"
             height="100%" />
          <use
             x="95.410156"
             xlink:href="#DejaVuSans-38"
             id="use1082"
             y="0"
             width="100%"
             height="100%" />
        </g>
      </g>
    </g>
    <g
       id="ytick_6">
      <g
         id="line2d_15">
        <g
           id="g1090">
          <use
             style="stroke:#000000;stroke-width:0.8"
             x="47.720001"
             xlink:href="#m5dabc353bb"
             y="49.607788"
             id="use1088"
             width="100%"
             height="100%" />
        </g>
      </g>
      <g
         id="text_16">
        <!-- 1.0 -->
        <g
           transform="matrix(0.1,0,0,-0.1,24.816875,53.407006)"
           id="g1099">
          <use
             xlink:href="#DejaVuSans-31"
             id="use1093"
             x="0"
             y="0"
             width="100%"
             height="100%" />
          <use
             x="63.623047"
             xlink:href="#DejaVuSans-2e"
             id="use1095"
             y="0"
             width="100%"
             height="100%" />
          <use
             x="95.410156"
             xlink:href="#DejaVuSans-30"
             id="use1097"
             y="0"
             width="100%"
             height="100%" />
        </g>
      </g>
    </g>
    <g
       id="text_17">
      <!-- brightness -->
      <g
         transform="matrix(0,-0.1,-0.1,0,18.737188,196.9588)"
         id="g1130">
        <defs
           id="defs1108">
          <path
             d="m 3116,1747 q 0,634 -261,995 -261,361 -717,361 -457,0 -718,-361 -261,-361 -261,-995 0,-634 261,-995 261,-361 718,-361 456,0 717,361 261,361 261,995 z M 1159,2969 q 182,312 458,463 277,152 661,152 638,0 1036,-506 399,-506 399,-1331 Q 3713,922 3314,415 2916,-91 2278,-91 1894,-91 1617,61 1341,213 1159,525 V 0 H 581 v 4863 h 578 z"
             id="DejaVuSans-62"
             transform="scale(0.015625)" />
          <path
             d="m 2631,2963 q -97,56 -211,82 -114,27 -251,27 -488,0 -749,-317 -261,-317 -261,-911 V 0 H 581 v 3500 h 578 v -544 q 182,319 472,473 291,155 707,155 59,0 131,-8 72,-7 159,-23 z"
             id="DejaVuSans-72"
             transform="scale(0.015625)" />
          <path
             d="m 2906,1791 q 0,625 -258,968 -257,344 -723,344 -462,0 -720,-344 -258,-343 -258,-968 0,-622 258,-966 258,-344 720,-344 466,0 723,344 258,344 258,966 z M 3481,434 q 0,-893 -397,-1329 -396,-436 -1215,-436 -303,0 -572,45 -269,45 -522,139 v 559 q 253,-137 500,-202 247,-66 503,-66 566,0 847,295 281,295 281,892 V 616 Q 2728,306 2450,153 2172,0 1784,0 1141,0 747,490 353,981 353,1791 q 0,812 394,1302 394,491 1037,491 388,0 666,-153 278,-153 456,-462 v 531 h 575 z"
             id="DejaVuSans-67"
             transform="scale(0.015625)" />
          <path
             d="M 3513,2113 V 0 h -575 v 2094 q 0,497 -194,743 -194,247 -581,247 -466,0 -735,-297 -269,-296 -269,-809 V 0 H 581 v 3500 h 578 v -544 q 207,316 486,472 280,156 646,156 603,0 912,-373 310,-373 310,-1098 z"
             id="DejaVuSans-6e"
             transform="scale(0.015625)" />
          <path
             d="m 2834,3397 v -544 q -243,125 -506,187 -262,63 -544,63 -428,0 -642,-131 -214,-131 -214,-394 0,-200 153,-314 153,-114 616,-217 l 197,-44 q 612,-131 870,-370 258,-239 258,-667 0,-488 -386,-773 Q 2250,-91 1575,-91 1294,-91 989,-36 684,19 347,128 v 594 q 319,-166 628,-249 309,-82 613,-82 406,0 624,139 219,139 219,392 0,234 -158,359 -157,125 -692,241 l -200,47 q -534,112 -772,345 -237,233 -237,639 0,494 350,762 350,269 994,269 318,0 599,-47 282,-46 519,-140 z"
             id="DejaVuSans-73"
             transform="scale(0.015625)" />
        </defs>
        <use
           xlink:href="#DejaVuSans-62"
           id="use1110"
           x="0"
           y="0"
           width="100%"
           height="100%" />
        <use
           x="63.476562"
           xlink:href="#DejaVuSans-72"
           id="use1112"
           y="0"
           width="100%"
           height="100%" />
        <use
           x="104.58984"
           xlink:href="#DejaVuSans-69"
           id="use1114"
           y="0"
           width="100%"
           height="100%" />
        <use
           x="132.37305"
           xlink:href="#DejaVuSans-67"
           id="use1116"
           y="0"
           width="100%"
           height="100%" />
        <use
           x="195.84961"
           xlink:href="#DejaVuSans-68"
           id="use1118"
           y="0"
           width="100%"
           height="100%" />
        <use
           x="259.22852"
           xlink:href="#DejaVuSans-74"
           id="use1120"
           y="0"
           width="100%"
           height="100%" />
        <use
           x="298.4375"
           xlink:href="#DejaVuSans-6e"
           id="use1122"
           y="0"
           width="100%"
           height="100%" />
        <use
           x="361.81641"
           xlink:href="#DejaVuSans-65"
           id="use1124"
           y="0"
           width="100%"
           height="100%" />
        <use
           x="423.33984"
           xlink:href="#DejaVuSans-73"
           id="use1126"
           y="0"
           width="100%"
           height="100%" />
        <use
           x="475.43945"
           xlink:href="#DejaVuSans-73"
           id="use1128"
           y="0"
           width="100%"
           height="100%" />
      </g>
    </g>
  </g>
  <g
     id="line2d_16">
    <path
       clip-path="url(#p40cf32eb34)"
       d="m 66.005455,289.99733 3.323764,-2.07623 3.41873,0.23604 3.418729,-0.002 3.41873,0.0396 3.418729,0.27236 3.41873,1.20323 3.418729,-0.60216 3.41873,-1.36698 3.418729,0.22081 3.418735,0.37602 3.41872,1.16663 3.41873,-1.32029 3.41873,1.38699 3.41873,-2.24603 3.41873,0.92792 3.41873,-0.59577 3.41873,1.66787 3.41873,-1.45345 3.41873,0.26951 3.41873,0.73394 3.41873,-0.82286 3.41873,-1.17904 3.41873,1.92062 3.41873,-2.33954 3.41873,1.49467 3.41873,-0.49843 3.41873,-1.63783 3.41873,1.39222 3.41872,-0.70972 3.41873,-2.21401 3.41873,1.81108 3.41873,-0.93992 3.41873,-1.28195 3.41873,-0.5061 3.41873,0.55927 3.41873,-2.30845 3.41873,-0.26934 3.41873,-1.94622 3.41873,-1.29224 3.41873,-1.18365 3.41873,-4.89179 3.41873,-1.27284 3.41873,-5.69045 3.41873,-6.14385 3.41873,-6.0011 3.41873,-4.75194 3.41873,-7.61833 3.41872,-7.77481 3.41873,-7.35459 3.41873,-7.17646 3.41873,-7.15165 3.41873,-8.52645 3.41873,-8.00511 3.41873,-9.70818 3.41873,-8.28215 3.41873,-8.43894 3.41873,-8.61405 3.41873,-7.63503 3.41873,-8.88811 3.41873,-8.59253 3.41873,-9.07217 3.41873,-7.69883 3.41873,-9.23066 3.41873,-7.66752 3.41873,-8.271297 3.41873,-7.966051 3.41873,-7.744233 3.41872,-5.341701 3.41873,-5.170356 3.41873,-5.552647 3.41873,-3.790114 3.41873,-3.160707 3.41873,-1.118673 3.41873,-1.759705 3.41873,-1.053622 3.41873,0.245664 3.41873,1.674889 3.41873,0.644355 3.41873,3.39794 3.41873,2.016183 3.41873,3.520478 3.41873,3.92883 3.41873,4.826923 3.41873,3.581624 3.41873,5.125578 3.41873,4.606617 3.41873,4.642635 3.41873,4.980252 3.41872,3.244185 3.41873,2.998698 3.41873,5.106335 3.41873,4.96031 3.41873,2.73646 3.41873,3.42273 3.41873,3.5306 3.41873,3.98226 3.41873,3.13062 3.41873,3.08168 3.41873,1.84017 3.41873,2.04084 3.41873,1.78442 3.41873,3.15684 3.41873,0.98145 3.41873,1.10508 3.41873,0.84641 3.41873,0.38991 3.41872,0.12747"
       style="fill:none;stroke:#1f77b4;stroke-width:1.5;stroke-linecap:square"
       id="path1134" />
  </g>
  <g
     id="line2d_17">
    <path
       clip-path="url(#p40cf32eb34)"
       d="m 66.005455,288.80764 3.323764,-0.46428 3.41873,0.58122 3.418729,0.0534 3.41873,0.27937 3.418729,0.12711 3.41873,1.27717 3.418729,0.0256 3.41873,-1.46397 3.418729,0.27283 3.418735,0.65853 3.41872,1.11844 3.41873,-0.87976 3.41873,0.95748 3.41873,-1.78178 3.41873,0.75277 3.41873,-0.36215 3.41873,1.14936 3.41873,-1.16063 3.41873,-0.20473 3.41873,0.21381 3.41873,-0.81963 3.41873,-1.23056 3.41873,1.90242 3.41873,-2.53059 3.41873,0.87869 3.41873,-0.99716 3.41873,-1.51762 3.41873,1.26984 3.41872,-0.51221 3.41873,-2.23513 3.41873,1.53842 3.41873,-1.01156 3.41873,-1.13403 3.41873,-0.35204 3.41873,0.56284 3.41873,-2.3232 3.41873,-0.39185 3.41873,-0.92235 3.41873,-1.79015 3.41873,-0.93221 3.41873,-5.16199 3.41873,-2.03469 3.41873,-5.96181 3.41873,-6.10774 3.41873,-6.4646 3.41873,-6.00209 3.41873,-7.99531 3.41872,-8.54953 3.41873,-8.0777 3.41873,-8.97889 3.41873,-7.73873 3.41873,-9.03685 3.41873,-8.22977 3.41873,-9.55452 3.41873,-8.20773 3.41873,-8.57203 3.41873,-8.9144 3.41873,-7.49374 3.41873,-8.15736 3.41873,-7.93652 3.41873,-8.08308 3.41873,-6.80878 3.41873,-7.90947 3.41873,-5.819059 3.41873,-6.558385 3.41873,-6.435146 3.41873,-6.234481 3.41872,-3.730485 3.41873,-3.84813 3.41873,-4.047045 3.41873,-3.006339 3.41873,-2.766809 3.41873,-1.214863 3.41873,-2.284038 3.41873,-1.596997 3.41873,-1.495975 3.41873,0.07873 3.41873,-1.230255 3.41873,0.09571 3.41873,-1.001787 3.41873,0.462856 3.41873,-0.0589 3.41873,1.10165 3.41873,-0.330483 3.41873,1.400362 3.41873,0.710268 3.41873,1.0831 3.41873,1.718499 3.41872,0.780892 3.41873,1.601734 3.41873,3.553349 3.41873,4.141847 3.41873,2.479532 3.41873,3.818114 3.41873,4.326935 3.41873,5.078315 3.41873,4.023515 3.41873,5.029646 3.41873,4.189091 3.41873,4.749192 3.41873,4.68851 3.41873,5.87431 3.41873,4.04564 3.41873,4.4782 3.41873,4.20228 3.41873,4.43608 3.41872,3.70825"
       style="fill:none;stroke:#ff7f0e;stroke-width:1.5;stroke-linecap:square"
       id="path1137" />
  </g>
  <g
     id="line2d_18">
    <path
       clip-path="url(#p40cf32eb34)"
       d="M 202.75463,290.33422 V 250.4169"
       style="fill:none;stroke:#000000;stroke-width:1.5;stroke-linecap:square"
       id="path1140" />
  </g>
  <g
     id="line2d_19"
     transform="translate(0,-42)">
    <path
       clip-path="url(#p40cf32eb34)"
       d="M 230.10447,290.33422 V 250.4169"
       style="fill:none;stroke:#000000;stroke-width:1.5;stroke-linecap:square"
       id="path1143" />
  </g>
  <g
     id="line2d_20"
     transform="translate(0,-70.5)">
    <path
       clip-path="url(#p40cf32eb34)"
       d="M 243.77939,290.33422 V 250.4169"
       style="fill:none;stroke:#000000;stroke-width:1.5;stroke-linecap:square"
       id="path1146" />
  </g>
  <g
     id="line2d_21"
     transform="matrix(1,0,0,1.4986594,0,-12.538946)"
     style="stroke-width:0.816862">
    <path
       clip-path="url(#p40cf32eb34)"
       d="M 373.69111,90.747584 V 40.185635"
       style="fill:none;stroke:#ff0000;stroke-width:1.22529;stroke-linecap:square"
       id="path1149" />
  </g>
  <g
     id="patch_3">
    <path
       d="M 47.72,303.64 V 37.52448"
       style="fill:none;stroke:#000000;stroke-width:0.8;stroke-linecap:square;stroke-linejoin:miter"
       id="path1152" />
  </g>
  <g
     id="patch_4">
    <path
       d="M 47.72,303.64 H 450"
       style="fill:none;stroke:#000000;stroke-width:0.8;stroke-linecap:square;stroke-linejoin:miter"
       id="path1155" />
  </g>
  <g
     id="text_18"
     transform="translate(7.5)">
    <!-- 20h -->
    <g
       transform="matrix(0.07,0,0,-0.07,189.41088,300.97884)"
       id="g1164">
      <use
         xlink:href="#DejaVuSans-32"
         id="use1158"
         x="0"
         y="0"
         width="100%"
         height="100%" />
      <use
         x="63.623047"
         xlink:href="#DejaVuSans-30"
         id="use1160"
         y="0"
         width="100%"
         height="100%" />
      <use
         x="127.24609"
         xlink:href="#DejaVuSans-68"
         id="use1162"
         y="0"
         width="100%"
         height="100%" />
    </g>
  </g>
  <g
     id="text_19"
     transform="translate(7.5,-40.5)">
    <!-- 24h -->
    <g
       transform="matrix(0.07,0,0,-0.07,216.76072,300.97884)"
       id="g1173">
      <use
         xlink:href="#DejaVuSans-32"
         id="use1167"
         x="0"
         y="0"
         width="100%"
         height="100%" />
      <use
         x="63.623047"
         xlink:href="#DejaVuSans-34"
         id="use1169"
         y="0"
         width="100%"
         height="100%" />
      <use
         x="127.24609"
         xlink:href="#DejaVuSans-68"
         id="use1171"
         y="0"
         width="100%"
         height="100%" />
    </g>
  </g>
  <g
     id="text_20"
     transform="translate(7.5,-70.5)">
    <!-- 26h -->
    <g
       transform="matrix(0.07,0,0,-0.07,230.43564,300.97884)"
       id="g1182">
      <use
         xlink:href="#DejaVuSans-32"
         id="use1176"
         x="0"
         y="0"
         width="100%"
         height="100%" />
      <use
         x="63.623047"
         xlink:href="#DejaVuSans-36"
         id="use1178"
         y="0"
         width="100%"
         height="100%" />
      <use
         x="127.24609"
         xlink:href="#DejaVuSans-68"
         id="use1180"
         y="0"
         width="100%"
         height="100%" />
    </g>
  </g>
  <g
     id="text_21">
    <!-- 45h -->
    <g
       style="fill:#ff0000"
       transform="matrix(0.07,0,0,-0.07,367.01923,34.863325)"
       id="g1194">
      <defs
         id="defs1186">
        <path
           d="M 691,4666 H 3169 V 4134 H 1269 V 2991 q 137,47 274,70 138,23 276,23 781,0 1237,-428 457,-428 457,-1159 Q 3513,744 3044,326 2575,-91 1722,-91 1428,-91 1123,-41 819,9 494,109 v 635 q 281,-153 581,-228 300,-75 634,-75 541,0 856,284 316,284 316,772 0,487 -316,771 -315,285 -856,285 -253,0 -505,-56 -251,-56 -513,-175 z"
           id="DejaVuSans-35"
           transform="scale(0.015625)" />
      </defs>
      <use
         xlink:href="#DejaVuSans-34"
         id="use1188"
         x="0"
         y="0"
         width="100%"
         height="100%" />
      <use
         x="63.623047"
         xlink:href="#DejaVuSans-35"
         id="use1190"
         y="0"
         width="100%"
         height="100%" />
      <use
         x="127.24609"
         xlink:href="#DejaVuSans-68"
         id="use1192"
         y="0"
         width="100%"
         height="100%" />
    </g>
  </g>
  <g
     id="text_22">
    <!-- Growth pattern -->
    <g
       transform="matrix(0.12,0,0,-0.12,203.19344,20.879859)"
       id="g1232">
      <defs
         id="defs1202">
        <path
           d="M 3809,666 V 1919 H 2778 v 519 H 4434 V 434 Q 4069,175 3628,42 3188,-91 2688,-91 1594,-91 976,548 359,1188 359,2328 q 0,1144 617,1783 618,639 1712,639 456,0 867,-113 411,-112 758,-331 v -672 q -350,297 -744,447 -394,150 -828,150 -857,0 -1287,-478 -429,-478 -429,-1425 0,-944 429,-1422 430,-478 1287,-478 334,0 596,58 263,58 472,180 z"
           id="DejaVuSans-47"
           transform="scale(0.015625)" />
        <path
           d="m 1959,3097 q -462,0 -731,-361 -269,-361 -269,-989 0,-628 267,-989 268,-361 733,-361 460,0 728,362 269,363 269,988 0,622 -269,986 -268,364 -728,364 z m 0,487 q 750,0 1178,-488 429,-487 429,-1349 Q 3566,888 3137,398 2709,-91 1959,-91 1206,-91 779,398 353,888 353,1747 q 0,862 426,1349 427,488 1180,488 z"
           id="DejaVuSans-6f"
           transform="scale(0.015625)" />
        <path
           d="m 269,3500 h 575 l 719,-2731 715,2731 h 678 l 719,-2731 716,2731 h 575 L 4050,0 H 3372 L 2619,2869 1863,0 h -679 z"
           id="DejaVuSans-77"
           transform="scale(0.015625)" />
        <path
           d="M 1159,525 V -1331 H 581 v 4831 h 578 v -531 q 182,312 458,463 277,152 661,152 638,0 1036,-506 399,-506 399,-1331 0,-825 -399,-1332 -398,-506 -1036,-506 -384,0 -661,152 -276,152 -458,464 z m 1957,1222 q 0,634 -261,995 -261,361 -717,361 -457,0 -718,-361 -261,-361 -261,-995 0,-634 261,-995 261,-361 718,-361 456,0 717,361 261,361 261,995 z"
           id="DejaVuSans-70"
           transform="scale(0.015625)" />
        <path
           d="m 2194,1759 q -697,0 -966,-159 -269,-159 -269,-544 0,-306 202,-486 202,-179 548,-179 479,0 768,339 289,339 289,901 v 128 z m 1147,238 V 0 H 2766 V 531 Q 2569,213 2275,61 1981,-91 1556,-91 q -537,0 -855,302 -317,302 -317,808 0,590 395,890 396,300 1180,300 h 807 v 57 q 0,397 -261,614 -261,217 -733,217 -300,0 -585,-72 -284,-72 -546,-216 v 532 q 315,122 612,182 297,61 578,61 760,0 1135,-394 375,-393 375,-1193 z"
           id="DejaVuSans-61"
           transform="scale(0.015625)" />
      </defs>
      <use
         xlink:href="#DejaVuSans-47"
         id="use1204"
         x="0"
         y="0"
         width="100%"
         height="100%" />
      <use
         x="77.490234"
         xlink:href="#DejaVuSans-72"
         id="use1206"
         y="0"
         width="100%"
         height="100%" />
      <use
         x="116.35352"
         xlink:href="#DejaVuSans-6f"
         id="use1208"
         y="0"
         width="100%"
         height="100%" />
      <use
         x="177.53516"
         xlink:href="#DejaVuSans-77"
         id="use1210"
         y="0"
         width="100%"
         height="100%" />
      <use
         x="259.32227"
         xlink:href="#DejaVuSans-74"
         id="use1212"
         y="0"
         width="100%"
         height="100%" />
      <use
         x="298.53125"
         xlink:href="#DejaVuSans-68"
         id="use1214"
         y="0"
         width="100%"
         height="100%" />
      <use
         x="361.91016"
         xlink:href="#DejaVuSans-20"
         id="use1216"
         y="0"
         width="100%"
         height="100%" />
      <use
         x="393.69727"
         xlink:href="#DejaVuSans-70"
         id="use1218"
         y="0"
         width="100%"
         height="100%" />
      <use
         x="457.17383"
         xlink:href="#DejaVuSans-61"
         id="use1220"
         y="0"
         width="100%"
         height="100%" />
      <use
         x="518.45312"
         xlink:href="#DejaVuSans-74"
         id="use1222"
         y="0"
         width="100%"
         height="100%" />
      <use
         x="557.66211"
         xlink:href="#DejaVuSans-74"
         id="use1224"
         y="0"
         width="100%"
         height="100%" />
      <use
         x="596.87109"
         xlink:href="#DejaVuSans-65"
         id="use1226"
         y="0"
         width="100%"
         height="100%" />
      <use
         x="658.39453"
         xlink:href="#DejaVuSans-72"
         id="use1228"
         y="0"
         width="100%"
         height="100%" />
      <use
         x="697.75781"
         xlink:href="#DejaVuSans-6e"
         id="use1230"
         y="0"
         width="100%"
         height="100%" />
    </g>
  </g>
  <g
     id="legend_1">
    <g
       id="patch_5">
      <path
         d="m 53.32,55.66698 h 129.045 q 1.6,0 1.6,-1.6 v -10.9425 q 0,-1.6 -1.6,-1.6 H 53.32 q -1.6,0 -1.6,1.6 v 10.9425 q 0,1.6 1.6,1.6 z"
         style="opacity:0.3;fill:#ffffff;stroke:#cccccc;stroke-linejoin:miter"
         id="path1235" />
    </g>
    <g
       id="line2d_22">
      <path
         d="m 54.92,48.00323 h 16"
         style="fill:none;stroke:#1f77b4;stroke-width:1.5;stroke-linecap:square"
         id="path1238" />
    </g>
    <g
       id="line2d_23" />
    <g
       id="text_23">
      <!-- M145Δgbn -->
      <g
         transform="matrix(0.08,0,0,-0.08,77.32,50.80323)"
         id="g1262">
        <defs
           id="defs1244">
          <path
             d="m 628,4666 h 941 L 2759,1491 3956,4666 h 941 V 0 H 4281 V 4097 L 3078,897 H 2444 L 1241,4097 V 0 H 628 Z"
             id="DejaVuSans-4d"
             transform="scale(0.015625)" />
          <path
             d="M 2188,4044 906,525 H 3472 Z M 50,0 1831,4666 h 716 L 4325,0 Z"
             id="DejaVuSans-394"
             transform="scale(0.015625)" />
        </defs>
        <use
           xlink:href="#DejaVuSans-4d"
           id="use1246"
           x="0"
           y="0"
           width="100%"
           height="100%" />
        <use
           x="86.279297"
           xlink:href="#DejaVuSans-31"
           id="use1248"
           y="0"
           width="100%"
           height="100%" />
        <use
           x="149.90234"
           xlink:href="#DejaVuSans-34"
           id="use1250"
           y="0"
           width="100%"
           height="100%" />
        <use
           x="213.52539"
           xlink:href="#DejaVuSans-35"
           id="use1252"
           y="0"
           width="100%"
           height="100%" />
        <use
           x="277.14844"
           xlink:href="#DejaVuSans-394"
           id="use1254"
           y="0"
           width="100%"
           height="100%" />
        <use
           x="345.55664"
           xlink:href="#DejaVuSans-67"
           id="use1256"
           y="0"
           width="100%"
           height="100%" />
        <use
           x="409.0332"
           xlink:href="#DejaVuSans-62"
           id="use1258"
           y="0"
           width="100%"
           height="100%" />
        <use
           x="472.50977"
           xlink:href="#DejaVuSans-6e"
           id="use1260"
           y="0"
           width="100%"
           height="100%" />
      </g>
    </g>
    <g
       id="line2d_24">
      <path
         d="m 136.1925,48.00323 h 16"
         style="fill:none;stroke:#ff7f0e;stroke-width:1.5;stroke-linecap:square"
         id="path1265" />
    </g>
    <g
       id="line2d_25" />
    <g
       id="text_24">
      <!-- M145 -->
      <g
         transform="matrix(0.08,0,0,-0.08,158.5925,50.80323)"
         id="g1277">
        <use
           xlink:href="#DejaVuSans-4d"
           id="use1269"
           x="0"
           y="0"
           width="100%"
           height="100%" />
        <use
           x="86.279297"
           xlink:href="#DejaVuSans-31"
           id="use1271"
           y="0"
           width="100%"
           height="100%" />
        <use
           x="149.90234"
           xlink:href="#DejaVuSans-34"
           id="use1273"
           y="0"
           width="100%"
           height="100%" />
        <use
           x="213.52539"
           xlink:href="#DejaVuSans-35"
           id="use1275"
           y="0"
           width="100%"
           height="100%" />
      </g>
    </g>
  </g>
  <defs
     id="defs1286">
    <clipPath
       id="p40cf32eb34">
      <rect
         height="266.11552"
         width="402.28"
         x="47.72"
         y="37.52448"
         id="rect1283" />
    </clipPath>
  </defs>
</svg>
