<?xml version="1.0" encoding="utf-8" standalone="no"?>
<!DOCTYPE svg PUBLIC "-//W3C//DTD SVG 1.1//EN"
  "http://www.w3.org/Graphics/SVG/1.1/DTD/svg11.dtd">
<svg height="345.6pt" version="1.1" viewBox="0 0 460.8 345.6" width="460.8pt" xmlns="http://www.w3.org/2000/svg" xmlns:xlink="http://www.w3.org/1999/xlink">
 <metadata>
  <rdf:RDF xmlns:cc="http://creativecommons.org/ns#" xmlns:dc="http://purl.org/dc/elements/1.1/" xmlns:rdf="http://www.w3.org/1999/02/22-rdf-syntax-ns#">
   <cc:Work>
    <dc:type rdf:resource="http://purl.org/dc/dcmitype/StillImage"/>
    <dc:date>2021-05-24T21:25:27.893753</dc:date>
    <dc:format>image/svg+xml</dc:format>
    <dc:creator>
     <cc:Agent>
      <dc:title>Matplotlib v3.4.1, https://matplotlib.org/</dc:title>
     </cc:Agent>
    </dc:creator>
   </cc:Work>
  </rdf:RDF>
 </metadata>
 <defs>
  <style type="text/css">*{stroke-linecap:butt;stroke-linejoin:round;}</style>
 </defs>
 <g id="figure_1">
  <g id="patch_1">
   <path d="M 0 345.6 
L 460.8 345.6 
L 460.8 0 
L 0 0 
z
" style="fill:#ffffff;"/>
  </g>
  <g id="axes_1">
   <g id="patch_2">
    <path d="M 47.72 303.64 
L 450 303.64 
L 450 37.52448 
L 47.72 37.52448 
z
" style="fill:#ffffff;"/>
   </g>
   <g id="matplotlib.axis_1">
    <g id="xtick_1">
     <g id="line2d_1">
      <defs>
       <path d="M 0 0 
L 0 3.5 
" id="m37dadd598c" style="stroke:#000000;stroke-width:0.8;"/>
      </defs>
      <g>
       <use style="stroke:#000000;stroke-width:0.8;" x="66.005455" xlink:href="#m37dadd598c" y="303.64"/>
      </g>
     </g>
     <g id="text_1">
      <!-- 0 -->
      <g transform="translate(62.824205 318.238437)scale(0.1 -0.1)">
       <defs>
        <path d="M 2034 4250 
Q 1547 4250 1301 3770 
Q 1056 3291 1056 2328 
Q 1056 1369 1301 889 
Q 1547 409 2034 409 
Q 2525 409 2770 889 
Q 3016 1369 3016 2328 
Q 3016 3291 2770 3770 
Q 2525 4250 2034 4250 
z
M 2034 4750 
Q 2819 4750 3233 4129 
Q 3647 3509 3647 2328 
Q 3647 1150 3233 529 
Q 2819 -91 2034 -91 
Q 1250 -91 836 529 
Q 422 1150 422 2328 
Q 422 3509 836 4129 
Q 1250 4750 2034 4750 
z
" id="DejaVuSans-30" transform="scale(0.015625)"/>
       </defs>
       <use xlink:href="#DejaVuSans-30"/>
      </g>
     </g>
    </g>
    <g id="xtick_2">
     <g id="line2d_2">
      <g>
       <use style="stroke:#000000;stroke-width:0.8;" x="107.030208" xlink:href="#m37dadd598c" y="303.64"/>
      </g>
     </g>
     <g id="text_2">
      <!-- 6 -->
      <g transform="translate(103.848958 318.238437)scale(0.1 -0.1)">
       <defs>
        <path d="M 2113 2584 
Q 1688 2584 1439 2293 
Q 1191 2003 1191 1497 
Q 1191 994 1439 701 
Q 1688 409 2113 409 
Q 2538 409 2786 701 
Q 3034 994 3034 1497 
Q 3034 2003 2786 2293 
Q 2538 2584 2113 2584 
z
M 3366 4563 
L 3366 3988 
Q 3128 4100 2886 4159 
Q 2644 4219 2406 4219 
Q 1781 4219 1451 3797 
Q 1122 3375 1075 2522 
Q 1259 2794 1537 2939 
Q 1816 3084 2150 3084 
Q 2853 3084 3261 2657 
Q 3669 2231 3669 1497 
Q 3669 778 3244 343 
Q 2819 -91 2113 -91 
Q 1303 -91 875 529 
Q 447 1150 447 2328 
Q 447 3434 972 4092 
Q 1497 4750 2381 4750 
Q 2619 4750 2861 4703 
Q 3103 4656 3366 4563 
z
" id="DejaVuSans-36" transform="scale(0.015625)"/>
       </defs>
       <use xlink:href="#DejaVuSans-36"/>
      </g>
     </g>
    </g>
    <g id="xtick_3">
     <g id="line2d_3">
      <g>
       <use style="stroke:#000000;stroke-width:0.8;" x="148.054962" xlink:href="#m37dadd598c" y="303.64"/>
      </g>
     </g>
     <g id="text_3">
      <!-- 12 -->
      <g transform="translate(141.692462 318.238437)scale(0.1 -0.1)">
       <defs>
        <path d="M 794 531 
L 1825 531 
L 1825 4091 
L 703 3866 
L 703 4441 
L 1819 4666 
L 2450 4666 
L 2450 531 
L 3481 531 
L 3481 0 
L 794 0 
L 794 531 
z
" id="DejaVuSans-31" transform="scale(0.015625)"/>
        <path d="M 1228 531 
L 3431 531 
L 3431 0 
L 469 0 
L 469 531 
Q 828 903 1448 1529 
Q 2069 2156 2228 2338 
Q 2531 2678 2651 2914 
Q 2772 3150 2772 3378 
Q 2772 3750 2511 3984 
Q 2250 4219 1831 4219 
Q 1534 4219 1204 4116 
Q 875 4013 500 3803 
L 500 4441 
Q 881 4594 1212 4672 
Q 1544 4750 1819 4750 
Q 2544 4750 2975 4387 
Q 3406 4025 3406 3419 
Q 3406 3131 3298 2873 
Q 3191 2616 2906 2266 
Q 2828 2175 2409 1742 
Q 1991 1309 1228 531 
z
" id="DejaVuSans-32" transform="scale(0.015625)"/>
       </defs>
       <use xlink:href="#DejaVuSans-31"/>
       <use x="63.623047" xlink:href="#DejaVuSans-32"/>
      </g>
     </g>
    </g>
    <g id="xtick_4">
     <g id="line2d_4">
      <g>
       <use style="stroke:#000000;stroke-width:0.8;" x="189.079716" xlink:href="#m37dadd598c" y="303.64"/>
      </g>
     </g>
     <g id="text_4">
      <!-- 18 -->
      <g transform="translate(182.717216 318.238437)scale(0.1 -0.1)">
       <defs>
        <path d="M 2034 2216 
Q 1584 2216 1326 1975 
Q 1069 1734 1069 1313 
Q 1069 891 1326 650 
Q 1584 409 2034 409 
Q 2484 409 2743 651 
Q 3003 894 3003 1313 
Q 3003 1734 2745 1975 
Q 2488 2216 2034 2216 
z
M 1403 2484 
Q 997 2584 770 2862 
Q 544 3141 544 3541 
Q 544 4100 942 4425 
Q 1341 4750 2034 4750 
Q 2731 4750 3128 4425 
Q 3525 4100 3525 3541 
Q 3525 3141 3298 2862 
Q 3072 2584 2669 2484 
Q 3125 2378 3379 2068 
Q 3634 1759 3634 1313 
Q 3634 634 3220 271 
Q 2806 -91 2034 -91 
Q 1263 -91 848 271 
Q 434 634 434 1313 
Q 434 1759 690 2068 
Q 947 2378 1403 2484 
z
M 1172 3481 
Q 1172 3119 1398 2916 
Q 1625 2713 2034 2713 
Q 2441 2713 2670 2916 
Q 2900 3119 2900 3481 
Q 2900 3844 2670 4047 
Q 2441 4250 2034 4250 
Q 1625 4250 1398 4047 
Q 1172 3844 1172 3481 
z
" id="DejaVuSans-38" transform="scale(0.015625)"/>
       </defs>
       <use xlink:href="#DejaVuSans-31"/>
       <use x="63.623047" xlink:href="#DejaVuSans-38"/>
      </g>
     </g>
    </g>
    <g id="xtick_5">
     <g id="line2d_5">
      <g>
       <use style="stroke:#000000;stroke-width:0.8;" x="230.10447" xlink:href="#m37dadd598c" y="303.64"/>
      </g>
     </g>
     <g id="text_5">
      <!-- 24 -->
      <g transform="translate(223.74197 318.238437)scale(0.1 -0.1)">
       <defs>
        <path d="M 2419 4116 
L 825 1625 
L 2419 1625 
L 2419 4116 
z
M 2253 4666 
L 3047 4666 
L 3047 1625 
L 3713 1625 
L 3713 1100 
L 3047 1100 
L 3047 0 
L 2419 0 
L 2419 1100 
L 313 1100 
L 313 1709 
L 2253 4666 
z
" id="DejaVuSans-34" transform="scale(0.015625)"/>
       </defs>
       <use xlink:href="#DejaVuSans-32"/>
       <use x="63.623047" xlink:href="#DejaVuSans-34"/>
      </g>
     </g>
    </g>
    <g id="xtick_6">
     <g id="line2d_6">
      <g>
       <use style="stroke:#000000;stroke-width:0.8;" x="271.129224" xlink:href="#m37dadd598c" y="303.64"/>
      </g>
     </g>
     <g id="text_6">
      <!-- 30 -->
      <g transform="translate(264.766724 318.238437)scale(0.1 -0.1)">
       <defs>
        <path d="M 2597 2516 
Q 3050 2419 3304 2112 
Q 3559 1806 3559 1356 
Q 3559 666 3084 287 
Q 2609 -91 1734 -91 
Q 1441 -91 1130 -33 
Q 819 25 488 141 
L 488 750 
Q 750 597 1062 519 
Q 1375 441 1716 441 
Q 2309 441 2620 675 
Q 2931 909 2931 1356 
Q 2931 1769 2642 2001 
Q 2353 2234 1838 2234 
L 1294 2234 
L 1294 2753 
L 1863 2753 
Q 2328 2753 2575 2939 
Q 2822 3125 2822 3475 
Q 2822 3834 2567 4026 
Q 2313 4219 1838 4219 
Q 1578 4219 1281 4162 
Q 984 4106 628 3988 
L 628 4550 
Q 988 4650 1302 4700 
Q 1616 4750 1894 4750 
Q 2613 4750 3031 4423 
Q 3450 4097 3450 3541 
Q 3450 3153 3228 2886 
Q 3006 2619 2597 2516 
z
" id="DejaVuSans-33" transform="scale(0.015625)"/>
       </defs>
       <use xlink:href="#DejaVuSans-33"/>
       <use x="63.623047" xlink:href="#DejaVuSans-30"/>
      </g>
     </g>
    </g>
    <g id="xtick_7">
     <g id="line2d_7">
      <g>
       <use style="stroke:#000000;stroke-width:0.8;" x="312.153978" xlink:href="#m37dadd598c" y="303.64"/>
      </g>
     </g>
     <g id="text_7">
      <!-- 36 -->
      <g transform="translate(305.791478 318.238437)scale(0.1 -0.1)">
       <use xlink:href="#DejaVuSans-33"/>
       <use x="63.623047" xlink:href="#DejaVuSans-36"/>
      </g>
     </g>
    </g>
    <g id="xtick_8">
     <g id="line2d_8">
      <g>
       <use style="stroke:#000000;stroke-width:0.8;" x="353.178732" xlink:href="#m37dadd598c" y="303.64"/>
      </g>
     </g>
     <g id="text_8">
      <!-- 42 -->
      <g transform="translate(346.816232 318.238437)scale(0.1 -0.1)">
       <use xlink:href="#DejaVuSans-34"/>
       <use x="63.623047" xlink:href="#DejaVuSans-32"/>
      </g>
     </g>
    </g>
    <g id="xtick_9">
     <g id="line2d_9">
      <g>
       <use style="stroke:#000000;stroke-width:0.8;" x="394.203486" xlink:href="#m37dadd598c" y="303.64"/>
      </g>
     </g>
     <g id="text_9">
      <!-- 48 -->
      <g transform="translate(387.840986 318.238437)scale(0.1 -0.1)">
       <use xlink:href="#DejaVuSans-34"/>
       <use x="63.623047" xlink:href="#DejaVuSans-38"/>
      </g>
     </g>
    </g>
    <g id="text_10">
     <!-- time (h) -->
     <g transform="translate(228.904531 331.916562)scale(0.1 -0.1)">
      <defs>
       <path d="M 1172 4494 
L 1172 3500 
L 2356 3500 
L 2356 3053 
L 1172 3053 
L 1172 1153 
Q 1172 725 1289 603 
Q 1406 481 1766 481 
L 2356 481 
L 2356 0 
L 1766 0 
Q 1100 0 847 248 
Q 594 497 594 1153 
L 594 3053 
L 172 3053 
L 172 3500 
L 594 3500 
L 594 4494 
L 1172 4494 
z
" id="DejaVuSans-74" transform="scale(0.015625)"/>
       <path d="M 603 3500 
L 1178 3500 
L 1178 0 
L 603 0 
L 603 3500 
z
M 603 4863 
L 1178 4863 
L 1178 4134 
L 603 4134 
L 603 4863 
z
" id="DejaVuSans-69" transform="scale(0.015625)"/>
       <path d="M 3328 2828 
Q 3544 3216 3844 3400 
Q 4144 3584 4550 3584 
Q 5097 3584 5394 3201 
Q 5691 2819 5691 2113 
L 5691 0 
L 5113 0 
L 5113 2094 
Q 5113 2597 4934 2840 
Q 4756 3084 4391 3084 
Q 3944 3084 3684 2787 
Q 3425 2491 3425 1978 
L 3425 0 
L 2847 0 
L 2847 2094 
Q 2847 2600 2669 2842 
Q 2491 3084 2119 3084 
Q 1678 3084 1418 2786 
Q 1159 2488 1159 1978 
L 1159 0 
L 581 0 
L 581 3500 
L 1159 3500 
L 1159 2956 
Q 1356 3278 1631 3431 
Q 1906 3584 2284 3584 
Q 2666 3584 2933 3390 
Q 3200 3197 3328 2828 
z
" id="DejaVuSans-6d" transform="scale(0.015625)"/>
       <path d="M 3597 1894 
L 3597 1613 
L 953 1613 
Q 991 1019 1311 708 
Q 1631 397 2203 397 
Q 2534 397 2845 478 
Q 3156 559 3463 722 
L 3463 178 
Q 3153 47 2828 -22 
Q 2503 -91 2169 -91 
Q 1331 -91 842 396 
Q 353 884 353 1716 
Q 353 2575 817 3079 
Q 1281 3584 2069 3584 
Q 2775 3584 3186 3129 
Q 3597 2675 3597 1894 
z
M 3022 2063 
Q 3016 2534 2758 2815 
Q 2500 3097 2075 3097 
Q 1594 3097 1305 2825 
Q 1016 2553 972 2059 
L 3022 2063 
z
" id="DejaVuSans-65" transform="scale(0.015625)"/>
       <path id="DejaVuSans-20" transform="scale(0.015625)"/>
       <path d="M 1984 4856 
Q 1566 4138 1362 3434 
Q 1159 2731 1159 2009 
Q 1159 1288 1364 580 
Q 1569 -128 1984 -844 
L 1484 -844 
Q 1016 -109 783 600 
Q 550 1309 550 2009 
Q 550 2706 781 3412 
Q 1013 4119 1484 4856 
L 1984 4856 
z
" id="DejaVuSans-28" transform="scale(0.015625)"/>
       <path d="M 3513 2113 
L 3513 0 
L 2938 0 
L 2938 2094 
Q 2938 2591 2744 2837 
Q 2550 3084 2163 3084 
Q 1697 3084 1428 2787 
Q 1159 2491 1159 1978 
L 1159 0 
L 581 0 
L 581 4863 
L 1159 4863 
L 1159 2956 
Q 1366 3272 1645 3428 
Q 1925 3584 2291 3584 
Q 2894 3584 3203 3211 
Q 3513 2838 3513 2113 
z
" id="DejaVuSans-68" transform="scale(0.015625)"/>
       <path d="M 513 4856 
L 1013 4856 
Q 1481 4119 1714 3412 
Q 1947 2706 1947 2009 
Q 1947 1309 1714 600 
Q 1481 -109 1013 -844 
L 513 -844 
Q 928 -128 1133 580 
Q 1338 1288 1338 2009 
Q 1338 2731 1133 3434 
Q 928 4138 513 4856 
z
" id="DejaVuSans-29" transform="scale(0.015625)"/>
      </defs>
      <use xlink:href="#DejaVuSans-74"/>
      <use x="39.208984" xlink:href="#DejaVuSans-69"/>
      <use x="66.992188" xlink:href="#DejaVuSans-6d"/>
      <use x="164.404297" xlink:href="#DejaVuSans-65"/>
      <use x="225.927734" xlink:href="#DejaVuSans-20"/>
      <use x="257.714844" xlink:href="#DejaVuSans-28"/>
      <use x="296.728516" xlink:href="#DejaVuSans-68"/>
      <use x="360.107422" xlink:href="#DejaVuSans-29"/>
     </g>
    </g>
   </g>
   <g id="matplotlib.axis_2">
    <g id="ytick_1">
     <g id="line2d_10">
      <defs>
       <path d="M 0 0 
L -3.5 0 
" id="m7c3ac69c39" style="stroke:#000000;stroke-width:0.8;"/>
      </defs>
      <g>
       <use style="stroke:#000000;stroke-width:0.8;" x="47.72" xlink:href="#m7c3ac69c39" y="288.27391"/>
      </g>
     </g>
     <g id="text_11">
      <!-- 0.0 -->
      <g transform="translate(24.816875 292.073129)scale(0.1 -0.1)">
       <defs>
        <path d="M 684 794 
L 1344 794 
L 1344 0 
L 684 0 
L 684 794 
z
" id="DejaVuSans-2e" transform="scale(0.015625)"/>
       </defs>
       <use xlink:href="#DejaVuSans-30"/>
       <use x="63.623047" xlink:href="#DejaVuSans-2e"/>
       <use x="95.410156" xlink:href="#DejaVuSans-30"/>
      </g>
     </g>
    </g>
    <g id="ytick_2">
     <g id="line2d_11">
      <g>
       <use style="stroke:#000000;stroke-width:0.8;" x="47.72" xlink:href="#m7c3ac69c39" y="240.543256"/>
      </g>
     </g>
     <g id="text_12">
      <!-- 0.2 -->
      <g transform="translate(24.816875 244.342475)scale(0.1 -0.1)">
       <use xlink:href="#DejaVuSans-30"/>
       <use x="63.623047" xlink:href="#DejaVuSans-2e"/>
       <use x="95.410156" xlink:href="#DejaVuSans-32"/>
      </g>
     </g>
    </g>
    <g id="ytick_3">
     <g id="line2d_12">
      <g>
       <use style="stroke:#000000;stroke-width:0.8;" x="47.72" xlink:href="#m7c3ac69c39" y="192.812602"/>
      </g>
     </g>
     <g id="text_13">
      <!-- 0.4 -->
      <g transform="translate(24.816875 196.611821)scale(0.1 -0.1)">
       <use xlink:href="#DejaVuSans-30"/>
       <use x="63.623047" xlink:href="#DejaVuSans-2e"/>
       <use x="95.410156" xlink:href="#DejaVuSans-34"/>
      </g>
     </g>
    </g>
    <g id="ytick_4">
     <g id="line2d_13">
      <g>
       <use style="stroke:#000000;stroke-width:0.8;" x="47.72" xlink:href="#m7c3ac69c39" y="145.081948"/>
      </g>
     </g>
     <g id="text_14">
      <!-- 0.6 -->
      <g transform="translate(24.816875 148.881167)scale(0.1 -0.1)">
       <use xlink:href="#DejaVuSans-30"/>
       <use x="63.623047" xlink:href="#DejaVuSans-2e"/>
       <use x="95.410156" xlink:href="#DejaVuSans-36"/>
      </g>
     </g>
    </g>
    <g id="ytick_5">
     <g id="line2d_14">
      <g>
       <use style="stroke:#000000;stroke-width:0.8;" x="47.72" xlink:href="#m7c3ac69c39" y="97.351294"/>
      </g>
     </g>
     <g id="text_15">
      <!-- 0.8 -->
      <g transform="translate(24.816875 101.150513)scale(0.1 -0.1)">
       <use xlink:href="#DejaVuSans-30"/>
       <use x="63.623047" xlink:href="#DejaVuSans-2e"/>
       <use x="95.410156" xlink:href="#DejaVuSans-38"/>
      </g>
     </g>
    </g>
    <g id="ytick_6">
     <g id="line2d_15">
      <g>
       <use style="stroke:#000000;stroke-width:0.8;" x="47.72" xlink:href="#m7c3ac69c39" y="49.62064"/>
      </g>
     </g>
     <g id="text_16">
      <!-- 1.0 -->
      <g transform="translate(24.816875 53.419859)scale(0.1 -0.1)">
       <use xlink:href="#DejaVuSans-31"/>
       <use x="63.623047" xlink:href="#DejaVuSans-2e"/>
       <use x="95.410156" xlink:href="#DejaVuSans-30"/>
      </g>
     </g>
    </g>
    <g id="text_17">
     <!-- brightness -->
     <g transform="translate(18.737188 196.958802)rotate(-90)scale(0.1 -0.1)">
      <defs>
       <path d="M 3116 1747 
Q 3116 2381 2855 2742 
Q 2594 3103 2138 3103 
Q 1681 3103 1420 2742 
Q 1159 2381 1159 1747 
Q 1159 1113 1420 752 
Q 1681 391 2138 391 
Q 2594 391 2855 752 
Q 3116 1113 3116 1747 
z
M 1159 2969 
Q 1341 3281 1617 3432 
Q 1894 3584 2278 3584 
Q 2916 3584 3314 3078 
Q 3713 2572 3713 1747 
Q 3713 922 3314 415 
Q 2916 -91 2278 -91 
Q 1894 -91 1617 61 
Q 1341 213 1159 525 
L 1159 0 
L 581 0 
L 581 4863 
L 1159 4863 
L 1159 2969 
z
" id="DejaVuSans-62" transform="scale(0.015625)"/>
       <path d="M 2631 2963 
Q 2534 3019 2420 3045 
Q 2306 3072 2169 3072 
Q 1681 3072 1420 2755 
Q 1159 2438 1159 1844 
L 1159 0 
L 581 0 
L 581 3500 
L 1159 3500 
L 1159 2956 
Q 1341 3275 1631 3429 
Q 1922 3584 2338 3584 
Q 2397 3584 2469 3576 
Q 2541 3569 2628 3553 
L 2631 2963 
z
" id="DejaVuSans-72" transform="scale(0.015625)"/>
       <path d="M 2906 1791 
Q 2906 2416 2648 2759 
Q 2391 3103 1925 3103 
Q 1463 3103 1205 2759 
Q 947 2416 947 1791 
Q 947 1169 1205 825 
Q 1463 481 1925 481 
Q 2391 481 2648 825 
Q 2906 1169 2906 1791 
z
M 3481 434 
Q 3481 -459 3084 -895 
Q 2688 -1331 1869 -1331 
Q 1566 -1331 1297 -1286 
Q 1028 -1241 775 -1147 
L 775 -588 
Q 1028 -725 1275 -790 
Q 1522 -856 1778 -856 
Q 2344 -856 2625 -561 
Q 2906 -266 2906 331 
L 2906 616 
Q 2728 306 2450 153 
Q 2172 0 1784 0 
Q 1141 0 747 490 
Q 353 981 353 1791 
Q 353 2603 747 3093 
Q 1141 3584 1784 3584 
Q 2172 3584 2450 3431 
Q 2728 3278 2906 2969 
L 2906 3500 
L 3481 3500 
L 3481 434 
z
" id="DejaVuSans-67" transform="scale(0.015625)"/>
       <path d="M 3513 2113 
L 3513 0 
L 2938 0 
L 2938 2094 
Q 2938 2591 2744 2837 
Q 2550 3084 2163 3084 
Q 1697 3084 1428 2787 
Q 1159 2491 1159 1978 
L 1159 0 
L 581 0 
L 581 3500 
L 1159 3500 
L 1159 2956 
Q 1366 3272 1645 3428 
Q 1925 3584 2291 3584 
Q 2894 3584 3203 3211 
Q 3513 2838 3513 2113 
z
" id="DejaVuSans-6e" transform="scale(0.015625)"/>
       <path d="M 2834 3397 
L 2834 2853 
Q 2591 2978 2328 3040 
Q 2066 3103 1784 3103 
Q 1356 3103 1142 2972 
Q 928 2841 928 2578 
Q 928 2378 1081 2264 
Q 1234 2150 1697 2047 
L 1894 2003 
Q 2506 1872 2764 1633 
Q 3022 1394 3022 966 
Q 3022 478 2636 193 
Q 2250 -91 1575 -91 
Q 1294 -91 989 -36 
Q 684 19 347 128 
L 347 722 
Q 666 556 975 473 
Q 1284 391 1588 391 
Q 1994 391 2212 530 
Q 2431 669 2431 922 
Q 2431 1156 2273 1281 
Q 2116 1406 1581 1522 
L 1381 1569 
Q 847 1681 609 1914 
Q 372 2147 372 2553 
Q 372 3047 722 3315 
Q 1072 3584 1716 3584 
Q 2034 3584 2315 3537 
Q 2597 3491 2834 3397 
z
" id="DejaVuSans-73" transform="scale(0.015625)"/>
      </defs>
      <use xlink:href="#DejaVuSans-62"/>
      <use x="63.476562" xlink:href="#DejaVuSans-72"/>
      <use x="104.589844" xlink:href="#DejaVuSans-69"/>
      <use x="132.373047" xlink:href="#DejaVuSans-67"/>
      <use x="195.849609" xlink:href="#DejaVuSans-68"/>
      <use x="259.228516" xlink:href="#DejaVuSans-74"/>
      <use x="298.4375" xlink:href="#DejaVuSans-6e"/>
      <use x="361.816406" xlink:href="#DejaVuSans-65"/>
      <use x="423.339844" xlink:href="#DejaVuSans-73"/>
      <use x="475.439453" xlink:href="#DejaVuSans-73"/>
     </g>
    </g>
   </g>
   <g id="line2d_16">
    <path clip-path="url(#pcb78a37fe4)" d="M 66.005455 288.663125 
L 69.329219 288.060954 
L 72.747949 288.097652 
L 76.166678 287.861078 
L 79.585408 288.954806 
L 83.004137 288.478162 
L 86.422867 289.156593 
L 89.841596 288.700871 
L 93.260326 286.9396 
L 96.679055 288.070465 
L 100.097785 287.86722 
L 103.516514 288.724151 
L 106.935244 287.072748 
L 110.353973 289.134669 
L 113.772703 286.997981 
L 117.191432 286.979163 
L 120.610162 286.43078 
L 124.028891 288.500479 
L 127.447621 286.804728 
L 130.86635 286.677746 
L 134.28508 287.588343 
L 137.703809 286.94691 
L 141.122539 284.967611 
L 144.541268 286.901806 
L 147.959998 284.290072 
L 151.378727 286.673472 
L 154.797457 285.879628 
L 158.216186 284.646774 
L 161.634916 285.667054 
L 165.053645 284.743356 
L 168.472375 283.324865 
L 171.891104 283.450126 
L 175.309834 284.076177 
L 178.728563 283.408913 
L 182.147293 282.213757 
L 185.566022 282.273617 
L 188.984752 280.218557 
L 192.403481 279.745521 
L 195.822211 277.209845 
L 199.24094 275.587999 
L 202.65967 274.685715 
L 206.078399 268.653694 
L 209.497128 267.985057 
L 212.915858 260.816464 
L 216.334587 254.74512 
L 219.753317 248.245748 
L 223.172046 242.995984 
L 226.590776 235.727675 
L 230.009505 227.477466 
L 233.428235 219.481158 
L 236.846964 212.012294 
L 240.265694 204.818627 
L 243.684423 195.455856 
L 247.103153 187.647449 
L 250.521882 177.019646 
L 253.940612 168.362806 
L 257.359341 159.353575 
L 260.778071 150.924478 
L 264.1968 143.49968 
L 267.61553 133.983879 
L 271.034259 125.327684 
L 274.452989 116.527911 
L 277.871718 108.647606 
L 281.290448 99.775208 
L 284.709177 92.444154 
L 288.127907 84.881435 
L 291.546636 76.962655 
L 294.965366 70.047533 
L 298.384095 64.896801 
L 301.802825 60.102819 
L 305.221554 54.913497 
L 308.640284 52.076212 
L 312.059013 50.152087 
L 315.477743 49.789646 
L 318.896472 49.62064 
L 322.315202 49.646684 
L 325.733931 50.697545 
L 329.152661 52.281097 
L 332.57139 54.200414 
L 335.99012 57.62069 
L 339.408849 59.527222 
L 342.827579 63.597061 
L 346.246308 67.817123 
L 349.665038 72.866997 
L 353.083767 76.621225 
L 356.502497 82.018129 
L 359.921226 86.590861 
L 363.339956 90.743209 
L 366.758685 95.568719 
L 370.177415 98.000398 
L 373.596144 100.774063 
L 377.014874 105.056941 
L 380.433603 109.035001 
L 383.852333 111.683246 
L 387.271062 114.567951 
L 390.689792 117.861208 
L 394.108521 120.812678 
L 397.527251 123.095667 
L 400.94598 126.031907 
L 404.36471 127.815255 
L 407.783439 129.720396 
L 411.202169 131.114913 
L 414.620898 134.197085 
L 418.039627 134.607143 
L 421.458357 136.555198 
L 424.877086 136.419164 
L 428.295816 136.785739 
L 431.714545 137.165094 
" style="fill:none;stroke:#1f77b4;stroke-linecap:square;stroke-width:1.5;"/>
   </g>
   <g id="line2d_17">
    <path clip-path="url(#pcb78a37fe4)" d="M 66.005455 288.135647 
L 69.329219 288.110442 
L 72.747949 288.575642 
L 76.166678 288.672758 
L 79.585408 289.413955 
L 83.004137 289.421576 
L 86.422867 290.24747 
L 89.841596 290.438803 
L 93.260326 289.270396 
L 96.679055 290.179375 
L 100.097785 290.290635 
L 103.516514 291.050408 
L 106.935244 289.851497 
L 110.353973 291.117371 
L 113.772703 289.735551 
L 117.191432 289.807901 
L 120.610162 289.631185 
L 124.028891 290.968664 
L 127.447621 290.150028 
L 130.86635 290.08434 
L 134.28508 289.895026 
L 137.703809 289.443297 
L 141.122539 287.736592 
L 144.541268 289.154787 
L 147.959998 286.932644 
L 151.378727 288.17352 
L 154.797457 287.042586 
L 158.216186 286.045724 
L 161.634916 286.987648 
L 165.053645 286.013196 
L 168.472375 284.615365 
L 171.891104 284.725004 
L 175.309834 284.754097 
L 178.728563 284.722389 
L 182.147293 283.43486 
L 185.566022 283.328032 
L 188.984752 281.670558 
L 192.403481 281.261455 
L 195.822211 279.853374 
L 199.24094 278.204026 
L 202.65967 277.059183 
L 206.078399 271.526538 
L 209.497128 269.780137 
L 212.915858 263.157782 
L 216.334587 257.600651 
L 219.753317 251.35908 
L 223.172046 246.27114 
L 226.590776 239.475242 
L 230.009505 231.722027 
L 233.428235 222.999206 
L 236.846964 212.797244 
L 240.265694 206.630613 
L 243.684423 198.630381 
L 247.103153 190.876986 
L 250.521882 181.052131 
L 253.940612 173.063801 
L 257.359341 164.35208 
L 260.778071 156.463622 
L 264.1968 149.51006 
L 267.61553 141.62263 
L 271.034259 134.313892 
L 274.452989 126.91683 
L 277.871718 120.192113 
L 281.290448 113.23364 
L 284.709177 107.82233 
L 288.127907 101.789368 
L 291.546636 95.633241 
L 294.965366 89.950385 
L 298.384095 85.801907 
L 301.802825 81.717123 
L 305.221554 77.402693 
L 308.640284 74.070651 
L 312.059013 70.72086 
L 315.477743 68.661755 
L 318.896472 65.940134 
L 322.315202 63.862133 
L 325.733931 61.606869 
L 329.152661 59.908994 
L 332.57139 58.259405 
L 335.99012 56.901776 
L 339.408849 54.143412 
L 342.827579 53.349288 
L 346.246308 51.902513 
L 349.665038 51.675839 
L 353.083767 50.125643 
L 356.502497 50.091047 
L 359.921226 49.8202 
L 363.339956 49.62064 
L 366.758685 50.45417 
L 370.177415 50.564449 
L 373.596144 52.633665 
L 377.014874 56.105217 
L 380.433603 60.048539 
L 383.852333 62.962273 
L 387.271062 67.098167 
L 390.689792 71.906297 
L 394.108521 77.158164 
L 397.527251 81.967356 
L 400.94598 87.908917 
L 404.36471 93.673629 
L 407.783439 99.317379 
L 411.202169 104.544051 
L 414.620898 110.804228 
L 418.039627 115.446314 
L 421.458357 120.550168 
L 424.877086 124.946959 
L 428.295816 129.568264 
L 431.714545 133.695663 
" style="fill:none;stroke:#ff7f0e;stroke-linecap:square;stroke-width:1.5;"/>
   </g>
   <g id="line2d_18">
    <path clip-path="url(#pcb78a37fe4)" d="M 66.005455 288.524133 
L 69.329219 288.177654 
L 72.747949 288.119944 
L 76.166678 288.415973 
L 79.585408 288.088008 
L 83.004137 288.225573 
L 86.422867 289.519407 
L 89.841596 288.880078 
L 93.260326 287.872207 
L 96.679055 287.914329 
L 100.097785 288.092113 
L 103.516514 288.764123 
L 106.935244 288.745123 
L 110.353973 288.77025 
L 113.772703 287.06178 
L 117.191432 287.939813 
L 120.610162 287.970766 
L 124.028891 288.43603 
L 127.447621 287.042154 
L 130.86635 287.591814 
L 134.28508 287.732192 
L 137.703809 286.914529 
L 141.122539 286.95237 
L 144.541268 288.429532 
L 147.959998 286.565088 
L 151.378727 287.45441 
L 154.797457 286.512439 
L 158.216186 285.514602 
L 161.634916 286.561318 
L 165.053645 286.503731 
L 168.472375 283.957293 
L 171.891104 285.6902 
L 175.309834 284.760486 
L 178.728563 283.254855 
L 182.147293 283.246374 
L 185.566022 283.646356 
L 188.984752 281.334981 
L 192.403481 280.511115 
L 195.822211 279.303253 
L 199.24094 277.82087 
L 202.65967 276.175421 
L 206.078399 271.580388 
L 209.497128 269.387501 
L 212.915858 264.140247 
L 216.334587 258.900581 
L 219.753317 252.676116 
L 223.172046 247.693915 
L 226.590776 240.008936 
L 230.009505 232.729621 
L 233.428235 225.893847 
L 236.846964 218.153676 
L 240.265694 210.535678 
L 243.684423 202.854663 
L 247.103153 194.749397 
L 250.521882 185.873908 
L 253.940612 178.267879 
L 257.359341 170.638495 
L 260.778071 161.760278 
L 264.1968 154.454871 
L 267.61553 145.73992 
L 271.034259 137.254461 
L 274.452989 128.227703 
L 277.871718 120.478883 
L 281.290448 111.733528 
L 284.709177 103.547444 
L 288.127907 95.71459 
L 291.546636 88.112406 
L 294.965366 80.477898 
L 298.384095 75.441872 
L 301.802825 69.865922 
L 305.221554 65.040072 
L 308.640284 60.149121 
L 312.059013 56.443077 
L 315.477743 54.434159 
L 318.896472 51.942493 
L 322.315202 50.07294 
L 325.733931 49.62064 
L 329.152661 51.076063 
L 332.57139 51.414421 
L 335.99012 55.136026 
L 339.408849 57.094375 
L 342.827579 60.715147 
L 346.246308 64.254992 
L 349.665038 69.411812 
L 353.083767 73.164828 
L 356.502497 78.343613 
L 359.921226 83.076824 
L 363.339956 87.974093 
L 366.758685 93.19294 
L 370.177415 96.72831 
L 373.596144 100.641315 
L 377.014874 105.538888 
L 380.433603 110.460752 
L 383.852333 113.296153 
L 387.271062 116.853271 
L 390.689792 120.433682 
L 394.108521 124.394155 
L 397.527251 127.955521 
L 400.94598 131.353905 
L 404.36471 133.422952 
L 407.783439 135.217787 
L 411.202169 137.266782 
L 414.620898 140.514124 
L 418.039627 141.061572 
L 421.458357 142.388763 
L 424.877086 143.526116 
L 428.295816 144.404492 
L 431.714545 144.644684 
" style="fill:none;stroke:#2ca02c;stroke-linecap:square;stroke-width:1.5;"/>
   </g>
   <g id="line2d_19">
    <path clip-path="url(#pcb78a37fe4)" d="M 66.005455 288.155374 
L 69.329219 287.965958 
L 72.747949 288.7004 
L 76.166678 288.519411 
L 79.585408 288.547559 
L 83.004137 288.224022 
L 86.422867 290.260094 
L 89.841596 290.05474 
L 93.260326 288.03093 
L 96.679055 287.985946 
L 100.097785 289.024472 
L 103.516514 290.315808 
L 106.935244 290.463083 
L 110.353973 291.093882 
L 113.772703 288.824945 
L 117.191432 289.57028 
L 120.610162 289.35519 
L 124.028891 290.70582 
L 127.447621 288.580514 
L 130.86635 288.127687 
L 134.28508 288.802542 
L 137.703809 287.57815 
L 141.122539 286.843394 
L 144.541268 289.294588 
L 147.959998 285.61821 
L 151.378727 286.656029 
L 154.797457 285.23706 
L 158.216186 283.638708 
L 161.634916 285.170589 
L 165.053645 285.490927 
L 168.472375 282.310583 
L 171.891104 284.533451 
L 175.309834 283.715229 
L 178.728563 281.219774 
L 182.147293 281.960999 
L 185.566022 283.271504 
L 188.984752 279.801632 
L 192.403481 279.198678 
L 195.822211 279.166686 
L 199.24094 276.647328 
L 202.65967 276.312963 
L 206.078399 270.664093 
L 209.497128 269.172851 
L 212.915858 263.649227 
L 216.334587 257.766619 
L 219.753317 252.019239 
L 223.172046 245.524527 
L 226.590776 236.735859 
L 230.009505 228.305643 
L 233.428235 221.267573 
L 236.846964 212.605682 
L 240.265694 203.970559 
L 243.684423 194.121152 
L 247.103153 185.087559 
L 250.521882 174.907888 
L 253.940612 165.819379 
L 257.359341 156.644683 
L 260.778071 145.546641 
L 264.1968 137.380504 
L 267.61553 127.773902 
L 271.034259 118.277696 
L 274.452989 108.330122 
L 277.871718 100.331883 
L 281.290448 90.319845 
L 284.709177 83.760756 
L 288.127907 75.952919 
L 291.546636 68.508858 
L 294.965366 61.375103 
L 298.384095 58.660871 
L 301.802825 54.948896 
L 305.221554 52.905385 
L 308.640284 50.217889 
L 312.059013 49.62064 
L 315.477743 50.920237 
L 318.896472 50.673705 
L 322.315202 50.813597 
L 325.733931 51.208677 
L 329.152661 54.231421 
L 332.57139 54.474138 
L 335.99012 56.743361 
L 339.408849 58.227369 
L 342.827579 60.69034 
L 346.246308 62.675786 
L 349.665038 65.771074 
L 353.083767 66.796003 
L 356.502497 70.21471 
L 359.921226 71.472894 
L 363.339956 73.675184 
L 366.758685 75.296631 
L 370.177415 76.280104 
L 373.596144 76.623186 
L 377.014874 79.432137 
L 380.433603 82.785527 
L 383.852333 83.703947 
L 387.271062 86.343451 
L 390.689792 89.422124 
L 394.108521 92.813575 
L 397.527251 95.445175 
L 400.94598 99.480704 
L 404.36471 101.726456 
L 407.783439 104.918911 
L 411.202169 109.040564 
L 414.620898 114.409204 
L 418.039627 116.898491 
L 421.458357 121.352675 
L 424.877086 125.306446 
L 428.295816 129.378169 
L 431.714545 132.669718 
" style="fill:none;stroke:#d62728;stroke-linecap:square;stroke-width:1.5;"/>
   </g>
   <g id="line2d_20">
    <path clip-path="url(#pcb78a37fe4)" d="M 66.005455 291.54384 
L 69.329219 286.275027 
L 72.747949 287.002865 
L 76.166678 286.938204 
L 79.585408 286.291043 
L 83.004137 287.44574 
L 86.422867 289.076668 
L 89.841596 288.368497 
L 93.260326 287.044071 
L 96.679055 286.53232 
L 100.097785 287.68381 
L 103.516514 289.64845 
L 106.935244 287.365127 
L 110.353973 289.431564 
L 113.772703 286.550759 
L 117.191432 288.470289 
L 120.610162 287.203647 
L 124.028891 289.663255 
L 127.447621 288.400386 
L 130.86635 288.7848 
L 134.28508 289.931675 
L 137.703809 288.926638 
L 141.122539 287.337347 
L 144.541268 289.677473 
L 147.959998 287.147672 
L 151.378727 288.350874 
L 154.797457 288.594089 
L 158.216186 285.920143 
L 161.634916 288.02229 
L 165.053645 286.878243 
L 168.472375 284.213132 
L 171.891104 287.778418 
L 175.309834 285.26738 
L 178.728563 283.601363 
L 182.147293 283.289428 
L 185.566022 284.504385 
L 188.984752 281.957933 
L 192.403481 282.448284 
L 195.822211 280.36368 
L 199.24094 279.598168 
L 202.65967 278.60135 
L 206.078399 274.579487 
L 209.497128 273.629358 
L 212.915858 269.004619 
L 216.334587 261.917312 
L 219.753317 256.670282 
L 223.172046 252.672098 
L 226.590776 244.811591 
L 230.009505 237.058699 
L 233.428235 229.866764 
L 236.846964 223.58521 
L 240.265694 216.98061 
L 243.684423 208.491122 
L 247.103153 200.432749 
L 250.521882 190.863972 
L 253.940612 182.325166 
L 257.359341 173.692582 
L 260.778071 165.204295 
L 264.1968 157.070702 
L 267.61553 148.685173 
L 271.034259 140.095658 
L 274.452989 130.754742 
L 277.871718 123.32899 
L 281.290448 113.30466 
L 284.709177 105.86067 
L 288.127907 96.487074 
L 291.546636 88.152949 
L 294.965366 79.51174 
L 298.384095 73.702269 
L 301.802825 68.589084 
L 305.221554 61.97633 
L 308.640284 58.354714 
L 312.059013 54.519846 
L 315.477743 53.541232 
L 318.896472 50.932304 
L 322.315202 49.62064 
L 325.733931 49.757744 
L 329.152661 51.734381 
L 332.57139 51.406291 
L 335.99012 54.43986 
L 339.408849 56.612629 
L 342.827579 59.464421 
L 346.246308 63.469768 
L 349.665038 67.71775 
L 353.083767 70.936017 
L 356.502497 75.709354 
L 359.921226 80.198362 
L 363.339956 85.051552 
L 366.758685 89.92103 
L 370.177415 93.669 
L 373.596144 95.962215 
L 377.014874 102.073174 
L 380.433603 108.027362 
L 383.852333 110.738308 
L 387.271062 114.546147 
L 390.689792 118.245213 
L 394.108521 123.258526 
L 397.527251 126.789114 
L 400.94598 129.682875 
L 404.36471 131.341042 
L 407.783439 133.752543 
L 411.202169 135.65263 
L 414.620898 138.776582 
L 418.039627 140.758122 
L 421.458357 140.792131 
L 424.877086 142.325467 
L 428.295816 142.24814 
L 431.714545 142.010332 
" style="fill:none;stroke:#9467bd;stroke-linecap:square;stroke-width:1.5;"/>
   </g>
   <g id="line2d_21">
    <path clip-path="url(#pcb78a37fe4)" d="M 66.005455 288.877417 
L 69.329219 287.701717 
L 72.747949 288.242597 
L 76.166678 288.486505 
L 79.585408 288.553767 
L 83.004137 289.250321 
L 86.422867 290.212962 
L 89.841596 290.30379 
L 93.260326 289.111994 
L 96.679055 289.065015 
L 100.097785 289.887274 
L 103.516514 291.185443 
L 106.935244 289.602543 
L 110.353973 290.573141 
L 113.772703 288.888199 
L 117.191432 290.324755 
L 120.610162 289.632064 
L 124.028891 290.38581 
L 127.447621 289.854146 
L 130.86635 289.759567 
L 134.28508 289.914299 
L 137.703809 289.135959 
L 141.122539 287.892409 
L 144.541268 289.719976 
L 147.959998 288.040407 
L 151.378727 288.393028 
L 154.797457 287.956857 
L 158.216186 286.007427 
L 161.634916 287.336256 
L 165.053645 286.456505 
L 168.472375 284.341391 
L 171.891104 286.615828 
L 175.309834 284.375741 
L 178.728563 283.506935 
L 182.147293 282.999017 
L 185.566022 283.480827 
L 188.984752 281.651126 
L 192.403481 281.489758 
L 195.822211 280.167764 
L 199.24094 278.975686 
L 202.65967 277.663313 
L 206.078399 273.386761 
L 209.497128 270.53135 
L 212.915858 264.824108 
L 216.334587 257.973663 
L 219.753317 250.603758 
L 223.172046 244.212588 
L 226.590776 235.854426 
L 230.009505 226.43549 
L 233.428235 218.00693 
L 236.846964 209.98267 
L 240.265694 201.610056 
L 243.684423 192.397994 
L 247.103153 184.540153 
L 250.521882 175.93279 
L 253.940612 168.430782 
L 257.359341 160.647471 
L 260.778071 152.938947 
L 264.1968 145.61792 
L 267.61553 138.683968 
L 271.034259 131.722258 
L 274.452989 124.861348 
L 277.871718 119.194787 
L 281.290448 112.479632 
L 284.709177 107.024314 
L 288.127907 101.225409 
L 291.546636 95.554944 
L 294.965366 89.701816 
L 298.384095 85.393237 
L 301.802825 81.666407 
L 305.221554 75.905089 
L 308.640284 72.921863 
L 312.059013 68.583432 
L 315.477743 65.704918 
L 318.896472 61.833302 
L 322.315202 58.989053 
L 325.733931 56.369399 
L 329.152661 55.280292 
L 332.57139 53.00305 
L 335.99012 52.378067 
L 339.408849 50.652478 
L 342.827579 50.369695 
L 346.246308 49.654656 
L 349.665038 50.085038 
L 353.083767 49.62064 
L 356.502497 50.430048 
L 359.921226 51.569674 
L 363.339956 52.81039 
L 366.758685 55.50162 
L 370.177415 56.746322 
L 373.596144 59.130569 
L 377.014874 63.490904 
L 380.433603 68.597342 
L 383.852333 72.190383 
L 387.271062 76.848687 
L 390.689792 81.9193 
L 394.108521 88.483473 
L 397.527251 93.091478 
L 400.94598 98.176137 
L 404.36471 102.710301 
L 407.783439 108.095988 
L 411.202169 112.787859 
L 414.620898 118.750202 
L 418.039627 123.733903 
L 421.458357 127.586237 
L 424.877086 131.819815 
L 428.295816 136.41105 
L 431.714545 140.0968 
" style="fill:none;stroke:#8c564b;stroke-linecap:square;stroke-width:1.5;"/>
   </g>
   <g id="patch_3">
    <path d="M 47.72 303.64 
L 47.72 37.52448 
" style="fill:none;stroke:#000000;stroke-linecap:square;stroke-linejoin:miter;stroke-width:0.8;"/>
   </g>
   <g id="patch_4">
    <path d="M 47.72 303.64 
L 450 303.64 
" style="fill:none;stroke:#000000;stroke-linecap:square;stroke-linejoin:miter;stroke-width:0.8;"/>
   </g>
   <g id="text_18">
    <!-- Growth pattern -->
    <g transform="translate(203.193437 20.879859)scale(0.12 -0.12)">
     <defs>
      <path d="M 3809 666 
L 3809 1919 
L 2778 1919 
L 2778 2438 
L 4434 2438 
L 4434 434 
Q 4069 175 3628 42 
Q 3188 -91 2688 -91 
Q 1594 -91 976 548 
Q 359 1188 359 2328 
Q 359 3472 976 4111 
Q 1594 4750 2688 4750 
Q 3144 4750 3555 4637 
Q 3966 4525 4313 4306 
L 4313 3634 
Q 3963 3931 3569 4081 
Q 3175 4231 2741 4231 
Q 1884 4231 1454 3753 
Q 1025 3275 1025 2328 
Q 1025 1384 1454 906 
Q 1884 428 2741 428 
Q 3075 428 3337 486 
Q 3600 544 3809 666 
z
" id="DejaVuSans-47" transform="scale(0.015625)"/>
      <path d="M 1959 3097 
Q 1497 3097 1228 2736 
Q 959 2375 959 1747 
Q 959 1119 1226 758 
Q 1494 397 1959 397 
Q 2419 397 2687 759 
Q 2956 1122 2956 1747 
Q 2956 2369 2687 2733 
Q 2419 3097 1959 3097 
z
M 1959 3584 
Q 2709 3584 3137 3096 
Q 3566 2609 3566 1747 
Q 3566 888 3137 398 
Q 2709 -91 1959 -91 
Q 1206 -91 779 398 
Q 353 888 353 1747 
Q 353 2609 779 3096 
Q 1206 3584 1959 3584 
z
" id="DejaVuSans-6f" transform="scale(0.015625)"/>
      <path d="M 269 3500 
L 844 3500 
L 1563 769 
L 2278 3500 
L 2956 3500 
L 3675 769 
L 4391 3500 
L 4966 3500 
L 4050 0 
L 3372 0 
L 2619 2869 
L 1863 0 
L 1184 0 
L 269 3500 
z
" id="DejaVuSans-77" transform="scale(0.015625)"/>
      <path d="M 1159 525 
L 1159 -1331 
L 581 -1331 
L 581 3500 
L 1159 3500 
L 1159 2969 
Q 1341 3281 1617 3432 
Q 1894 3584 2278 3584 
Q 2916 3584 3314 3078 
Q 3713 2572 3713 1747 
Q 3713 922 3314 415 
Q 2916 -91 2278 -91 
Q 1894 -91 1617 61 
Q 1341 213 1159 525 
z
M 3116 1747 
Q 3116 2381 2855 2742 
Q 2594 3103 2138 3103 
Q 1681 3103 1420 2742 
Q 1159 2381 1159 1747 
Q 1159 1113 1420 752 
Q 1681 391 2138 391 
Q 2594 391 2855 752 
Q 3116 1113 3116 1747 
z
" id="DejaVuSans-70" transform="scale(0.015625)"/>
      <path d="M 2194 1759 
Q 1497 1759 1228 1600 
Q 959 1441 959 1056 
Q 959 750 1161 570 
Q 1363 391 1709 391 
Q 2188 391 2477 730 
Q 2766 1069 2766 1631 
L 2766 1759 
L 2194 1759 
z
M 3341 1997 
L 3341 0 
L 2766 0 
L 2766 531 
Q 2569 213 2275 61 
Q 1981 -91 1556 -91 
Q 1019 -91 701 211 
Q 384 513 384 1019 
Q 384 1609 779 1909 
Q 1175 2209 1959 2209 
L 2766 2209 
L 2766 2266 
Q 2766 2663 2505 2880 
Q 2244 3097 1772 3097 
Q 1472 3097 1187 3025 
Q 903 2953 641 2809 
L 641 3341 
Q 956 3463 1253 3523 
Q 1550 3584 1831 3584 
Q 2591 3584 2966 3190 
Q 3341 2797 3341 1997 
z
" id="DejaVuSans-61" transform="scale(0.015625)"/>
     </defs>
     <use xlink:href="#DejaVuSans-47"/>
     <use x="77.490234" xlink:href="#DejaVuSans-72"/>
     <use x="116.353516" xlink:href="#DejaVuSans-6f"/>
     <use x="177.535156" xlink:href="#DejaVuSans-77"/>
     <use x="259.322266" xlink:href="#DejaVuSans-74"/>
     <use x="298.53125" xlink:href="#DejaVuSans-68"/>
     <use x="361.910156" xlink:href="#DejaVuSans-20"/>
     <use x="393.697266" xlink:href="#DejaVuSans-70"/>
     <use x="457.173828" xlink:href="#DejaVuSans-61"/>
     <use x="518.453125" xlink:href="#DejaVuSans-74"/>
     <use x="557.662109" xlink:href="#DejaVuSans-74"/>
     <use x="596.871094" xlink:href="#DejaVuSans-65"/>
     <use x="658.394531" xlink:href="#DejaVuSans-72"/>
     <use x="697.757812" xlink:href="#DejaVuSans-6e"/>
    </g>
   </g>
   <g id="legend_1">
    <g id="patch_5">
     <path d="M 53.32 79.81948 
L 221.245 79.81948 
Q 222.845 79.81948 222.845 78.21948 
L 222.845 43.12448 
Q 222.845 41.52448 221.245 41.52448 
L 53.32 41.52448 
Q 51.72 41.52448 51.72 43.12448 
L 51.72 78.21948 
Q 51.72 79.81948 53.32 79.81948 
z
" style="fill:#ffffff;opacity:0.3;stroke:#cccccc;stroke-linejoin:miter;"/>
    </g>
    <g id="line2d_22">
     <path d="M 54.92 48.00323 
L 70.92 48.00323 
" style="fill:none;stroke:#1f77b4;stroke-linecap:square;stroke-width:1.5;"/>
    </g>
    <g id="line2d_23"/>
    <g id="text_19">
     <!-- M145Δgbn_1 -->
     <g transform="translate(77.32 50.80323)scale(0.08 -0.08)">
      <defs>
       <path d="M 628 4666 
L 1569 4666 
L 2759 1491 
L 3956 4666 
L 4897 4666 
L 4897 0 
L 4281 0 
L 4281 4097 
L 3078 897 
L 2444 897 
L 1241 4097 
L 1241 0 
L 628 0 
L 628 4666 
z
" id="DejaVuSans-4d" transform="scale(0.015625)"/>
       <path d="M 691 4666 
L 3169 4666 
L 3169 4134 
L 1269 4134 
L 1269 2991 
Q 1406 3038 1543 3061 
Q 1681 3084 1819 3084 
Q 2600 3084 3056 2656 
Q 3513 2228 3513 1497 
Q 3513 744 3044 326 
Q 2575 -91 1722 -91 
Q 1428 -91 1123 -41 
Q 819 9 494 109 
L 494 744 
Q 775 591 1075 516 
Q 1375 441 1709 441 
Q 2250 441 2565 725 
Q 2881 1009 2881 1497 
Q 2881 1984 2565 2268 
Q 2250 2553 1709 2553 
Q 1456 2553 1204 2497 
Q 953 2441 691 2322 
L 691 4666 
z
" id="DejaVuSans-35" transform="scale(0.015625)"/>
       <path d="M 2188 4044 
L 906 525 
L 3472 525 
L 2188 4044 
z
M 50 0 
L 1831 4666 
L 2547 4666 
L 4325 0 
L 50 0 
z
" id="DejaVuSans-394" transform="scale(0.015625)"/>
       <path d="M 3263 -1063 
L 3263 -1509 
L -63 -1509 
L -63 -1063 
L 3263 -1063 
z
" id="DejaVuSans-5f" transform="scale(0.015625)"/>
      </defs>
      <use xlink:href="#DejaVuSans-4d"/>
      <use x="86.279297" xlink:href="#DejaVuSans-31"/>
      <use x="149.902344" xlink:href="#DejaVuSans-34"/>
      <use x="213.525391" xlink:href="#DejaVuSans-35"/>
      <use x="277.148438" xlink:href="#DejaVuSans-394"/>
      <use x="345.556641" xlink:href="#DejaVuSans-67"/>
      <use x="409.033203" xlink:href="#DejaVuSans-62"/>
      <use x="472.509766" xlink:href="#DejaVuSans-6e"/>
      <use x="535.888672" xlink:href="#DejaVuSans-5f"/>
      <use x="585.888672" xlink:href="#DejaVuSans-31"/>
     </g>
    </g>
    <g id="line2d_24">
     <path d="M 54.92 59.96823 
L 70.92 59.96823 
" style="fill:none;stroke:#ff7f0e;stroke-linecap:square;stroke-width:1.5;"/>
    </g>
    <g id="line2d_25"/>
    <g id="text_20">
     <!-- M145_1 -->
     <g transform="translate(77.32 62.76823)scale(0.08 -0.08)">
      <use xlink:href="#DejaVuSans-4d"/>
      <use x="86.279297" xlink:href="#DejaVuSans-31"/>
      <use x="149.902344" xlink:href="#DejaVuSans-34"/>
      <use x="213.525391" xlink:href="#DejaVuSans-35"/>
      <use x="277.148438" xlink:href="#DejaVuSans-5f"/>
      <use x="327.148438" xlink:href="#DejaVuSans-31"/>
     </g>
    </g>
    <g id="line2d_26">
     <path d="M 54.92 71.93323 
L 70.92 71.93323 
" style="fill:none;stroke:#2ca02c;stroke-linecap:square;stroke-width:1.5;"/>
    </g>
    <g id="line2d_27"/>
    <g id="text_21">
     <!-- M145Δgbn_2 -->
     <g transform="translate(77.32 74.73323)scale(0.08 -0.08)">
      <use xlink:href="#DejaVuSans-4d"/>
      <use x="86.279297" xlink:href="#DejaVuSans-31"/>
      <use x="149.902344" xlink:href="#DejaVuSans-34"/>
      <use x="213.525391" xlink:href="#DejaVuSans-35"/>
      <use x="277.148438" xlink:href="#DejaVuSans-394"/>
      <use x="345.556641" xlink:href="#DejaVuSans-67"/>
      <use x="409.033203" xlink:href="#DejaVuSans-62"/>
      <use x="472.509766" xlink:href="#DejaVuSans-6e"/>
      <use x="535.888672" xlink:href="#DejaVuSans-5f"/>
      <use x="585.888672" xlink:href="#DejaVuSans-32"/>
     </g>
    </g>
    <g id="line2d_28">
     <path d="M 145.2825 48.00323 
L 161.2825 48.00323 
" style="fill:none;stroke:#d62728;stroke-linecap:square;stroke-width:1.5;"/>
    </g>
    <g id="line2d_29"/>
    <g id="text_22">
     <!-- M145_2 -->
     <g transform="translate(167.6825 50.80323)scale(0.08 -0.08)">
      <use xlink:href="#DejaVuSans-4d"/>
      <use x="86.279297" xlink:href="#DejaVuSans-31"/>
      <use x="149.902344" xlink:href="#DejaVuSans-34"/>
      <use x="213.525391" xlink:href="#DejaVuSans-35"/>
      <use x="277.148438" xlink:href="#DejaVuSans-5f"/>
      <use x="327.148438" xlink:href="#DejaVuSans-32"/>
     </g>
    </g>
    <g id="line2d_30">
     <path d="M 145.2825 59.96823 
L 161.2825 59.96823 
" style="fill:none;stroke:#9467bd;stroke-linecap:square;stroke-width:1.5;"/>
    </g>
    <g id="line2d_31"/>
    <g id="text_23">
     <!-- M145Δgbn_3 -->
     <g transform="translate(167.6825 62.76823)scale(0.08 -0.08)">
      <use xlink:href="#DejaVuSans-4d"/>
      <use x="86.279297" xlink:href="#DejaVuSans-31"/>
      <use x="149.902344" xlink:href="#DejaVuSans-34"/>
      <use x="213.525391" xlink:href="#DejaVuSans-35"/>
      <use x="277.148438" xlink:href="#DejaVuSans-394"/>
      <use x="345.556641" xlink:href="#DejaVuSans-67"/>
      <use x="409.033203" xlink:href="#DejaVuSans-62"/>
      <use x="472.509766" xlink:href="#DejaVuSans-6e"/>
      <use x="535.888672" xlink:href="#DejaVuSans-5f"/>
      <use x="585.888672" xlink:href="#DejaVuSans-33"/>
     </g>
    </g>
    <g id="line2d_32">
     <path d="M 145.2825 71.93323 
L 161.2825 71.93323 
" style="fill:none;stroke:#8c564b;stroke-linecap:square;stroke-width:1.5;"/>
    </g>
    <g id="line2d_33"/>
    <g id="text_24">
     <!-- M145_3 -->
     <g transform="translate(167.6825 74.73323)scale(0.08 -0.08)">
      <use xlink:href="#DejaVuSans-4d"/>
      <use x="86.279297" xlink:href="#DejaVuSans-31"/>
      <use x="149.902344" xlink:href="#DejaVuSans-34"/>
      <use x="213.525391" xlink:href="#DejaVuSans-35"/>
      <use x="277.148438" xlink:href="#DejaVuSans-5f"/>
      <use x="327.148438" xlink:href="#DejaVuSans-33"/>
     </g>
    </g>
   </g>
  </g>
 </g>
 <defs>
  <clipPath id="pcb78a37fe4">
   <rect height="266.11552" width="402.28" x="47.72" y="37.52448"/>
  </clipPath>
 </defs>
</svg>
