<?xml version="1.0" encoding="UTF-8" standalone="no"?>
<svg
   height="345.6pt"
   version="1.1"
   viewBox="0 0 460.8 345.6"
   width="460.8pt"
   id="svg2908"
   sodipodi:docname="result_2021.05.24-21.29.07.svg"
   inkscape:version="1.1-alpha (17bc9184, 2021-03-28)"
   xmlns:inkscape="http://www.inkscape.org/namespaces/inkscape"
   xmlns:sodipodi="http://sodipodi.sourceforge.net/DTD/sodipodi-0.dtd"
   xmlns:xlink="http://www.w3.org/1999/xlink"
   xmlns="http://www.w3.org/2000/svg"
   xmlns:svg="http://www.w3.org/2000/svg"
   xmlns:rdf="http://www.w3.org/1999/02/22-rdf-syntax-ns#"
   xmlns:cc="http://creativecommons.org/ns#"
   xmlns:dc="http://purl.org/dc/elements/1.1/">
  <sodipodi:namedview
     id="namedview2910"
     pagecolor="#ffffff"
     bordercolor="#666666"
     borderopacity="1.0"
     objecttolerance="10.0"
     gridtolerance="10.0"
     guidetolerance="10.0"
     inkscape:pageshadow="2"
     inkscape:pageopacity="0.0"
     inkscape:pagecheckerboard="0"
     inkscape:document-units="pt"
     showgrid="false"
     inkscape:snap-nodes="false"
     inkscape:zoom="1.023763"
     inkscape:cx="307.19999"
     inkscape:cy="230.0337"
     inkscape:current-layer="svg2908" />
  <metadata
     id="metadata2444">
    <rdf:RDF>
      <cc:Work>
        <dc:type
           rdf:resource="http://purl.org/dc/dcmitype/StillImage" />
        <dc:date>2021-05-24T21:29:08.164005</dc:date>
        <dc:format>image/svg+xml</dc:format>
        <dc:creator>
          <cc:Agent>
            <dc:title>Matplotlib v3.4.1, https://matplotlib.org/</dc:title>
          </cc:Agent>
        </dc:creator>
      </cc:Work>
    </rdf:RDF>
  </metadata>
  <defs
     id="defs2448">
    <style
       type="text/css"
       id="style2446">*{stroke-linecap:butt;stroke-linejoin:round;}</style>
  </defs>
  <path
     d="M 0,345.6 H 460.8 V 0 H 0 Z"
     style="fill:#ffffff"
     id="path2450" />
  <g
     id="patch_2">
    <path
       d="M 47.72,303.64 H 450 V 37.52448 H 47.72 Z"
       style="fill:#ffffff"
       id="path2453" />
  </g>
  <g
     id="PolyCollection_1">
    <path
       clip-path="url(#pefaf1b6ae4)"
       d="m 66.005455,290.91872 v -1.97136 l 3.323764,-1.70647 3.41873,0.4833 3.418729,-0.0641 3.41873,-0.31438 3.418729,0.74669 3.41873,1.3776 3.418729,-0.61563 3.41873,-1.5119 3.418729,0.0267 3.418735,0.74716 3.41872,0.98239 3.41873,-1.53421 3.41873,1.71148 3.41873,-2.2148 3.41873,0.6516 3.41873,-0.60376 3.41873,1.71318 3.41873,-1.55142 3.41873,0.1563 3.41873,0.58523 3.41873,-0.72955 3.41873,-1.2476 3.41873,1.85149 3.41873,-2.40809 3.41873,1.88197 3.41873,-0.83412 3.41873,-1.19226 3.41873,1.08046 3.41872,-0.68118 3.41873,-1.81854 3.41873,0.8233 3.41873,-0.0337 3.41873,-1.03626 3.41873,-0.75769 3.41873,0.2606 3.41873,-2.16665 3.41873,-0.56517 3.41873,-2.06806 3.41873,-1.52573 3.41873,-1.16418 3.41873,-5.46067 3.41873,-1.25845 3.41873,-6.37055 3.41873,-5.84292 3.41873,-6.35363 3.41873,-5.11156 3.41873,-7.44572 3.41872,-7.91894 3.41873,-7.60799 3.41873,-7.49202 3.41873,-7.31964 3.41873,-8.78556 3.41873,-7.92638 3.41873,-10.0553 3.41873,-8.37831 3.41873,-8.65051 3.41873,-8.55288 3.41873,-7.48684 3.41873,-9.21966 3.41873,-8.62315 3.41873,-8.92719 3.41873,-7.809 3.41873,-9.00476 3.41873,-7.533593 3.41873,-7.873663 3.41873,-7.940377 3.41873,-7.345273 3.41872,-5.276374 3.41873,-4.968261 3.41873,-5.485265 3.41873,-3.237118 3.41873,-2.572667 3.41873,-0.679364 3.41873,-1.007275 3.41873,-0.526982 3.41873,0.05348 3.41873,1.664416 3.41873,0.06162 3.41873,3.361421 3.41873,2.079003 3.41873,3.197321 3.41873,3.813381 3.41873,4.647543 3.41873,3.441549 3.41873,4.948134 3.41873,4.586138 3.41873,4.846603 3.41873,4.984728 3.41872,3.595483 3.41873,2.700364 3.41873,5.603848 3.41873,5.33725 3.41873,2.6947 3.41873,3.4029 3.41873,3.49365 3.41873,3.72511 3.41873,2.72093 3.41873,2.97394 3.41873,1.77426 3.41873,2.03315 3.41873,1.58564 3.41873,3.11321 3.41873,0.76216 3.41873,1.46744 3.41873,0.38962 3.41873,0.31875 3.41872,0.20448 v 4.38728 0 l -3.41872,-0.0504 -3.41873,-0.46082 -3.41873,-1.30265 -3.41873,-0.74201 -3.41873,-1.20011 -3.41873,-3.19845 -3.41873,-1.98205 -3.41873,-2.04721 -3.41873,-1.9049 -3.41873,-3.18744 -3.41873,-3.53831 -3.41873,-4.23686 -3.41873,-3.56529 -3.41873,-3.44035 -3.41873,-2.77647 -3.41873,-4.58018 -3.41873,-4.60555 -3.41873,-3.295113 -3.41872,-2.890805 -3.41873,-4.972581 -3.41873,-4.435686 -3.41873,-4.62414 -3.41873,-5.299731 -3.41873,-3.719401 -3.41873,-5.003205 -3.41873,-4.041758 -3.41873,-3.841376 -3.41873,-1.952068 -3.41873,-3.432277 -3.41873,-1.226675 -3.41873,-1.684286 -3.41873,-0.437691 -3.41873,1.579587 -3.41873,2.511005 -3.41873,1.557264 -3.41873,3.74672 -3.41873,4.340676 -3.41873,5.616465 -3.41873,5.369133 -3.41872,5.403599 -3.41873,8.138224 -3.41873,7.98661 -3.41873,8.66362 -3.41873,7.79653 -3.41873,9.45065 -3.41873,7.58372 -3.41873,9.2113 -3.41873,8.55642 -3.41873,8.55085 -3.41873,7.77831 -3.41873,8.6697 -3.41873,8.22195 -3.41873,8.18067 -3.41873,9.35484 -3.41873,8.07869 -3.41873,8.26188 -3.41873,6.97905 -3.41873,6.85629 -3.41873,7.09648 -3.41872,7.6257 -3.41873,7.78604 -3.41873,4.38928 -3.41873,5.64473 -3.41873,6.44082 -3.41873,5.00669 -3.41873,1.28643 -3.41873,4.31976 -3.41873,1.20236 -3.41873,1.05793 -3.41873,1.82313 -3.41873,-0.0267 -3.41873,2.44877 -3.41873,-0.85759 -3.41873,0.2542 -3.41873,1.52681 -3.41873,1.84555 -3.41873,-2.7977 -3.41873,2.60804 -3.41872,0.73781 -3.41873,-1.70308 -3.41873,2.08234 -3.41873,0.16242 -3.41873,-1.10641 -3.41873,2.2695 -3.41873,-1.98852 -3.41873,1.10973 -3.41873,0.91563 -3.41873,-0.88217 -3.41873,-0.38256 -3.41873,1.35454 -3.41873,-1.62147 -3.41873,0.58739 -3.41873,-1.20365 -3.41873,2.27583 -3.41873,-1.06162 -3.41873,1.10552 -3.41872,-1.35011 -3.418735,-0.005 -3.418729,-0.4148 -3.41873,1.2212 -3.418729,0.5883 -3.41873,-1.02809 -3.418729,0.20214 -3.41873,-0.39357 -3.418729,-0.0606 -3.41873,0.0114 z"
       style="fill:#1f77b4;fill-opacity:0.3"
       id="path2456" />
  </g>
  <g
     id="PolyCollection_2">
    <path
       clip-path="url(#pefaf1b6ae4)"
       d="m 66.005455,289.23239 v -0.74287 l 3.323764,-0.43457 3.41873,0.54168 3.418729,0.24427 3.41873,0.0674 3.418729,0.69759 3.41873,0.96407 3.418729,0.091 3.41873,-1.19357 3.418729,-0.047 3.418735,0.82347 3.41872,1.16486 3.41873,-1.45001 3.41873,0.97204 3.41873,-1.68744 3.41873,0.92106 3.41873,-0.17697 3.41873,0.75574 3.41873,-0.53245 3.41873,-0.0947 3.41873,0.13566 3.41873,-0.7602 3.41873,-1.40144 3.41873,1.4203 3.41873,-2.22544 3.41873,1.24272 3.41873,-1.13261 3.41873,-1.0367 3.41873,0.98168 3.41872,-0.9759 3.41873,-1.67429 3.41873,0.38419 3.41873,-0.34978 3.41873,-0.8701 3.41873,-0.50867 3.41873,0.3295 3.41873,-1.67939 3.41873,-0.39025 3.41873,-1.41017 3.41873,-1.6518 3.41873,-1.14654 3.41873,-5.54085 3.41873,-1.74899 3.41873,-6.63218 3.41873,-5.56538 3.41873,-7.00728 3.41873,-6.40065 3.41873,-8.37056 3.41872,-9.43291 3.41873,-8.44106 3.41873,-8.03617 3.41873,-8.38504 3.41873,-9.22573 3.41873,-7.86949 3.41873,-8.62014 3.41873,-7.51314 3.41873,-7.79485 3.41873,-7.71997 3.41873,-7.33188 3.41873,-6.94424 3.41873,-6.97204 3.41873,-6.87109 3.41873,-5.67497 3.41873,-6.72512 3.41873,-5.46341 3.41873,-5.80751 3.41873,-5.678876 3.41873,-5.861811 3.41872,-4.314972 3.41873,-3.732359 3.41873,-5.769866 3.41873,-2.987653 3.41873,-4.344867 3.41873,-2.882785 3.41873,-3.87736 3.41873,-2.848469 3.41873,-2.62354 3.41873,-1.090723 3.41873,-2.28062 3.41873,-0.625911 3.41873,-1.728149 3.41873,-0.283202 3.41873,-0.7161 3.41873,0.43102 3.41873,-0.465087 3.41873,0.471104 3.41873,-0.271248 3.41873,-0.199856 3.41873,0.834767 3.41872,0.110443 3.41873,2.072285 3.41873,3.476702 3.41873,3.949174 3.41873,2.918057 3.41873,4.142029 3.41873,4.815264 3.41873,5.259659 3.41873,4.816327 3.41873,5.950376 3.41873,5.773265 3.41873,5.652124 3.41873,5.234428 3.41873,6.26946 3.41873,4.64898 3.41873,5.11142 3.41873,4.40332 3.41873,4.62816 3.41872,4.13352 v 6.41063 0 l -3.41872,-3.69121 -3.41873,-4.59805 -3.41873,-4.23986 -3.41873,-3.85805 -3.41873,-4.99109 -3.41873,-5.97119 -3.41873,-4.69884 -3.41873,-5.39367 -3.41873,-4.540894 -3.41873,-5.092203 -3.41873,-4.614841 -3.41873,-6.573912 -3.41873,-5.078136 -3.41873,-4.665216 -3.41873,-3.598371 -3.41873,-5.114014 -3.41873,-4.366804 -3.41873,-2.387785 -3.41872,-1.246548 -3.41873,-2.695224 -3.41873,-1.242556 -3.41873,-1.141317 -3.41873,-0.304857 -3.41873,1.552496 -3.41873,0.22701 -3.41873,1.448922 -3.41873,0.795302 -3.41873,2.762456 -3.41873,1.359644 -3.41873,1.652037 -3.41873,1.700393 -3.41873,2.25861 -3.41873,2.081084 -3.41873,2.725659 -3.41873,2.06216 -3.41873,3.354761 -3.41873,3.336986 -3.41873,4.320831 -3.41873,4.090844 -3.41872,4.154633 -3.41873,5.691288 -3.41873,6.165262 -3.41873,6.04191 -3.41873,5.41934 -3.41873,6.9688 -3.41873,6.73469 -3.41873,7.40804 -3.41873,7.31958 -3.41873,7.89913 -3.41873,6.96388 -3.41873,7.90016 -3.41873,8.72465 -3.41873,8.00018 -3.41873,9.83943 -3.41873,7.7649 -3.41873,8.0121 -3.41873,6.17578 -3.41873,10.2171 -3.41873,8.73576 -3.41872,7.76472 -3.41873,6.80598 -3.41873,5.09549 -3.41873,6.62439 -3.41873,6.86061 -3.41873,5.71571 -3.41873,2.85965 -3.41873,4.2829 -3.41873,1.31432 -3.41873,1.19384 -3.41873,1.32396 -3.41873,0.18107 -3.41873,1.81295 -3.41873,-0.046 -3.41873,1.28944 -3.41873,0.0318 -3.41873,1.86449 -3.41873,-2.00343 -3.41873,1.84388 -3.41872,0.88105 -3.41873,-1.29244 -3.41873,1.91396 -3.41873,0.43682 -3.41873,-0.35314 -3.41873,1.68206 -3.41873,-1.83028 -3.41873,1.55319 -3.41873,0.4717 -3.41873,0.17029 -3.41873,0.0658 -3.41873,0.81985 -3.41873,-1.33858 -3.41873,0.69371 -3.41873,-0.59007 -3.41873,1.38387 -3.41873,-1.26775 -3.41873,1.33592 -3.41872,-0.89614 -3.418735,-0.11142 -3.418729,-0.91033 -3.41873,1.17014 -3.418729,-0.19162 -3.41873,-0.82711 -3.418729,-0.008 -3.41873,-0.74229 -3.418729,-0.0973 -3.41873,-0.46589 z"
       style="fill:#ff7f0e;fill-opacity:0.3"
       id="path2459" />
  </g>
  <g
     id="matplotlib.axis_1">
    <g
       id="xtick_1">
      <g
         id="line2d_1">
        <defs
           id="defs2463">
          <path
             d="M 0,0 V 3.5"
             id="ma2bbccc351"
             style="stroke:#000000;stroke-width:0.8" />
        </defs>
        <g
           id="g2467">
          <use
             style="stroke:#000000;stroke-width:0.8"
             x="66.005455"
             xlink:href="#ma2bbccc351"
             y="303.64001"
             id="use2465"
             width="100%"
             height="100%" />
        </g>
      </g>
      <g
         id="text_1">
        <!-- 0 -->
        <g
           transform="matrix(0.1,0,0,-0.1,62.824205,318.23844)"
           id="g2475">
          <defs
             id="defs2471">
            <path
               d="m 2034,4250 q -487,0 -733,-480 -245,-479 -245,-1442 0,-959 245,-1439 246,-480 733,-480 491,0 736,480 246,480 246,1439 0,963 -246,1442 -245,480 -736,480 z m 0,500 q 785,0 1199,-621 414,-620 414,-1801 0,-1178 -414,-1799 -414,-620 -1199,-620 -784,0 -1198,620 -414,621 -414,1799 0,1181 414,1801 414,621 1198,621 z"
               id="DejaVuSans-30"
               transform="scale(0.015625)" />
          </defs>
          <use
             xlink:href="#DejaVuSans-30"
             id="use2473"
             x="0"
             y="0"
             width="100%"
             height="100%" />
        </g>
      </g>
    </g>
    <g
       id="xtick_2">
      <g
         id="line2d_2">
        <g
           id="g2481">
          <use
             style="stroke:#000000;stroke-width:0.8"
             x="107.0302"
             xlink:href="#ma2bbccc351"
             y="303.64001"
             id="use2479"
             width="100%"
             height="100%" />
        </g>
      </g>
      <g
         id="text_2">
        <!-- 6 -->
        <g
           transform="matrix(0.1,0,0,-0.1,103.84896,318.23844)"
           id="g2489">
          <defs
             id="defs2485">
            <path
               d="m 2113,2584 q -425,0 -674,-291 -248,-290 -248,-796 0,-503 248,-796 249,-292 674,-292 425,0 673,292 248,293 248,796 0,506 -248,796 -248,291 -673,291 z m 1253,1979 v -575 q -238,112 -480,171 -242,60 -480,60 -625,0 -955,-422 -329,-422 -376,-1275 184,272 462,417 279,145 613,145 703,0 1111,-427 408,-426 408,-1160 0,-719 -425,-1154 -425,-434 -1131,-434 -810,0 -1238,620 -428,621 -428,1799 0,1106 525,1764 525,658 1409,658 238,0 480,-47 242,-47 505,-140 z"
               id="DejaVuSans-36"
               transform="scale(0.015625)" />
          </defs>
          <use
             xlink:href="#DejaVuSans-36"
             id="use2487"
             x="0"
             y="0"
             width="100%"
             height="100%" />
        </g>
      </g>
    </g>
    <g
       id="xtick_3">
      <g
         id="line2d_3">
        <g
           id="g2495">
          <use
             style="stroke:#000000;stroke-width:0.8"
             x="148.05496"
             xlink:href="#ma2bbccc351"
             y="303.64001"
             id="use2493"
             width="100%"
             height="100%" />
        </g>
      </g>
      <g
         id="text_3">
        <!-- 12 -->
        <g
           transform="matrix(0.1,0,0,-0.1,141.69246,318.23844)"
           id="g2506">
          <defs
             id="defs2500">
            <path
               d="M 794,531 H 1825 V 4091 L 703,3866 v 575 l 1116,225 h 631 V 531 H 3481 V 0 H 794 Z"
               id="DejaVuSans-31"
               transform="scale(0.015625)" />
            <path
               d="M 1228,531 H 3431 V 0 H 469 v 531 q 359,372 979,998 621,627 780,809 303,340 423,576 121,236 121,464 0,372 -261,606 -261,235 -680,235 -297,0 -627,-103 -329,-103 -704,-313 v 638 q 381,153 712,231 332,78 607,78 725,0 1156,-363 431,-362 431,-968 0,-288 -108,-546 -107,-257 -392,-607 -78,-91 -497,-524 Q 1991,1309 1228,531 Z"
               id="DejaVuSans-32"
               transform="scale(0.015625)" />
          </defs>
          <use
             xlink:href="#DejaVuSans-31"
             id="use2502"
             x="0"
             y="0"
             width="100%"
             height="100%" />
          <use
             x="63.623047"
             xlink:href="#DejaVuSans-32"
             id="use2504"
             y="0"
             width="100%"
             height="100%" />
        </g>
      </g>
    </g>
    <g
       id="xtick_4">
      <g
         id="line2d_4">
        <g
           id="g2512">
          <use
             style="stroke:#000000;stroke-width:0.8"
             x="189.07971"
             xlink:href="#ma2bbccc351"
             y="303.64001"
             id="use2510"
             width="100%"
             height="100%" />
        </g>
      </g>
      <g
         id="text_4">
        <!-- 18 -->
        <g
           transform="matrix(0.1,0,0,-0.1,182.71722,318.23844)"
           id="g2522">
          <defs
             id="defs2516">
            <path
               d="m 2034,2216 q -450,0 -708,-241 -257,-241 -257,-662 0,-422 257,-663 258,-241 708,-241 450,0 709,242 260,243 260,662 0,421 -258,662 -257,241 -711,241 z m -631,268 q -406,100 -633,378 -226,279 -226,679 0,559 398,884 399,325 1092,325 697,0 1094,-325 397,-325 397,-884 0,-400 -227,-679 -226,-278 -629,-378 456,-106 710,-416 255,-309 255,-755 Q 3634,634 3220,271 2806,-91 2034,-91 1263,-91 848,271 434,634 434,1313 q 0,446 256,755 257,310 713,416 z m -231,997 q 0,-362 226,-565 227,-203 636,-203 407,0 636,203 230,203 230,565 0,363 -230,566 -229,203 -636,203 -409,0 -636,-203 -226,-203 -226,-566 z"
               id="DejaVuSans-38"
               transform="scale(0.015625)" />
          </defs>
          <use
             xlink:href="#DejaVuSans-31"
             id="use2518"
             x="0"
             y="0"
             width="100%"
             height="100%" />
          <use
             x="63.623047"
             xlink:href="#DejaVuSans-38"
             id="use2520"
             y="0"
             width="100%"
             height="100%" />
        </g>
      </g>
    </g>
    <g
       id="xtick_5">
      <g
         id="line2d_5">
        <g
           id="g2528">
          <use
             style="stroke:#000000;stroke-width:0.8"
             x="230.10448"
             xlink:href="#ma2bbccc351"
             y="303.64001"
             id="use2526"
             width="100%"
             height="100%" />
        </g>
      </g>
      <g
         id="text_5">
        <!-- 24 -->
        <g
           transform="matrix(0.1,0,0,-0.1,223.74197,318.23844)"
           id="g2538">
          <defs
             id="defs2532">
            <path
               d="M 2419,4116 825,1625 h 1594 z m -166,550 h 794 V 1625 h 666 V 1100 H 3047 V 0 H 2419 V 1100 H 313 v 609 z"
               id="DejaVuSans-34"
               transform="scale(0.015625)" />
          </defs>
          <use
             xlink:href="#DejaVuSans-32"
             id="use2534"
             x="0"
             y="0"
             width="100%"
             height="100%" />
          <use
             x="63.623047"
             xlink:href="#DejaVuSans-34"
             id="use2536"
             y="0"
             width="100%"
             height="100%" />
        </g>
      </g>
    </g>
    <g
       id="xtick_6">
      <g
         id="line2d_6">
        <g
           id="g2544">
          <use
             style="stroke:#000000;stroke-width:0.8"
             x="271.12921"
             xlink:href="#ma2bbccc351"
             y="303.64001"
             id="use2542"
             width="100%"
             height="100%" />
        </g>
      </g>
      <g
         id="text_6">
        <!-- 30 -->
        <g
           transform="matrix(0.1,0,0,-0.1,264.76672,318.23844)"
           id="g2554">
          <defs
             id="defs2548">
            <path
               d="m 2597,2516 q 453,-97 707,-404 255,-306 255,-756 0,-690 -475,-1069 -475,-378 -1350,-378 -293,0 -604,58 -311,58 -642,174 v 609 q 262,-153 574,-231 313,-78 654,-78 593,0 904,234 311,234 311,681 0,413 -289,645 -289,233 -804,233 h -544 v 519 h 569 q 465,0 712,186 247,186 247,536 0,359 -255,551 -254,193 -729,193 -260,0 -557,-57 -297,-56 -653,-174 v 562 q 360,100 674,150 314,50 592,50 719,0 1137,-327 419,-326 419,-882 0,-388 -222,-655 -222,-267 -631,-370 z"
               id="DejaVuSans-33"
               transform="scale(0.015625)" />
          </defs>
          <use
             xlink:href="#DejaVuSans-33"
             id="use2550"
             x="0"
             y="0"
             width="100%"
             height="100%" />
          <use
             x="63.623047"
             xlink:href="#DejaVuSans-30"
             id="use2552"
             y="0"
             width="100%"
             height="100%" />
        </g>
      </g>
    </g>
    <g
       id="xtick_7">
      <g
         id="line2d_7">
        <g
           id="g2560">
          <use
             style="stroke:#000000;stroke-width:0.8"
             x="312.15399"
             xlink:href="#ma2bbccc351"
             y="303.64001"
             id="use2558"
             width="100%"
             height="100%" />
        </g>
      </g>
      <g
         id="text_7">
        <!-- 36 -->
        <g
           transform="matrix(0.1,0,0,-0.1,305.79148,318.23844)"
           id="g2567">
          <use
             xlink:href="#DejaVuSans-33"
             id="use2563"
             x="0"
             y="0"
             width="100%"
             height="100%" />
          <use
             x="63.623047"
             xlink:href="#DejaVuSans-36"
             id="use2565"
             y="0"
             width="100%"
             height="100%" />
        </g>
      </g>
    </g>
    <g
       id="xtick_8">
      <g
         id="line2d_8">
        <g
           id="g2573">
          <use
             style="stroke:#000000;stroke-width:0.8"
             x="353.17874"
             xlink:href="#ma2bbccc351"
             y="303.64001"
             id="use2571"
             width="100%"
             height="100%" />
        </g>
      </g>
      <g
         id="text_8">
        <!-- 42 -->
        <g
           transform="matrix(0.1,0,0,-0.1,346.81623,318.23844)"
           id="g2580">
          <use
             xlink:href="#DejaVuSans-34"
             id="use2576"
             x="0"
             y="0"
             width="100%"
             height="100%" />
          <use
             x="63.623047"
             xlink:href="#DejaVuSans-32"
             id="use2578"
             y="0"
             width="100%"
             height="100%" />
        </g>
      </g>
    </g>
    <g
       id="xtick_9">
      <g
         id="line2d_9">
        <g
           id="g2586">
          <use
             style="stroke:#000000;stroke-width:0.8"
             x="394.20349"
             xlink:href="#ma2bbccc351"
             y="303.64001"
             id="use2584"
             width="100%"
             height="100%" />
        </g>
      </g>
      <g
         id="text_9">
        <!-- 48 -->
        <g
           transform="matrix(0.1,0,0,-0.1,387.84099,318.23844)"
           id="g2593">
          <use
             xlink:href="#DejaVuSans-34"
             id="use2589"
             x="0"
             y="0"
             width="100%"
             height="100%" />
          <use
             x="63.623047"
             xlink:href="#DejaVuSans-38"
             id="use2591"
             y="0"
             width="100%"
             height="100%" />
        </g>
      </g>
    </g>
    <g
       id="text_10">
      <!-- time (h) -->
      <g
         transform="matrix(0.1,0,0,-0.1,228.90453,331.91656)"
         id="g2623">
        <defs
           id="defs2605">
          <path
             d="M 1172,4494 V 3500 H 2356 V 3053 H 1172 V 1153 q 0,-428 117,-550 117,-122 477,-122 h 590 V 0 H 1766 Q 1100,0 847,248 594,497 594,1153 V 3053 H 172 v 447 h 422 v 994 z"
             id="DejaVuSans-74"
             transform="scale(0.015625)" />
          <path
             d="m 603,3500 h 575 V 0 H 603 Z m 0,1363 h 575 V 4134 H 603 Z"
             id="DejaVuSans-69"
             transform="scale(0.015625)" />
          <path
             d="m 3328,2828 q 216,388 516,572 300,184 706,184 547,0 844,-383 297,-382 297,-1088 V 0 h -578 v 2094 q 0,503 -179,746 -178,244 -543,244 -447,0 -707,-297 -259,-296 -259,-809 V 0 h -578 v 2094 q 0,506 -178,748 -178,242 -550,242 -441,0 -701,-298 -259,-298 -259,-808 V 0 H 581 v 3500 h 578 v -544 q 197,322 472,475 275,153 653,153 382,0 649,-194 267,-193 395,-562 z"
             id="DejaVuSans-6d"
             transform="scale(0.015625)" />
          <path
             d="M 3597,1894 V 1613 H 953 q 38,-594 358,-905 320,-311 892,-311 331,0 642,81 311,81 618,244 V 178 Q 3153,47 2828,-22 2503,-91 2169,-91 1331,-91 842,396 353,884 353,1716 q 0,859 464,1363 464,505 1252,505 706,0 1117,-455 411,-454 411,-1235 z m -575,169 q -6,471 -264,752 -258,282 -683,282 -481,0 -770,-272 -289,-272 -333,-766 z"
             id="DejaVuSans-65"
             transform="scale(0.015625)" />
          <path
             id="DejaVuSans-20"
             transform="scale(0.015625)"
             d="" />
          <path
             d="m 1984,4856 q -418,-718 -622,-1422 -203,-703 -203,-1425 0,-721 205,-1429 205,-708 620,-1424 h -500 q -468,735 -701,1444 -233,709 -233,1409 0,697 231,1403 232,707 703,1444 z"
             id="DejaVuSans-28"
             transform="scale(0.015625)" />
          <path
             d="M 3513,2113 V 0 h -575 v 2094 q 0,497 -194,743 -194,247 -581,247 -466,0 -735,-297 -269,-296 -269,-809 V 0 H 581 v 4863 h 578 V 2956 q 207,316 486,472 280,156 646,156 603,0 912,-373 310,-373 310,-1098 z"
             id="DejaVuSans-68"
             transform="scale(0.015625)" />
          <path
             d="m 513,4856 h 500 q 468,-737 701,-1444 233,-706 233,-1403 0,-700 -233,-1409 -233,-709 -701,-1444 H 513 q 415,716 620,1424 205,708 205,1429 0,722 -205,1425 -205,704 -620,1422 z"
             id="DejaVuSans-29"
             transform="scale(0.015625)" />
        </defs>
        <use
           xlink:href="#DejaVuSans-74"
           id="use2607"
           x="0"
           y="0"
           width="100%"
           height="100%" />
        <use
           x="39.208984"
           xlink:href="#DejaVuSans-69"
           id="use2609"
           y="0"
           width="100%"
           height="100%" />
        <use
           x="66.992188"
           xlink:href="#DejaVuSans-6d"
           id="use2611"
           y="0"
           width="100%"
           height="100%" />
        <use
           x="164.4043"
           xlink:href="#DejaVuSans-65"
           id="use2613"
           y="0"
           width="100%"
           height="100%" />
        <use
           x="225.92773"
           xlink:href="#DejaVuSans-20"
           id="use2615"
           y="0"
           width="100%"
           height="100%" />
        <use
           x="257.71484"
           xlink:href="#DejaVuSans-28"
           id="use2617"
           y="0"
           width="100%"
           height="100%" />
        <use
           x="296.72852"
           xlink:href="#DejaVuSans-68"
           id="use2619"
           y="0"
           width="100%"
           height="100%" />
        <use
           x="360.10742"
           xlink:href="#DejaVuSans-29"
           id="use2621"
           y="0"
           width="100%"
           height="100%" />
      </g>
    </g>
  </g>
  <g
     id="matplotlib.axis_2">
    <g
       id="ytick_1">
      <g
         id="line2d_10">
        <defs
           id="defs2628">
          <path
             d="M 0,0 H -3.5"
             id="me63a92a8d2"
             style="stroke:#000000;stroke-width:0.8" />
        </defs>
        <g
           id="g2632">
          <use
             style="stroke:#000000;stroke-width:0.8"
             x="47.720001"
             xlink:href="#me63a92a8d2"
             y="288.62799"
             id="use2630"
             width="100%"
             height="100%" />
        </g>
      </g>
      <g
         id="text_11">
        <!-- 0.0 -->
        <g
           transform="matrix(0.1,0,0,-0.1,24.816875,292.42721)"
           id="g2644">
          <defs
             id="defs2636">
            <path
               d="m 684,794 h 660 V 0 H 684 Z"
               id="DejaVuSans-2e"
               transform="scale(0.015625)" />
          </defs>
          <use
             xlink:href="#DejaVuSans-30"
             id="use2638"
             x="0"
             y="0"
             width="100%"
             height="100%" />
          <use
             x="63.623047"
             xlink:href="#DejaVuSans-2e"
             id="use2640"
             y="0"
             width="100%"
             height="100%" />
          <use
             x="95.410156"
             xlink:href="#DejaVuSans-30"
             id="use2642"
             y="0"
             width="100%"
             height="100%" />
        </g>
      </g>
    </g>
    <g
       id="ytick_2">
      <g
         id="line2d_11">
        <g
           id="g2650">
          <use
             style="stroke:#000000;stroke-width:0.8"
             x="47.720001"
             xlink:href="#me63a92a8d2"
             y="240.82652"
             id="use2648"
             width="100%"
             height="100%" />
        </g>
      </g>
      <g
         id="text_12">
        <!-- 0.2 -->
        <g
           transform="matrix(0.1,0,0,-0.1,24.816875,244.62574)"
           id="g2659">
          <use
             xlink:href="#DejaVuSans-30"
             id="use2653"
             x="0"
             y="0"
             width="100%"
             height="100%" />
          <use
             x="63.623047"
             xlink:href="#DejaVuSans-2e"
             id="use2655"
             y="0"
             width="100%"
             height="100%" />
          <use
             x="95.410156"
             xlink:href="#DejaVuSans-32"
             id="use2657"
             y="0"
             width="100%"
             height="100%" />
        </g>
      </g>
    </g>
    <g
       id="ytick_3">
      <g
         id="line2d_12">
        <g
           id="g2665">
          <use
             style="stroke:#000000;stroke-width:0.8"
             x="47.720001"
             xlink:href="#me63a92a8d2"
             y="193.02505"
             id="use2663"
             width="100%"
             height="100%" />
        </g>
      </g>
      <g
         id="text_13">
        <!-- 0.4 -->
        <g
           transform="matrix(0.1,0,0,-0.1,24.816875,196.82427)"
           id="g2674">
          <use
             xlink:href="#DejaVuSans-30"
             id="use2668"
             x="0"
             y="0"
             width="100%"
             height="100%" />
          <use
             x="63.623047"
             xlink:href="#DejaVuSans-2e"
             id="use2670"
             y="0"
             width="100%"
             height="100%" />
          <use
             x="95.410156"
             xlink:href="#DejaVuSans-34"
             id="use2672"
             y="0"
             width="100%"
             height="100%" />
        </g>
      </g>
    </g>
    <g
       id="ytick_4">
      <g
         id="line2d_13">
        <g
           id="g2680">
          <use
             style="stroke:#000000;stroke-width:0.8"
             x="47.720001"
             xlink:href="#me63a92a8d2"
             y="145.22357"
             id="use2678"
             width="100%"
             height="100%" />
        </g>
      </g>
      <g
         id="text_14">
        <!-- 0.6 -->
        <g
           transform="matrix(0.1,0,0,-0.1,24.816875,149.0228)"
           id="g2689">
          <use
             xlink:href="#DejaVuSans-30"
             id="use2683"
             x="0"
             y="0"
             width="100%"
             height="100%" />
          <use
             x="63.623047"
             xlink:href="#DejaVuSans-2e"
             id="use2685"
             y="0"
             width="100%"
             height="100%" />
          <use
             x="95.410156"
             xlink:href="#DejaVuSans-36"
             id="use2687"
             y="0"
             width="100%"
             height="100%" />
        </g>
      </g>
    </g>
    <g
       id="ytick_5">
      <g
         id="line2d_14">
        <g
           id="g2695">
          <use
             style="stroke:#000000;stroke-width:0.8"
             x="47.720001"
             xlink:href="#me63a92a8d2"
             y="97.422112"
             id="use2693"
             width="100%"
             height="100%" />
        </g>
      </g>
      <g
         id="text_15">
        <!-- 0.8 -->
        <g
           transform="matrix(0.1,0,0,-0.1,24.816875,101.22133)"
           id="g2704">
          <use
             xlink:href="#DejaVuSans-30"
             id="use2698"
             x="0"
             y="0"
             width="100%"
             height="100%" />
          <use
             x="63.623047"
             xlink:href="#DejaVuSans-2e"
             id="use2700"
             y="0"
             width="100%"
             height="100%" />
          <use
             x="95.410156"
             xlink:href="#DejaVuSans-38"
             id="use2702"
             y="0"
             width="100%"
             height="100%" />
        </g>
      </g>
    </g>
    <g
       id="ytick_6">
      <g
         id="line2d_15">
        <g
           id="g2710">
          <use
             style="stroke:#000000;stroke-width:0.8"
             x="47.720001"
             xlink:href="#me63a92a8d2"
             y="49.62064"
             id="use2708"
             width="100%"
             height="100%" />
        </g>
      </g>
      <g
         id="text_16">
        <!-- 1.0 -->
        <g
           transform="matrix(0.1,0,0,-0.1,24.816875,53.419859)"
           id="g2719">
          <use
             xlink:href="#DejaVuSans-31"
             id="use2713"
             x="0"
             y="0"
             width="100%"
             height="100%" />
          <use
             x="63.623047"
             xlink:href="#DejaVuSans-2e"
             id="use2715"
             y="0"
             width="100%"
             height="100%" />
          <use
             x="95.410156"
             xlink:href="#DejaVuSans-30"
             id="use2717"
             y="0"
             width="100%"
             height="100%" />
        </g>
      </g>
    </g>
    <g
       id="text_17">
      <!-- brightness -->
      <g
         transform="matrix(0,-0.1,-0.1,0,18.737188,196.9588)"
         id="g2750">
        <defs
           id="defs2728">
          <path
             d="m 3116,1747 q 0,634 -261,995 -261,361 -717,361 -457,0 -718,-361 -261,-361 -261,-995 0,-634 261,-995 261,-361 718,-361 456,0 717,361 261,361 261,995 z M 1159,2969 q 182,312 458,463 277,152 661,152 638,0 1036,-506 399,-506 399,-1331 Q 3713,922 3314,415 2916,-91 2278,-91 1894,-91 1617,61 1341,213 1159,525 V 0 H 581 v 4863 h 578 z"
             id="DejaVuSans-62"
             transform="scale(0.015625)" />
          <path
             d="m 2631,2963 q -97,56 -211,82 -114,27 -251,27 -488,0 -749,-317 -261,-317 -261,-911 V 0 H 581 v 3500 h 578 v -544 q 182,319 472,473 291,155 707,155 59,0 131,-8 72,-7 159,-23 z"
             id="DejaVuSans-72"
             transform="scale(0.015625)" />
          <path
             d="m 2906,1791 q 0,625 -258,968 -257,344 -723,344 -462,0 -720,-344 -258,-343 -258,-968 0,-622 258,-966 258,-344 720,-344 466,0 723,344 258,344 258,966 z M 3481,434 q 0,-893 -397,-1329 -396,-436 -1215,-436 -303,0 -572,45 -269,45 -522,139 v 559 q 253,-137 500,-202 247,-66 503,-66 566,0 847,295 281,295 281,892 V 616 Q 2728,306 2450,153 2172,0 1784,0 1141,0 747,490 353,981 353,1791 q 0,812 394,1302 394,491 1037,491 388,0 666,-153 278,-153 456,-462 v 531 h 575 z"
             id="DejaVuSans-67"
             transform="scale(0.015625)" />
          <path
             d="M 3513,2113 V 0 h -575 v 2094 q 0,497 -194,743 -194,247 -581,247 -466,0 -735,-297 -269,-296 -269,-809 V 0 H 581 v 3500 h 578 v -544 q 207,316 486,472 280,156 646,156 603,0 912,-373 310,-373 310,-1098 z"
             id="DejaVuSans-6e"
             transform="scale(0.015625)" />
          <path
             d="m 2834,3397 v -544 q -243,125 -506,187 -262,63 -544,63 -428,0 -642,-131 -214,-131 -214,-394 0,-200 153,-314 153,-114 616,-217 l 197,-44 q 612,-131 870,-370 258,-239 258,-667 0,-488 -386,-773 Q 2250,-91 1575,-91 1294,-91 989,-36 684,19 347,128 v 594 q 319,-166 628,-249 309,-82 613,-82 406,0 624,139 219,139 219,392 0,234 -158,359 -157,125 -692,241 l -200,47 q -534,112 -772,345 -237,233 -237,639 0,494 350,762 350,269 994,269 318,0 599,-47 282,-46 519,-140 z"
             id="DejaVuSans-73"
             transform="scale(0.015625)" />
        </defs>
        <use
           xlink:href="#DejaVuSans-62"
           id="use2730"
           x="0"
           y="0"
           width="100%"
           height="100%" />
        <use
           x="63.476562"
           xlink:href="#DejaVuSans-72"
           id="use2732"
           y="0"
           width="100%"
           height="100%" />
        <use
           x="104.58984"
           xlink:href="#DejaVuSans-69"
           id="use2734"
           y="0"
           width="100%"
           height="100%" />
        <use
           x="132.37305"
           xlink:href="#DejaVuSans-67"
           id="use2736"
           y="0"
           width="100%"
           height="100%" />
        <use
           x="195.84961"
           xlink:href="#DejaVuSans-68"
           id="use2738"
           y="0"
           width="100%"
           height="100%" />
        <use
           x="259.22852"
           xlink:href="#DejaVuSans-74"
           id="use2740"
           y="0"
           width="100%"
           height="100%" />
        <use
           x="298.4375"
           xlink:href="#DejaVuSans-6e"
           id="use2742"
           y="0"
           width="100%"
           height="100%" />
        <use
           x="361.81641"
           xlink:href="#DejaVuSans-65"
           id="use2744"
           y="0"
           width="100%"
           height="100%" />
        <use
           x="423.33984"
           xlink:href="#DejaVuSans-73"
           id="use2746"
           y="0"
           width="100%"
           height="100%" />
        <use
           x="475.43945"
           xlink:href="#DejaVuSans-73"
           id="use2748"
           y="0"
           width="100%"
           height="100%" />
      </g>
    </g>
  </g>
  <g
     id="line2d_16">
    <path
       clip-path="url(#pefaf1b6ae4)"
       d="m 66.005455,289.93304 3.323764,-2.07556 3.41873,0.23596 3.418729,-0.002 3.41873,0.0396 3.418729,0.27228 3.41873,1.20285 3.418729,-0.60197 3.41873,-1.36655 3.418729,0.22074 3.418735,0.3759 3.41872,1.16626 3.41873,-1.31987 3.41873,1.38655 3.41873,-2.24531 3.41873,0.92762 3.41873,-0.59557 3.41873,1.66732 3.41873,-1.45298 3.41873,0.26943 3.41873,0.7337 3.41873,-0.82259 3.41873,-1.17867 3.41873,1.92001 3.41873,-2.33879 3.41873,1.49419 3.41873,-0.49827 3.41873,-1.63731 3.41873,1.39178 3.41872,-0.7095 3.41873,-2.21329 3.41873,1.8105 3.41873,-0.93963 3.41873,-1.28153 3.41873,-0.50594 3.41873,0.55909 3.41873,-2.30771 3.41873,-0.26925 3.41873,-1.9456 3.41873,-1.29182 3.41873,-1.18327 3.41873,-4.89022 3.41873,-1.27244 3.41873,-5.68862 3.41873,-6.14187 3.41873,-5.99918 3.41873,-4.75042 3.41873,-7.61588 3.41872,-7.77232 3.41873,-7.35223 3.41873,-7.17416 3.41873,-7.14934 3.41873,-8.52372 3.41873,-8.00254 3.41873,-9.70507 3.41873,-8.27949 3.41873,-8.43623 3.41873,-8.61129 3.41873,-7.63257 3.41873,-8.88526 3.41873,-8.58978 3.41873,-9.06925 3.41873,-7.69636 3.41873,-9.2277 3.41873,-7.66507 3.41873,-8.268636 3.41873,-7.963493 3.41873,-7.741749 3.41872,-5.339987 3.41873,-5.168696 3.41873,-5.550865 3.41873,-3.788898 3.41873,-3.159693 3.41873,-1.118314 3.41873,-1.75914 3.41873,-1.053284 3.41873,0.245585 3.41873,1.674351 3.41873,0.644149 3.41873,3.39685 3.41873,2.015535 3.41873,3.519348 3.41873,3.92757 3.41873,4.825374 3.41873,3.580475 3.41873,5.123932 3.41873,4.60514 3.41873,4.641144 3.41873,4.978654 3.41872,3.243145 3.41873,2.997735 3.41873,5.104698 3.41873,4.95872 3.41873,2.73558 3.41873,3.42162 3.41873,3.52948 3.41873,3.98098 3.41873,3.12962 3.41873,3.08069 3.41873,1.83958 3.41873,2.04018 3.41873,1.78384 3.41873,3.15583 3.41873,0.98114 3.41873,1.10472 3.41873,0.84614 3.41873,0.38978 3.41872,0.12744"
       style="fill:none;stroke:#1f77b4;stroke-width:1.5;stroke-linecap:square"
       id="path2754" />
  </g>
  <g
     id="line2d_17">
    <path
       clip-path="url(#pefaf1b6ae4)"
       d="m 66.005455,288.86095 3.323764,-0.60134 3.41873,0.50379 3.418729,0.17076 3.41873,0.40483 3.418729,0.35261 3.41873,0.8956 3.418729,0.14128 3.41873,-1.18185 3.418729,0.43164 3.418735,0.46745 3.41872,1.0305 3.41873,-1.39297 3.41873,1.1199 3.41873,-1.53566 3.41873,0.75557 3.41873,-0.43534 3.41873,1.04716 3.41873,-0.67615 3.41873,-0.0802 3.41873,-0.0173 3.41873,-0.61595 3.41873,-1.47731 3.41873,1.62528 3.41873,-1.95375 3.41873,0.79793 3.41873,-0.78471 3.41873,-1.47533 3.41873,1.13706 3.41872,-0.92848 3.41873,-1.75908 3.41873,1.19381 3.41873,-1.10714 3.41873,-0.45092 3.41873,-0.89906 3.41873,0.18777 3.41873,-1.74617 3.41873,-0.28566 3.41873,-1.36706 3.41873,-1.42282 3.41873,-1.23044 3.41873,-4.91187 3.41873,-2.30432 3.41873,-6.17395 3.41873,-6.21299 3.41873,-6.81583 3.41873,-5.74807 3.41873,-7.58828 3.41872,-8.59881 3.41873,-8.58841 3.41873,-9.12664 3.41873,-7.2804 3.41873,-8.61892 3.41873,-7.8172 3.41873,-9.22978 3.41873,-7.75666 3.41873,-8.25975 3.41873,-7.81006 3.41873,-7.14789 3.41873,-7.42168 3.41873,-7.14581 3.41873,-7.13957 3.41873,-6.20483 3.41873,-6.84695 3.41873,-5.44138 3.41873,-5.92471 3.41873,-5.922069 3.41873,-5.77655 3.41872,-4.234802 3.41873,-3.911602 3.41873,-5.045348 3.41873,-3.162319 3.41873,-3.849814 3.41873,-2.472473 3.41873,-3.30151 3.41873,-2.464776 3.41873,-2.441075 3.41873,-1.395558 3.41873,-1.966329 3.41873,-0.992777 3.41873,-2.245302 3.41873,-0.539253 3.41873,-1.082511 3.41873,0.102006 3.41873,-1.008792 3.41873,0.387981 3.41873,0.435034 3.41873,0.52135 3.41873,1.764995 3.41872,0.678496 3.41873,2.230035 3.41873,3.921753 3.41873,4.531594 3.41873,3.258214 3.41873,4.403622 3.41873,4.9467 3.41873,5.916786 3.41873,4.715584 3.41873,5.52129 3.41873,5.157077 3.41873,5.522903 3.41873,4.96663 3.41873,6.12032 3.41873,4.82004 3.41873,4.48474 3.41873,4.32158 3.41873,4.61311 3.41872,3.91237"
       style="fill:none;stroke:#ff7f0e;stroke-width:1.5;stroke-linecap:square"
       id="path2757" />
  </g>
  <g
     id="line2d_18">
    <path
       clip-path="url(#pefaf1b6ae4)"
       d="M 202.75463,290.33422 V 250.4169"
       style="fill:none;stroke:#000000;stroke-width:1.5;stroke-linecap:square"
       id="path2760" />
  </g>
  <g
     id="line2d_19"
     transform="translate(0,-34.5)">
    <path
       clip-path="url(#pefaf1b6ae4)"
       d="M 230.10447,290.33422 V 250.4169"
       style="fill:none;stroke:#000000;stroke-width:1.5;stroke-linecap:square"
       id="path2763" />
  </g>
  <g
     id="line2d_20"
     transform="translate(0,-66)">
    <path
       clip-path="url(#pefaf1b6ae4)"
       d="M 243.77939,290.33422 V 250.4169"
       style="fill:none;stroke:#000000;stroke-width:1.5;stroke-linecap:square"
       id="path2766" />
  </g>
  <g
     id="line2d_21"
     transform="matrix(1.6472905,0,0,1.6472905,-241.8867,-25.526311)"
     style="stroke-width:0.607057">
    <path
       clip-path="url(#pefaf1b6ae4)"
       d="M 373.69111,90.747584 V 40.185635"
       style="fill:none;stroke:#ff0000;stroke-width:0.910586;stroke-linecap:square"
       id="path2769" />
  </g>
  <g
     id="patch_3">
    <path
       d="M 47.72,303.64 V 37.52448"
       style="fill:none;stroke:#000000;stroke-width:0.8;stroke-linecap:square;stroke-linejoin:miter"
       id="path2772" />
  </g>
  <g
     id="patch_4">
    <path
       d="M 47.72,303.64 H 450"
       style="fill:none;stroke:#000000;stroke-width:0.8;stroke-linecap:square;stroke-linejoin:miter"
       id="path2775" />
  </g>
  <g
     id="text_18"
     transform="translate(6.2846552)">
    <!-- 20h -->
    <g
       transform="matrix(0.07,0,0,-0.07,189.41088,300.97884)"
       id="g2784">
      <use
         xlink:href="#DejaVuSans-32"
         id="use2778"
         x="0"
         y="0"
         width="100%"
         height="100%" />
      <use
         x="63.623047"
         xlink:href="#DejaVuSans-30"
         id="use2780"
         y="0"
         width="100%"
         height="100%" />
      <use
         x="127.24609"
         xlink:href="#DejaVuSans-68"
         id="use2782"
         y="0"
         width="100%"
         height="100%" />
    </g>
  </g>
  <g
     id="text_19"
     transform="translate(6.2846552,-34.5)">
    <!-- 24h -->
    <g
       transform="matrix(0.07,0,0,-0.07,216.76072,300.97884)"
       id="g2793">
      <use
         xlink:href="#DejaVuSans-32"
         id="use2787"
         x="0"
         y="0"
         width="100%"
         height="100%" />
      <use
         x="63.623047"
         xlink:href="#DejaVuSans-34"
         id="use2789"
         y="0"
         width="100%"
         height="100%" />
      <use
         x="127.24609"
         xlink:href="#DejaVuSans-68"
         id="use2791"
         y="0"
         width="100%"
         height="100%" />
    </g>
  </g>
  <g
     id="text_20"
     transform="translate(6.2846552,-66)">
    <!-- 26h -->
    <g
       transform="matrix(0.07,0,0,-0.07,230.43564,300.97884)"
       id="g2802">
      <use
         xlink:href="#DejaVuSans-32"
         id="use2796"
         x="0"
         y="0"
         width="100%"
         height="100%" />
      <use
         x="63.623047"
         xlink:href="#DejaVuSans-36"
         id="use2798"
         y="0"
         width="100%"
         height="100%" />
      <use
         x="127.24609"
         xlink:href="#DejaVuSans-68"
         id="use2800"
         y="0"
         width="100%"
         height="100%" />
    </g>
  </g>
  <g
     id="text_21">
    <!-- 45h -->
    <g
       style="fill:#ff0000"
       transform="matrix(0.07,0,0,-0.07,367.01923,34.863325)"
       id="g2814">
      <defs
         id="defs2806">
        <path
           d="M 691,4666 H 3169 V 4134 H 1269 V 2991 q 137,47 274,70 138,23 276,23 781,0 1237,-428 457,-428 457,-1159 Q 3513,744 3044,326 2575,-91 1722,-91 1428,-91 1123,-41 819,9 494,109 v 635 q 281,-153 581,-228 300,-75 634,-75 541,0 856,284 316,284 316,772 0,487 -316,771 -315,285 -856,285 -253,0 -505,-56 -251,-56 -513,-175 z"
           id="DejaVuSans-35"
           transform="scale(0.015625)" />
      </defs>
      <use
         xlink:href="#DejaVuSans-34"
         id="use2808"
         x="0"
         y="0"
         width="100%"
         height="100%" />
      <use
         x="63.623047"
         xlink:href="#DejaVuSans-35"
         id="use2810"
         y="0"
         width="100%"
         height="100%" />
      <use
         x="127.24609"
         xlink:href="#DejaVuSans-68"
         id="use2812"
         y="0"
         width="100%"
         height="100%" />
    </g>
  </g>
  <g
     id="text_22">
    <!-- Growth pattern -->
    <g
       transform="matrix(0.12,0,0,-0.12,203.19344,20.879859)"
       id="g2852">
      <defs
         id="defs2822">
        <path
           d="M 3809,666 V 1919 H 2778 v 519 H 4434 V 434 Q 4069,175 3628,42 3188,-91 2688,-91 1594,-91 976,548 359,1188 359,2328 q 0,1144 617,1783 618,639 1712,639 456,0 867,-113 411,-112 758,-331 v -672 q -350,297 -744,447 -394,150 -828,150 -857,0 -1287,-478 -429,-478 -429,-1425 0,-944 429,-1422 430,-478 1287,-478 334,0 596,58 263,58 472,180 z"
           id="DejaVuSans-47"
           transform="scale(0.015625)" />
        <path
           d="m 1959,3097 q -462,0 -731,-361 -269,-361 -269,-989 0,-628 267,-989 268,-361 733,-361 460,0 728,362 269,363 269,988 0,622 -269,986 -268,364 -728,364 z m 0,487 q 750,0 1178,-488 429,-487 429,-1349 Q 3566,888 3137,398 2709,-91 1959,-91 1206,-91 779,398 353,888 353,1747 q 0,862 426,1349 427,488 1180,488 z"
           id="DejaVuSans-6f"
           transform="scale(0.015625)" />
        <path
           d="m 269,3500 h 575 l 719,-2731 715,2731 h 678 l 719,-2731 716,2731 h 575 L 4050,0 H 3372 L 2619,2869 1863,0 h -679 z"
           id="DejaVuSans-77"
           transform="scale(0.015625)" />
        <path
           d="M 1159,525 V -1331 H 581 v 4831 h 578 v -531 q 182,312 458,463 277,152 661,152 638,0 1036,-506 399,-506 399,-1331 0,-825 -399,-1332 -398,-506 -1036,-506 -384,0 -661,152 -276,152 -458,464 z m 1957,1222 q 0,634 -261,995 -261,361 -717,361 -457,0 -718,-361 -261,-361 -261,-995 0,-634 261,-995 261,-361 718,-361 456,0 717,361 261,361 261,995 z"
           id="DejaVuSans-70"
           transform="scale(0.015625)" />
        <path
           d="m 2194,1759 q -697,0 -966,-159 -269,-159 -269,-544 0,-306 202,-486 202,-179 548,-179 479,0 768,339 289,339 289,901 v 128 z m 1147,238 V 0 H 2766 V 531 Q 2569,213 2275,61 1981,-91 1556,-91 q -537,0 -855,302 -317,302 -317,808 0,590 395,890 396,300 1180,300 h 807 v 57 q 0,397 -261,614 -261,217 -733,217 -300,0 -585,-72 -284,-72 -546,-216 v 532 q 315,122 612,182 297,61 578,61 760,0 1135,-394 375,-393 375,-1193 z"
           id="DejaVuSans-61"
           transform="scale(0.015625)" />
      </defs>
      <use
         xlink:href="#DejaVuSans-47"
         id="use2824"
         x="0"
         y="0"
         width="100%"
         height="100%" />
      <use
         x="77.490234"
         xlink:href="#DejaVuSans-72"
         id="use2826"
         y="0"
         width="100%"
         height="100%" />
      <use
         x="116.35352"
         xlink:href="#DejaVuSans-6f"
         id="use2828"
         y="0"
         width="100%"
         height="100%" />
      <use
         x="177.53516"
         xlink:href="#DejaVuSans-77"
         id="use2830"
         y="0"
         width="100%"
         height="100%" />
      <use
         x="259.32227"
         xlink:href="#DejaVuSans-74"
         id="use2832"
         y="0"
         width="100%"
         height="100%" />
      <use
         x="298.53125"
         xlink:href="#DejaVuSans-68"
         id="use2834"
         y="0"
         width="100%"
         height="100%" />
      <use
         x="361.91016"
         xlink:href="#DejaVuSans-20"
         id="use2836"
         y="0"
         width="100%"
         height="100%" />
      <use
         x="393.69727"
         xlink:href="#DejaVuSans-70"
         id="use2838"
         y="0"
         width="100%"
         height="100%" />
      <use
         x="457.17383"
         xlink:href="#DejaVuSans-61"
         id="use2840"
         y="0"
         width="100%"
         height="100%" />
      <use
         x="518.45312"
         xlink:href="#DejaVuSans-74"
         id="use2842"
         y="0"
         width="100%"
         height="100%" />
      <use
         x="557.66211"
         xlink:href="#DejaVuSans-74"
         id="use2844"
         y="0"
         width="100%"
         height="100%" />
      <use
         x="596.87109"
         xlink:href="#DejaVuSans-65"
         id="use2846"
         y="0"
         width="100%"
         height="100%" />
      <use
         x="658.39453"
         xlink:href="#DejaVuSans-72"
         id="use2848"
         y="0"
         width="100%"
         height="100%" />
      <use
         x="697.75781"
         xlink:href="#DejaVuSans-6e"
         id="use2850"
         y="0"
         width="100%"
         height="100%" />
    </g>
  </g>
  <g
     id="legend_1">
    <g
       id="patch_5">
      <path
         d="m 53.32,55.66698 h 129.045 q 1.6,0 1.6,-1.6 v -10.9425 q 0,-1.6 -1.6,-1.6 H 53.32 q -1.6,0 -1.6,1.6 v 10.9425 q 0,1.6 1.6,1.6 z"
         style="opacity:0.3;fill:#ffffff;stroke:#cccccc;stroke-linejoin:miter"
         id="path2855" />
    </g>
    <g
       id="line2d_22">
      <path
         d="m 54.92,48.00323 h 16"
         style="fill:none;stroke:#1f77b4;stroke-width:1.5;stroke-linecap:square"
         id="path2858" />
    </g>
    <g
       id="line2d_23" />
    <g
       id="text_23">
      <!-- M145Δgbn -->
      <g
         transform="matrix(0.08,0,0,-0.08,77.32,50.80323)"
         id="g2882">
        <defs
           id="defs2864">
          <path
             d="m 628,4666 h 941 L 2759,1491 3956,4666 h 941 V 0 H 4281 V 4097 L 3078,897 H 2444 L 1241,4097 V 0 H 628 Z"
             id="DejaVuSans-4d"
             transform="scale(0.015625)" />
          <path
             d="M 2188,4044 906,525 H 3472 Z M 50,0 1831,4666 h 716 L 4325,0 Z"
             id="DejaVuSans-394"
             transform="scale(0.015625)" />
        </defs>
        <use
           xlink:href="#DejaVuSans-4d"
           id="use2866"
           x="0"
           y="0"
           width="100%"
           height="100%" />
        <use
           x="86.279297"
           xlink:href="#DejaVuSans-31"
           id="use2868"
           y="0"
           width="100%"
           height="100%" />
        <use
           x="149.90234"
           xlink:href="#DejaVuSans-34"
           id="use2870"
           y="0"
           width="100%"
           height="100%" />
        <use
           x="213.52539"
           xlink:href="#DejaVuSans-35"
           id="use2872"
           y="0"
           width="100%"
           height="100%" />
        <use
           x="277.14844"
           xlink:href="#DejaVuSans-394"
           id="use2874"
           y="0"
           width="100%"
           height="100%" />
        <use
           x="345.55664"
           xlink:href="#DejaVuSans-67"
           id="use2876"
           y="0"
           width="100%"
           height="100%" />
        <use
           x="409.0332"
           xlink:href="#DejaVuSans-62"
           id="use2878"
           y="0"
           width="100%"
           height="100%" />
        <use
           x="472.50977"
           xlink:href="#DejaVuSans-6e"
           id="use2880"
           y="0"
           width="100%"
           height="100%" />
      </g>
    </g>
    <g
       id="line2d_24">
      <path
         d="m 136.1925,48.00323 h 16"
         style="fill:none;stroke:#ff7f0e;stroke-width:1.5;stroke-linecap:square"
         id="path2885" />
    </g>
    <g
       id="line2d_25" />
    <g
       id="text_24">
      <!-- M145 -->
      <g
         transform="matrix(0.08,0,0,-0.08,158.5925,50.80323)"
         id="g2897">
        <use
           xlink:href="#DejaVuSans-4d"
           id="use2889"
           x="0"
           y="0"
           width="100%"
           height="100%" />
        <use
           x="86.279297"
           xlink:href="#DejaVuSans-31"
           id="use2891"
           y="0"
           width="100%"
           height="100%" />
        <use
           x="149.90234"
           xlink:href="#DejaVuSans-34"
           id="use2893"
           y="0"
           width="100%"
           height="100%" />
        <use
           x="213.52539"
           xlink:href="#DejaVuSans-35"
           id="use2895"
           y="0"
           width="100%"
           height="100%" />
      </g>
    </g>
  </g>
  <defs
     id="defs2906">
    <clipPath
       id="pefaf1b6ae4">
      <rect
         height="266.11552"
         width="402.28"
         x="47.72"
         y="37.52448"
         id="rect2903" />
    </clipPath>
  </defs>
</svg>
